<?xml version="1.0" encoding="utf-8"?>
<!-- Generator: Adobe Illustrator 23.0.1, SVG Export Plug-In . SVG Version: 6.00 Build 0)  -->
<svg version="1.1" id="Layer_1" xmlns="http://www.w3.org/2000/svg" xmlns:xlink="http://www.w3.org/1999/xlink" x="0px" y="0px"
	 viewBox="0 0 228.53 50" style="enable-background:new 0 0 228.53 50;" xml:space="preserve">
<style type="text/css">
	.st0{fill:#282829;}
	.st1{fill:#B6D332;}
	.st2{fill:#B7D333;}
	.st3{fill:#8CBA3A;}
	.st4{fill:#8BBA38;}
	.st5{fill:#B7D334;}
	.st6{fill:#AACC36;}
	.st7{fill:#9FC537;}
	.st8{fill:#A6C935;}
	.st9{fill:#9DC437;}
	.st10{fill:#A3C837;}
	.st11{fill:#A6CA37;}
	.st12{fill:#ACCD35;}
	.st13{fill:#94BF38;}
	.st14{fill:#95BF37;}
	.st15{fill:#A0C637;}
	.st16{fill:#B2D136;}
	.st17{fill:#96C03A;}
	.st18{fill:#ADCE36;}
	.st19{fill:#96C039;}
	.st20{fill:#A1C737;}
	.st21{fill:#9DC438;}
	.st22{fill:#A7CA37;}
	.st23{fill:#B2D134;}
	.st24{fill:#B2D135;}
	.st25{fill:#A1C73A;}
	.st26{fill:#A8CB37;}
	.st27{fill:#A7CA3A;}
	.st28{fill:#A4C837;}
	.st29{fill:#91BD38;}
	.st30{fill:#9BC339;}
	.st31{fill:#ADCE39;}
	.st32{fill:#B2D138;}
	.st33{fill:#A3C83D;}
	.st34{fill:#9CC43B;}
	.st35{fill:#EEEEEE;}
	.st36{fill:#EFEFEF;}
	.st37{fill:#91BD3A;}
</style>
<g>
	<path class="st0" d="M79.6,28.32c-1.56,0-2.89,0.01-4.21,0c-0.76,0-1.87,0.05-1.63-1c0.24-1.08-0.39-2.92,1.52-3.04
		c2.41-0.15,4.85-0.14,7.27,0.02c1.46,0.09,2.19,1.13,2.17,2.65c-0.03,2.49-0.1,4.98,0.03,7.47c0.08,1.57-0.62,1.78-1.92,1.74
		c-1.26-0.03-2.36,0.02-2.01-1.76c0.05-0.24,0.01-0.5,0.01-1.04c-2.13,1.72-4.22,3.01-6.88,3.18C66.99,36.98,61.39,32.09,61,25.11
		c-0.4-7.05,4.63-12.85,11.49-13.2c4.84-0.25,8.75,1.44,11.4,5.6c1.18,1.86,1.01,2.09-1.03,2.7c-1.7,0.51-2.83,0.52-4.01-1.34
		c-2.18-3.44-7.72-3.38-10.73-0.2c-2.41,2.54-2.79,7.05-0.87,10.14c1.73,2.77,5.32,4.05,8.55,2.98
		C77.42,31.25,78.76,30.33,79.6,28.32z"/>
	<path class="st0" d="M156.6,36.58c-2.72-0.01-5.09-0.92-7.28-2.52c-1.79-1.3-0.28-2.13,0.29-3.11c0.6-1.02,1.31-1.54,2.43-0.58
		c1.08,0.93,2.37,1.52,3.77,1.75c1.62,0.26,3.21,0.01,3.88-1.67c0.69-1.72-0.54-2.74-1.88-3.49c-1.16-0.65-2.4-1.18-3.59-1.78
		c-4.13-2.09-5.81-5.27-4.61-8.73c1.12-3.23,5.44-5.28,9.42-4.43c1.31,0.28,2.56,0.76,3.73,1.44c2.62,1.54,2.65,1.93,0.56,4.2
		c-0.65,0.7-1.16,0.81-1.94,0.21c-1.28-1-2.7-1.72-4.39-1.56c-1.14,0.11-2.16,0.52-2.46,1.76c-0.29,1.18,0.42,1.98,1.36,2.5
		c1.44,0.8,2.97,1.46,4.43,2.24c3.93,2.1,5.45,5.01,4.49,8.5C163.93,34.52,160.53,36.71,156.6,36.58z"/>
	<path class="st0" d="M124.61,29.73c-1.47,0-2.93,0.02-4.4-0.01c-1.29-0.03-1.22,0.55-0.68,1.4c1.02,1.61,3.57,2.26,5.03,0.91
		c1.57-1.44,3.16-0.67,4.67-0.46c1.25,0.17,0.5,1.2,0.09,1.75c-2.14,2.89-5.14,3.59-8.49,3.09c-3.03-0.45-5.17-2.22-6.12-5.11
		c-1.08-3.31-0.67-6.48,1.95-9c2.56-2.46,5.69-2.8,8.89-1.56c3.27,1.27,4.52,4.05,4.92,7.37c0.15,1.23-0.33,1.63-1.46,1.62
		C127.54,29.72,126.07,29.73,124.61,29.73z"/>
	<path class="st0" d="M107.27,29.73c-1.47,0-2.93,0.03-4.4-0.01c-1.12-0.03-1.17,0.46-0.71,1.28c0.95,1.7,3.64,2.4,5.15,1
		c1.58-1.45,3.18-0.64,4.68-0.42c1.19,0.18,0.43,1.2,0.01,1.77c-2.2,2.98-5.31,3.62-8.69,3.02c-3.32-0.59-5.41-2.74-6.19-6.02
		c-1.17-4.86,1.8-9.43,6.5-10.11c5.17-0.76,9.14,2.49,9.55,7.71c0.11,1.39-0.38,1.84-1.68,1.78
		C110.08,29.69,108.68,29.73,107.27,29.73z"/>
	<path class="st0" d="M172.74,31.36c1.03-3.41,1.93-6.39,2.84-9.37c0.39-1.27,3.91-2.17,4.81-1.23c0.37,0.39,0.19,0.84,0.05,1.26
		c-1.98,5.71-3.96,11.42-5.97,17.12c-0.69,1.97-2.19,2.9-4.24,2.98c-0.7,0.03-1.4,0.01-2.11,0c-2.34-0.01-2.49-0.27-1.94-2.55
		c0.22-0.91,0.58-1.33,1.54-1.23c0.5,0.05,1.04,0.05,1.52-0.06c1.32-0.3,1.58-1.29,0.67-2.32c-0.24-0.27-0.4-0.64-0.52-0.99
		c-1.46-4.21-2.87-8.43-4.37-12.62c-0.48-1.36-0.17-1.84,1.3-1.85c3.08-0.03,3.08-0.09,3.99,2.92
		C171.08,25.91,171.84,28.4,172.74,31.36z"/>
	<path class="st0" d="M181.9,28.32c0-1.91-0.04-3.83,0.02-5.74c0.02-0.69-0.42-1.79,0.62-1.94c1.2-0.18,2.83-0.73,3.58,0.39
		c0.59,0.89,0.72,0.59,1.23,0.22c1.3-0.95,2.79-1.23,4.36-1.09c2.95,0.25,4.94,2.29,5.01,5.27c0.07,3.06-0.03,6.13,0.04,9.19
		c0.03,1.16-0.3,1.54-1.5,1.54c-3.01-0.01-3.01,0.06-3.01-2.94c0-1.98,0.04-3.96-0.01-5.94c-0.05-2.05-0.96-2.97-2.73-2.9
		c-1.87,0.07-3.12,1.29-3.13,3.07c-0.01,2.43-0.05,4.85,0.02,7.28c0.03,1.08-0.33,1.54-1.42,1.41c-0.44-0.05-0.9-0.06-1.34,0
		c-1.3,0.17-1.84-0.29-1.77-1.68C181.97,32.41,181.9,30.37,181.9,28.32z"/>
	<path class="st0" d="M132.25,28.37c0-2.04-0.02-4.08,0.01-6.12c0.01-0.63-0.35-1.67,0.7-1.65c1.17,0.02,2.78-0.83,3.45,0.55
		c0.51,1.06,0.73,0.45,1.12,0.19c2.21-1.52,4.55-1.65,6.87-0.45c2.27,1.17,2.74,3.36,2.74,5.7c0,2.42-0.13,4.86,0.04,7.27
		c0.13,1.91-0.58,2.35-2.38,2.33c-1.68-0.02-2.41-0.34-2.24-2.2c0.18-2.03,0.05-4.08,0.04-6.12c-0.01-2.5-0.84-3.55-2.75-3.49
		c-2.02,0.06-3.06,1.23-3.06,3.45c0,2.23-0.06,4.47,0.02,6.7c0.04,1.28-0.45,1.74-1.68,1.61c-0.57-0.06-1.15-0.05-1.72,0
		c-0.95,0.08-1.19-0.38-1.17-1.25C132.28,32.71,132.25,30.54,132.25,28.37z"/>
	<path class="st0" d="M206.67,36.59c-4.04-0.17-7.1-2.49-8.01-5.93c-0.97-3.66,0.48-7.43,3.57-9.33c3.07-1.88,7.54-1.54,10.17,0.83
		c0.56,0.5,1.03,1.13,1.43,1.78c0.52,0.84,0.25,1.48-0.74,1.69c-1.5,0.31-2.89,0.99-4.29-0.7c-1.19-1.44-3.65-0.94-4.9,0.57
		c-1.4,1.68-1.31,4.43,0.2,5.95c1.38,1.39,3.75,1.66,4.97,0.17c1.54-1.86,3.04-0.62,4.49-0.28c0.96,0.22,0.5,1.12,0.1,1.72
		C211.96,35.66,209.42,36.56,206.67,36.59z"/>
	<path class="st0" d="M91.33,22.33c0.54-0.51,0.83-0.85,1.18-1.1c1.14-0.83,2.69-1.48,3.7-0.65c0.98,0.81,0.4,2.52,0.29,3.82
		c-0.06,0.78-0.89,0.51-1.42,0.54c-2.71,0.15-3.5,0.94-3.53,3.64c-0.02,2.04-0.04,4.08,0.01,6.12c0.02,1.07-0.38,1.43-1.45,1.46
		C87,36.23,87,36.28,87,33.17c0-3.63,0.01-7.26,0-10.89c0-0.91-0.13-1.98,1.26-1.72C89.38,20.75,91.3,19.5,91.33,22.33z"/>
	<path class="st1" d="M34.84,31.8c0.43-2.31,0.76-4.65,1.32-6.93c0.38-1.56,1.6-2.27,3.23-1.99c1.52,0.27,2.41,1.65,2.15,3.3
		c-0.16,1.01-0.41,2-0.62,2.99c-1.33,1.63-3.29,2.26-5.08,3.16C35.48,32.51,34.77,32.7,34.84,31.8z"/>
	<path class="st2" d="M36,19.18c-0.46,2.37-0.86,4.76-1.41,7.11c-0.38,1.62-1.59,2.28-3.19,2.03c-1.51-0.23-2.46-1.7-2.19-3.3
		c0.16-0.94,0.45-1.85,0.68-2.78C31.67,20.72,33.4,19.09,36,19.18z"/>
	<path class="st2" d="M42.51,28c0.15-1,0.25-2.02,0.48-3.01c0.31-1.33,1.24-2.13,2.58-2.16c1.38-0.03,2.46,0.56,2.7,2.11
		C46.7,26.61,44.91,27.89,42.51,28z"/>
	<path class="st3" d="M38.71,39.51c-0.49,0.92-0.23,1.96-0.46,2.92c-0.35,1.45-1.25,2.41-2.78,2.35c-1.3-0.06-2.5-0.51-2.6-2.15
		c0.03-0.08,0.06-0.17,0.09-0.25c1.71-1.23,3.41-2.48,5.51-2.99C38.55,39.43,38.63,39.47,38.71,39.51z"/>
	<path class="st4" d="M32.09,11.5c0.14-0.88,0.26-1.76,0.43-2.64c0.29-1.5,1.13-2.37,2.75-2.39c1.63-0.02,2.43,0.83,2.66,2.36
		c-1.31,1.18-2.82,2.02-4.46,2.65C33.01,11.66,32.56,11.92,32.09,11.5z"/>
	<path class="st5" d="M28.27,23.41c-0.13,0.81-0.21,1.63-0.39,2.43c-0.41,1.83-1.85,2.85-3.45,2.48c-1.69-0.39-2.41-1.84-1.89-3.85
		c0.15,0.09,0.27,0.21,0.37,0.35c0.98,1.02,1.69-0.12,2.47-0.35C26.36,24.18,27.07,23.13,28.27,23.41z"/>
	<path class="st6" d="M40.25,31.92c0,0.65,0.05,1.32-0.39,1.88c-1.45,0.72-3,1.24-4.31,2.25c-0.49,0.38-1.09,0.63-1.75,0.37
		c0.17-0.9,0.16-1.84,0.64-2.67c1.41-0.86,2.76-1.83,4.26-2.55C39.78,30.68,40.02,30.87,40.25,31.92z"/>
	<path class="st7" d="M31.01,16.87c0.09-0.65-0.23-1.35,0.29-1.94c0.44-0.3,0.67-0.84,1.16-1.08c1.62-0.93,3.01-2.36,5.07-2.34
		c-0.14,0.77-0.27,1.53-0.41,2.3c-1.7,1.56-3.63,2.68-5.89,3.23C31.15,16.99,31.08,16.93,31.01,16.87z"/>
	<path class="st8" d="M54.86,24.13c0.82,1.07,0.67,2.09-0.14,3.08c-0.69,0.24-1.2,0.78-1.84,1.1c-1.53,0.3-2.36-0.46-2.79-1.83
		C51.47,25.27,52.97,24.3,54.86,24.13z"/>
	<path class="st9" d="M39.48,35.71c0,0.66,0.05,1.34-0.38,1.92c-1.44,0.59-2.75,1.44-4.16,2.1c-0.61,0.28-1.16,0.78-1.91,0.53
		c0.13-0.64,0.26-1.28,0.4-1.92c1.28-1.7,3.22-2.38,5.07-3.17C38.86,35.01,39.55,34.8,39.48,35.71z"/>
	<path class="st10" d="M39.48,35.71c-1.55-0.61-2.42,0.82-3.63,1.24c-0.87,0.3-1.62,0.91-2.43,1.39c0.13-0.64,0.26-1.28,0.38-1.92
		c1.71-0.9,3.42-1.79,5.11-2.72c0.39-0.21,0.67-0.32,0.95,0.1C39.85,34.46,39.92,35.13,39.48,35.71z"/>
	<path class="st11" d="M29.4,18.05c-0.13,0.64-0.26,1.28-0.4,1.92c-1.12,1.86-3.19,2.31-4.92,3.25c-0.38,0.21-1.19,0.38-1.13-0.62
		c0-0.67-0.05-1.35,0.39-1.93c1.39-0.04,2.38-0.99,3.54-1.56C27.69,18.71,28.37,17.94,29.4,18.05z"/>
	<path class="st12" d="M54.86,24.13c-1.56,0.84-3.05,1.84-4.77,2.36c-0.61-1.26-0.34-2.38,0.83-3.05
		C52.34,22.63,53.76,22.72,54.86,24.13z"/>
	<path class="st13" d="M23.77,18.41c-0.2-1.64,0.49-2.84,1.97-3.48c1.16-0.5,2.2-0.18,2.96,0.88
		C27.94,17.25,25.46,18.56,23.77,18.41z"/>
	<path class="st14" d="M37.52,11.52c-1.65,0.89-3.31,1.79-4.96,2.68c-1.31,0.3-0.96-0.5-0.78-1.18c-0.04-0.13-0.02-0.25,0.06-0.36
		c1.91-1.26,3.68-2.8,6.09-3.06C37.79,10.24,37.66,10.88,37.52,11.52z"/>
	<path class="st15" d="M29.4,18.05c-1.59,1.12-3.26,2.08-5.01,2.91c-0.4,0.19-0.94,0.66-1.06-0.29c0-0.66-0.04-1.33,0.39-1.9
		c1.47,0.19,2.36-1.01,3.56-1.48c0.64-0.25,1.23-0.63,1.87-0.88C29.59,16.9,29.52,17.47,29.4,18.05z"/>
	<path class="st16" d="M40.25,31.92c-0.94-1.16-1.75-0.19-2.42,0.28c-1.05,0.74-2.02,1.54-3.38,1.55c0.01-0.67-0.05-1.36,0.39-1.94
		c0.74,0.77,1.26-0.06,1.79-0.32c1.46-0.71,2.86-1.54,4.28-2.32C40.72,30.09,40.72,31.06,40.25,31.92z"/>
	<path class="st17" d="M46.76,33.8c-0.49,2.65-2.42,3.41-4.59,1.81c0.4-1.13,2.94-2.93,4.03-2.83
		C46.86,32.84,47.08,33.18,46.76,33.8z"/>
	<path class="st18" d="M22.95,22.6c0.39,0.57,0.86,0.41,1.33,0.14c1.58-0.92,3.15-1.84,4.73-2.77c-0.13,0.64-0.26,1.28-0.38,1.92
		c-1.78,1.45-3.61,2.79-6,3.03c-0.02-0.15-0.04-0.3-0.07-0.45C22.56,23.82,22.52,23.16,22.95,22.6z"/>
	<path class="st19" d="M33.03,40.26c1.59-0.87,3.17-1.75,4.77-2.59c0.39-0.21,0.85-0.7,1.3-0.04c-0.03,0.65,0.05,1.32-0.39,1.89
		c0,0-0.05-0.02-0.05-0.02c-2.22,0.4-4.04,1.56-5.68,3.05c0,0-0.1,0.1-0.11,0.1C32.31,41.8,32.95,41.05,33.03,40.26z"/>
	<path class="st18" d="M41.82,31.07c-0.09-0.56,0.12-1.05,0.35-1.53c1.35-1.61,3.43-2.11,5.07-3.27c0.31-0.22,0.74-0.09,1.05,0.2
		c0.01,0.54,0.03,1.09-0.34,1.54C46.06,29.35,44.36,31.06,41.82,31.07z"/>
	<path class="st20" d="M41.41,34.13c-0.14-0.52-0.1-1.04,0.07-1.55c1.46-1.4,3.25-2.27,5.09-3.02c0.31-0.12,1.04-0.58,0.98,0.42
		c0,0.66,0.03,1.32-0.4,1.89c-1.31,0.18-2.33,0.98-3.45,1.57C43,33.82,42.33,34.43,41.41,34.13z"/>
	<path class="st21" d="M41.41,34.13c1.31-0.72,2.6-1.48,3.93-2.15c0.55-0.28,1.16-0.93,1.81-0.1c0,0.67,0.05,1.35-0.39,1.93
		c-0.08-0.37-0.16-0.89-0.67-0.63c-1.38,0.69-2.91,1.16-3.93,2.44C41.62,35.27,41.36,34.78,41.41,34.13z"/>
	<path class="st22" d="M47.55,29.98c-0.96-0.41-1.79,0.19-2.37,0.66c-1.12,0.92-2.44,1.36-3.7,1.93c0.11-0.5,0.23-1.01,0.34-1.51
		c2.04-1.02,4.08-2.04,6.12-3.06C47.92,28.69,47.97,29.39,47.55,29.98z"/>
	<path class="st23" d="M22.62,24.92c2-1.01,4-2.02,6-3.03c-0.11,0.51-0.23,1.02-0.34,1.52c-1.5,0.8-2.99,1.59-4.49,2.4
		C22.74,26.37,22.58,25.79,22.62,24.92z"/>
	<path class="st24" d="M36,19.18c-2.26,0.58-3.99,2.22-6.11,3.06c-0.03-0.54-0.06-1.09,0.33-1.54c1.21-1.42,2.91-2.08,4.51-2.87
		c0.51-0.25,1.09-0.26,1.56,0.2C36.19,18.42,36.09,18.8,36,19.18z"/>
	<path class="st18" d="M36.29,18.03c-2.42-0.01-3.94,2.04-6.08,2.68c0.03-0.67-0.04-1.36,0.4-1.95c1.4-0.81,2.93-1.39,4.3-2.27
		c0.53-0.34,1.09-0.62,1.76-0.35C36.54,16.77,36.42,17.4,36.29,18.03z"/>
	<path class="st24" d="M48.28,26.47c-1.94,0.41-3.32,1.91-5.11,2.62c-0.34,0.14-0.67,0.29-1.01,0.44c-0.04-0.55-0.06-1.09,0.34-1.54
		c1.92-1.02,3.84-2.04,5.76-3.06C48.28,25.45,48.28,25.96,48.28,26.47z"/>
	<path class="st25" d="M15.64,24.79c0.84-2.07,1.91-2.4,4.24-1.31c-0.59,1.78-2.22,2.26-3.72,2.63
		C15.16,26.36,15.56,25.35,15.64,24.79z"/>
	<path class="st26" d="M36.67,16.13c-1.66,0.86-3.32,1.71-4.96,2.59c-0.39,0.21-0.7,0.61-1.09,0.04c0.01-0.65-0.07-1.33,0.39-1.89
		c0,0,0.06,0.04,0.06,0.04c0.87,0.66,1.33-0.3,1.98-0.51c1.23-0.4,2.17-1.84,3.73-1.05C36.74,15.61,36.71,15.87,36.67,16.13z"/>
	<path class="st27" d="M15.64,24.79c0.05,0.62,0,1.42,1,0.81c1.1-0.68,2.35-1.13,3.25-2.12c0.63,0.26,0.56,0.93,0.84,1.4
		c-1.28,1.37-2.82,2.19-4.7,2.37C15.37,26.52,15.07,25.72,15.64,24.79z"/>
	<path class="st28" d="M36.78,15.35c-1.68,0.14-2.99,1.14-4.39,1.91c-0.58,0.32-1.14,0.76-1.32-0.34c2.02-1.03,4.03-2.07,6.05-3.1
		C37.18,14.36,37.06,14.87,36.78,15.35z"/>
	<path class="st29" d="M37.93,9.6c-2.23,0.63-3.83,2.51-6.09,3.06c-0.04-0.41-0.05-0.82,0.26-1.16c1.54-0.65,3.19-1.07,4.45-2.24
		c0.41-0.38,0.88-0.44,1.39-0.43C38.22,9.09,38.08,9.34,37.93,9.6z"/>
	<path class="st30" d="M29.15,16.41c-1.24,1.54-3.23,1.88-4.76,2.96c-0.45,0.32-0.6-0.22-0.67-0.6c-0.04-0.13-0.02-0.24,0.05-0.35
		c1.8-0.57,3.4-1.51,4.92-2.6C29.08,15.84,29.12,16.12,29.15,16.41z"/>
	<path class="st31" d="M16.02,27.26c1.57-0.79,3.13-1.58,4.7-2.37c0,0-0.02,0.01-0.02,0.01c0.05,1.86-1.03,2.81-3.59,3.16
		C16.58,28.02,16.23,27.74,16.02,27.26z"/>
	<path class="st32" d="M17.12,28.05c1.18-1.07,3.4-0.95,3.59-3.16c0.7,1.16,0.06,2.07-0.7,2.78C19.2,28.41,18.18,28.76,17.12,28.05z
		"/>
	<path class="st33" d="M52.89,28.32c0.54-0.49,0.73-1.57,1.84-1.1C54.4,28.07,53.69,28.26,52.89,28.32z"/>
	<path class="st34" d="M31.78,13.02c0.02,0.55-0.02,1.14,0.78,1.18c-0.3,0.44-0.78,0.59-1.26,0.74
		C31.48,14.3,31.3,13.58,31.78,13.02z"/>
	<path class="st35" d="M122.19,26.69c-0.51,0-1.02,0.04-1.53-0.01c-0.55-0.05-1.36,0.31-1.57-0.27c-0.25-0.69,0.38-1.31,0.93-1.72
		c0.95-0.71,2-1.09,3.21-0.69c1.16,0.38,2.39,1.09,2.23,2.26c-0.13,0.97-1.52,0.24-2.33,0.43
		C122.84,26.75,122.51,26.69,122.19,26.69z"/>
	<path class="st36" d="M104.99,26.69c-0.51,0-1.03,0.06-1.53-0.01c-0.59-0.08-1.48,0.4-1.7-0.32c-0.2-0.66,0.48-1.26,1.03-1.71
		c1.52-1.23,3.81-1,4.95,0.52c0.26,0.34,0.58,0.84,0.51,1.18c-0.11,0.52-0.74,0.33-1.16,0.35
		C106.39,26.71,105.69,26.69,104.99,26.69z"/>
	<path class="st37" d="M32.97,42.53c0.04-1.1,0.95-1.38,1.71-1.79c1.04-0.57,2.11-1.11,3.14-1.7c0.58-0.33,0.8-0.16,0.84,0.45
		C36.76,40.5,34.87,41.52,32.97,42.53z"/>
</g>
</svg>
