<?xml version="1.0" encoding="utf-8"?>
<!-- Generator: Adobe Illustrator 28.3.0, SVG Export Plug-In . SVG Version: 6.00 Build 0)  -->
<svg version="1.1" id="Layer_1" xmlns="http://www.w3.org/2000/svg" xmlns:xlink="http://www.w3.org/1999/xlink" x="0px" y="0px"
	 viewBox="0 0 1912 200" style="enable-background:new 0 0 1912 200;" xml:space="preserve">
<style type="text/css">
	.st0{fill:#FFFFFF;}
</style>
<path d="M1760.1,200H1912v-37h-107.8v-49h96.9V79.8h-96.9V37h105.6V0h-149.6V200z M1614.5,34.2h34.2c20.5,0,38.7,4.5,38.7,30
	s-18.2,30-38.7,30h-34.2V34.2L1614.5,34.2z M1570.5,200h44v-71.7h46.2c49.9,0,69.2-31.7,69.2-64.1c0-32.5-19.3-64.2-69.2-64.2h-90.2
	V200z M1432.7,200h44v-76.8L1550.9,0h-49l-46.5,79l-46.8-79H1359l73.7,122.1L1432.7,200L1432.7,200z M1170.5,200h44v-86.3h80.9V200
	h44V0h-44v76.8h-80.9V0h-44L1170.5,200L1170.5,200z M1006.6,200h44v-43.1h-44L1006.6,200L1006.6,200z M1025.4,0h-45.3L935,140.6
	h-0.6L889.9,0h-45.3l65,200h49.6L1025.4,0L1025.4,0z M639.7,34.2h34.2c20.5,0,38.7,4.5,38.7,30s-18.3,30-38.7,30h-34.2V34.2
	L639.7,34.2z M595.8,200h44v-71.7H686c49.8,0,69.2-31.7,69.2-64.1C755.1,31.7,735.8,0,686,0h-90.2V200z M510.4,200h44V0h-44V200z
	 M300,200h44v-86.3h81V200h44V0h-44v76.8h-81V0h-44L300,200z"/>
<g>
	<path d="M0,0h200v200H0V0z"/>
	<path class="st0" d="M27.6,27.6h7.1V40h13.2V27.6H55v32.5h-7.1v-14H34.7v14h-7.1V27.6z M145,27.6h7.1V40h13.1V27.6h7.1v32.5h-7.1
		v-14h-13.1v14H145V27.6z M27.6,140h7.1v12.5h13.2V140H55v32.5h-7.1v-14H34.7v14h-7.1V140z M145,140h7.1v12.5h13.1V140h7.1v32.5
		h-7.1v-14h-13.1v14H145V140z M103.9,116.2h-8.1L85.3,83.8h7.4l7.2,22.8h0.1l7.3-22.8h7.4L103.9,116.2z"/>
</g>
</svg>
