<svg xmlns="http://www.w3.org/2000/svg" width="200" height="200" viewBox="0 0 200 200">
    <g fill="none" fill-rule="nonzero">
        <path fill="#FFF" d="M0 0h199.975v199.975H0z"/>
        <path fill="#000" d="M27.577 27.57h7.146v12.465h13.15V27.57h7.143v32.486h-7.143V46.04h-13.15v14.017h-7.146zM144.966 27.57h7.147v12.465h13.146V27.57h7.147v32.486h-7.147V46.042h-13.146v14.014h-7.147zM27.577 139.958h7.146v12.469h13.15v-12.47h7.143v32.491h-7.143V158.43h-13.15v14.018h-7.146zM144.966 139.958h7.147v12.469h13.146v-12.47h7.147v32.491h-7.147v-14.014h-13.146v14.014h-7.147zM103.901 116.233h-8.053l-10.557-32.49h7.372l7.235 22.843h.088l7.326-22.843h7.369z"/>
    </g>
</svg>
