<svg xmlns="http://www.w3.org/2000/svg" width="1612" height="200" viewBox="0 0 1612 200">
    <path fill="#000" fill-rule="nonzero" d="M1460.176 200h151.814v-36.977h-107.834v-49.018h96.902V79.824h-96.902V37.003h105.592V0h-149.572v200zM1314.534 34.181h34.156c20.454 0 38.665 4.484 38.665 29.975s-18.237 29.95-38.665 29.95h-34.156V34.18zM1270.554 200h43.98v-71.713h46.196c49.875 0 69.194-31.662 69.194-64.13 0-32.47-19.32-64.157-69.194-64.157h-90.176v200zm-137.808 0h43.98v-76.75L1250.956 0h-49.017l-46.5 78.992L1108.666 0h-49.597l73.678 122.116V200zm-262.167 0h43.98v-86.272h80.932V200h43.98V0h-43.98v76.75H914.56V0h-43.98v200zm-163.93 0h43.956v-43.149H706.65V200zM725.467 0h-45.34l-45.088 140.605h-.554L589.899 0h-45.34l64.988 200h49.571L725.466 0zM339.773 34.181h34.156c20.454 0 38.665 4.484 38.665 29.975s-18.287 29.95-38.665 29.95h-34.156V34.18zM295.793 200h43.98v-71.713h46.222c49.849 0 69.169-31.662 69.169-64.13 0-32.47-19.32-64.157-69.169-64.157h-90.202v200zm-85.365 0h43.955V0h-43.955v200zM.05 200h43.98v-86.272h80.957V200h43.98V0h-44.03v76.75H43.98V0H0l.05 200z"/>
</svg>
