<svg xmlns="http://www.w3.org/2000/svg" viewBox="0 0 50 12.36"><path d="m16.26 11.06-.18-.74v-.03h-.06v.03l-.18.74h.41Zm.54.76v.03H16.48s-.01-.02-.02-.03l-.11-.47h-.58l-.11.47s0 .02-.02.03H15.32v-.03l.41-1.56c.06-.19.26-.3.45-.24.11.04.2.12.24.24l.41 1.56m1.94-.46c0 .14-.05.27-.15.37-.14.11-.32.17-.5.15-.15 0-.3-.02-.44-.05-.03 0-.05-.02-.05-.05v-.22h.35l.13.01c.08 0 .16-.01.22-.06.05-.04.07-.11.06-.17 0-.04-.01-.09-.04-.12-.05-.05-.11-.09-.17-.13l-.33-.19a.623.623 0 0 1-.18-.14.377.377 0 0 1-.09-.15.542.542 0 0 1 .03-.42.39.39 0 0 1 .2-.16c.11-.04.24-.06.36-.06.08 0 .17 0 .27.01.07 0 .14.02.21.03.02 0 .04.02.04.04v.21h-.03c-.18-.02-.34-.02-.49-.02s-.26.06-.26.18c0 .04.01.08.04.11.05.04.1.08.16.11l.29.17c.11.05.2.13.27.23a.5.5 0 0 1 .07.29m.64.48v.04c0 .01-.02.02-.04.02h-.23s-.03 0-.04-.02v-1.34s.02-.05.05-.05h.23s.05.02.05.05l-.03 1.3Zm0-1.59s0 .03-.02.04c0 0-.02.01-.03.01H19.05c-.01 0-.02-.02-.02-.04v-.22s0-.03.02-.04c0 0 .02-.01.04-.01h.24s.04.02.05.05v.21Zm1.15.82c0-.06 0-.11-.03-.16a.244.244 0 0 0-.23-.14c-.07 0-.14.03-.19.08-.05.06-.08.15-.07.23h.53Zm.33.17s-.02.06-.05.06H20c0 .08.02.16.07.22.06.07.14.1.23.09.15 0 .29 0 .46-.02.03 0 .05 0 .05.04v.16s-.01.06-.04.06c-.08.02-.15.03-.23.03h-.26c-.07 0-.14 0-.2-.03a.75.75 0 0 1-.2-.1.618.618 0 0 1-.21-.49v-.18c0-.17.05-.34.16-.46.12-.12.28-.18.44-.17.11 0 .22.03.32.08.09.05.16.13.2.22.05.1.07.21.07.33v.15Zm2.07.6s0 .03-.01.04c0 .01-.02.02-.04.02h-.22s-.03 0-.04-.02v-.89s0-.1-.02-.15c0-.03-.03-.06-.06-.07-.03-.02-.07-.02-.11-.02-.08 0-.16.02-.23.06v1.03s0 .03-.01.04c0 .01-.02.02-.04.02h-.23s-.03 0-.04-.02v-1.04c0-.03-.02-.06-.05-.07-.03-.02-.07-.02-.11-.02-.08 0-.16.04-.23.08v1.05h-.31s-.03 0-.04-.02c-.01 0-.02-.02-.02-.04V10.5s.02-.05.05-.05h.22s.05.02.05.04v.06c.05-.03.11-.06.17-.09.06-.02.12-.03.18-.03.11 0 .22.03.29.11l.13-.06s.08-.03.13-.04c.05-.01.1-.02.15-.01.12-.01.25.04.32.14.07.12.1.25.09.39v.84Zm1.14-.77c0-.06 0-.11-.03-.16a.313.313 0 0 0-.09-.11.287.287 0 0 0-.33.04c-.05.06-.08.15-.07.23h.53Zm.33.17s0 .06-.05.06h-.82c0 .08.02.16.07.22.06.06.14.1.22.09.15 0 .29 0 .46-.02.03 0 .05 0 .05.04v.16s-.01.06-.04.06c-.08.01-.15.03-.23.03h-.26c-.07 0-.14 0-.2-.03a.75.75 0 0 1-.2-.1.618.618 0 0 1-.21-.49v-.18c-.01-.17.05-.34.16-.46.12-.12.27-.18.44-.17.11 0 .22.03.32.08.09.05.16.13.2.22.06.11.08.22.08.34v.14Zm1.44.6s0 .03-.01.04h-.27s-.03 0-.04-.02v-1c0-.03-.03-.07-.06-.08a.329.329 0 0 0-.17-.04c-.1 0-.2.04-.29.09v1.04h-.27s-.03 0-.04-.02V10.5s.02-.05.05-.05h.22s.05.02.05.04v.06a.761.761 0 0 1 .41-.12c.13-.02.26.04.34.15.07.13.09.27.08.42v.81Zm1.26-.32c0 .07-.02.14-.06.2-.04.06-.1.11-.16.14-.08.04-.17.05-.27.05h-.21c-.08 0-.16-.02-.23-.04-.03 0-.05-.03-.05-.06v-.18h.03c.14.02.28.03.42.03.05 0 .1 0 .14-.03.03-.02.04-.05.04-.09 0-.02 0-.05-.02-.06-.03-.02-.05-.05-.08-.06l-.34-.21a.463.463 0 0 1-.13-.18.36.36 0 0 1-.06-.2c0-.25.16-.37.47-.37h.24c.07 0 .14.02.2.04.03 0 .05.03.05.06v.15s0 .05-.04.05c-.14-.02-.27-.03-.41-.03-.05 0-.09 0-.13.02a.09.09 0 0 0-.04.08c0 .02 0 .03.02.04.03.02.05.04.08.06l.33.2c.06.03.11.07.15.12.03.04.06.08.07.13v.13m1.6.07v-.29h-.16c-.06 0-.11 0-.17.02-.04.01-.07.04-.08.07-.02.04-.03.08-.02.12 0 .05 0 .09.04.12.04.02.09.04.14.03.09 0 .18-.02.25-.07m.33.27v.04h-.25s-.05-.02-.05-.05v-.04c-.11.07-.23.11-.35.11-.1 0-.21-.03-.29-.09a.355.355 0 0 1-.12-.32c0-.08.02-.17.06-.24.05-.07.12-.12.2-.14.11-.04.23-.05.35-.05h.16v-.11c0-.06-.01-.12-.05-.16a.29.29 0 0 0-.18-.05c-.14 0-.27 0-.41.02-.03 0-.05 0-.05-.04v-.16s.02-.04.05-.05c.13-.02.27-.03.41-.03.1 0 .2.02.29.05.08.03.14.09.19.16.04.08.07.17.06.26v.9Zm1.47-.01v.04h-.27s-.03 0-.04-.02V11c0-.06 0-.12-.01-.17 0-.03-.03-.06-.06-.08a.366.366 0 0 0-.18-.04c-.1 0-.2.04-.29.09v1s-.02.05-.05.05h-.23s-.03 0-.04-.02V10.5s.02-.05.05-.05h.26v.09a.65.65 0 0 1 .4-.12c.13-.02.26.04.34.15.07.13.1.27.09.41v.83Zm1.11-.22v-.88c-.08-.01-.16-.02-.24-.02-.08 0-.16.03-.21.09-.04.08-.06.17-.06.26v.19c0 .09.01.18.06.26.05.06.13.1.21.09.08 0 .16 0 .24-.02m.33.18v.04c-.02.01-.04.02-.06.02-.08.02-.17.04-.25.05h-.25a.587.587 0 0 1-.44-.16.64.64 0 0 1-.15-.46v-.19c0-.12.02-.23.07-.34a.41.41 0 0 1 .2-.21c.1-.05.22-.08.33-.08.08 0 .16 0 .24.02v-.41s.02-.05.05-.05h.23s.05.02.05.05v1.72Zm1.81-.68-.18-.74s0-.02-.01-.03h-.06v.03l-.18.74h.43Zm.54.76s-.02.04-.04.04H33.97s-.01-.02-.02-.03l-.11-.47h-.58l-.11.47s0 .02-.02.03H32.81v-.03l.41-1.56c.06-.19.26-.3.45-.24.11.04.2.12.24.24l.41 1.56m1.26-.03s-.02.05-.04.05h-.19l-.12.03h-.16c-.1 0-.2-.01-.29-.04a.426.426 0 0 1-.2-.15c-.05-.1-.08-.2-.07-.31v-.88c0-.11.02-.22.07-.32a.37.37 0 0 1 .2-.15c.09-.03.19-.04.29-.04h.29c.06 0 .12 0 .18.03.01 0 .03 0 .04.01v.23c0 .01-.02.02-.04.02h-.53c-.05 0-.11.01-.15.05-.03.05-.05.11-.04.17v.27H35.53v.29H34.82v.32c0 .06 0 .12.04.17.04.04.1.05.15.05h.49s.05.02.05.05v.17Zm1.46-.44c0 .14-.05.27-.15.37-.14.11-.31.16-.49.15-.15 0-.3-.02-.44-.05-.03 0-.05-.02-.05-.05v-.22h.48c.08 0 .16-.01.22-.06.05-.04.07-.11.06-.17 0-.04-.01-.09-.04-.12-.05-.05-.11-.09-.17-.13l-.33-.19c-.06-.04-.12-.09-.18-.14a.377.377 0 0 1-.09-.15.542.542 0 0 1 .03-.42c.05-.07.12-.13.2-.16.12-.04.24-.06.36-.06h.27c.07 0 .14.01.21.03.03 0 .05.02.04.05v.22h-.03c-.18-.02-.34-.03-.49-.03s-.26.06-.26.18c0 .04.02.08.04.11.05.04.1.08.16.11l.29.17c.11.05.2.13.27.23.05.09.08.19.08.29m2.03.47s-.02.04-.06.06l-.15.03h-.24c-.08 0-.16-.01-.24-.03-.08-.03-.16-.07-.23-.12a.48.48 0 0 1-.17-.23.929.929 0 0 1-.06-.37v-.35c0-.13.02-.25.06-.37a.66.66 0 0 1 .17-.24c.07-.05.14-.09.23-.12.08-.02.16-.04.25-.04h.17c.06 0 .11 0 .15.02h.07c.04 0 .06.03.06.06v.17s-.02.05-.05.05c-.15 0-.29-.02-.39-.02-.1 0-.2.03-.27.11-.07.1-.11.23-.1.36v.39c0 .31.12.46.36.46.09 0 .22 0 .39-.02.03 0 .05.02.05.05v.17Zm1.09-.53v-.2c0-.09-.02-.17-.07-.25a.266.266 0 0 0-.37-.03l-.03.03a.43.43 0 0 0-.07.25v.2c0 .09.02.17.07.25.05.06.13.09.21.08.08 0 .15-.03.2-.09a.43.43 0 0 0 .07-.25m.33 0c0 .11-.02.22-.07.32-.04.09-.12.17-.2.22-.2.1-.44.1-.65 0a.473.473 0 0 1-.2-.22.711.711 0 0 1-.07-.32v-.19c0-.11.02-.22.07-.32.04-.09.11-.17.2-.22.2-.11.45-.11.65 0 .09.05.16.13.2.22.04.1.07.21.07.32v.19Zm2.06.56s0 .03-.01.04c0 .01-.02.02-.04.02h-.23s-.03 0-.04-.02v-.89s0-.1-.02-.15c0-.03-.03-.06-.06-.07-.03-.02-.07-.02-.11-.02-.08 0-.16.02-.23.06v1.03s0 .03-.01.04c0 .01-.02.02-.04.02h-.23s-.03 0-.04-.02v-.89c0-.05 0-.1-.01-.15 0-.03-.02-.06-.05-.07-.03-.02-.07-.02-.11-.02-.08 0-.16.04-.23.08v1.01s0 .03-.01.04h-.27s-.03 0-.04-.02c0 0-.01-.02-.01-.04V10.5s.02-.05.05-.05h.26v.09c.05-.04.11-.06.17-.09.06-.02.12-.03.18-.03.11 0 .22.03.29.11.04-.02.09-.04.13-.06.04-.02.08-.03.13-.04.05-.01.1-.02.15-.01.13-.01.25.04.33.14.06.12.09.25.09.39v.86Zm1.15-.55v-.19c0-.09-.01-.18-.06-.26a.22.22 0 0 0-.21-.09H43.19v.88c.08.01.16.02.24.02.08 0 .16-.03.21-.09.04-.08.06-.17.06-.26m.33-.02c0 .12-.02.23-.07.34a.41.41 0 0 1-.2.21c-.1.05-.22.08-.33.07h-.24v.44s-.02.05-.05.05h-.23s-.05-.02-.05-.05v-1.78c.02-.01.04-.02.06-.02.16-.04.33-.07.5-.07.12 0 .23.02.33.08.09.05.16.12.2.22.04.11.07.22.06.33v.18Zm.99.3v-.29h-.16c-.06 0-.11 0-.17.02-.04.01-.07.04-.08.07-.02.04-.02.08-.02.12 0 .05.01.09.04.12.04.03.09.04.14.03.09 0 .18-.02.25-.07m.33.27s-.02.05-.05.05h-.25s-.02-.02-.01-.04v-.04c-.11.07-.23.11-.35.11-.1 0-.21-.03-.29-.09a.355.355 0 0 1-.12-.32c0-.08.02-.17.06-.24.05-.07.12-.12.2-.14.11-.04.23-.05.35-.05h.16v-.11c0-.06-.01-.12-.05-.16a.254.254 0 0 0-.17-.04c-.14 0-.27 0-.41.02-.03 0-.05 0-.05-.04v-.16s.02-.04.05-.05c.14-.03.28-.04.41-.04.1 0 .2.02.29.05.08.03.14.09.18.16.05.08.07.17.06.26l-.02.87Zm1.48-.01s0 .03-.01.04h-.27s-.03 0-.04-.02V11c0-.06 0-.12-.01-.17 0-.03-.03-.06-.06-.08-.04-.02-.09-.03-.14-.02-.1 0-.2.04-.29.09v1s-.02.05-.05.05h-.23s-.03 0-.04-.02V10.5s.02-.05.05-.05h.22s.05.01.05.04v.05a.761.761 0 0 1 .41-.12c.13-.01.26.04.34.15.07.13.1.27.09.41l-.02.82Zm1.43-1.31-.41 1.46c-.02.08-.05.16-.1.23a.29.29 0 0 1-.15.12c-.08.03-.17.04-.26.04h-.14c-.04 0-.08-.01-.12-.02-.04 0-.06-.02-.06-.04v-.16s0-.02.02-.03c0 0 .02-.01.04-.01h.37c.03 0 .05-.03.06-.05.02-.03.04-.06.04-.1l.02-.08h-.04s-.09-.01-.13-.04a.259.259 0 0 1-.09-.17l-.33-1.14v-.02s.02-.04.05-.04h.28s.01.02.02.03l.25 1.01s.02.06.04.06h.02l.27-1.07s.03-.05.05-.04h.28v.03" style="fill:#706f6e;stroke-width:0"/><path d="M26.93.19c.01-.11.1-.19.2-.19h.05q.3 0 .4.11l4.44 5.31V.31c0-.11.1-.2.22-.2h.68c.11 0 .2.09.2.2v7.18c0 .11-.09.19-.2.19h-.24s-.06-.02-.08-.04l-4.56-5.47v5.19c0 .11-.08.2-.19.2h-.71a.2.2 0 0 1-.2-.2V.19ZM6.71.31c0-.11.09-.2.2-.2h.7c.11 0 .2.09.2.2v6.26h2.89c.11 0 .2.09.2.2v.58a.2.2 0 0 1-.2.2H6.9a.2.2 0 0 1-.2-.2S6.7.3 6.7.3Zm5.69 0c0-.11.09-.2.2-.2h.71c.11 0 .2.09.2.2v4.4c0 1.06.68 1.9 1.75 1.9s1.79-.82 1.79-1.88V.31c0-.11.09-.2.2-.2h.73c.11 0 .2.09.2.2v4.47a2.889 2.889 0 0 1-2.99 2.8 2.89 2.89 0 0 1-2.8-2.8V.31ZM38.96 0c.95-.01 1.88.34 2.58.99.09.07.11.19.04.28l-.01.01-.02.02-.48.47c-.07.1-.17.1-.27 0-.51-.44-1.16-.69-1.83-.7-1.5.02-2.7 1.26-2.68 2.76a2.723 2.723 0 0 0 2.68 2.76c.67 0 1.32-.26 1.83-.7.07-.06.18-.06.25 0l.49.48c.08.08.08.2 0 .29-.69.67-1.62 1.05-2.59 1.03a3.837 3.837 0 0 1 0-7.67M4.47.11H.21a.2.2 0 0 0-.2.2v.58c0 .11.09.2.2.2h4.26a.2.2 0 0 0 .2-.2V.31a.2.2 0 0 0-.2-.2m0 0H.21a.2.2 0 0 0-.2.2v.58c0 .11.09.2.2.2h4.26a.2.2 0 0 0 .2-.2V.31a.2.2 0 0 0-.2-.2M1.08 6.09v1.29a.2.2 0 0 1-.2.2H.2a.2.2 0 0 1-.2-.2V5c0-.97.78-1.75 1.75-1.75h2.71c.11 0 .2.09.2.2v.58a.2.2 0 0 1-.2.2H1.92c-.45 0-.82.36-.86.8v1.05ZM24.67.12h-4.26a.2.2 0 0 0-.2.2v.6c0 .11.09.2.2.2h4.26a.2.2 0 0 0 .2-.2v-.6a.2.2 0 0 0-.2-.2m0 4.14a.2.2 0 0 0 .2-.2v-.58a.2.2 0 0 0-.2-.2H20.4a.2.2 0 0 0-.2.2v2.38c0 .96.79 1.74 1.75 1.74h2.71a.2.2 0 0 0 .2-.2v-.58a.2.2 0 0 0-.2-.2h-2.54c-.45 0-.82-.36-.86-.8V4.29h3.4ZM48.05.12h-4.26a.2.2 0 0 0-.2.2v.6c0 .11.09.2.2.2h4.26a.2.2 0 0 0 .2-.2v-.6a.2.2 0 0 0-.2-.2m0 4.14a.2.2 0 0 0 .2-.2v-.58a.2.2 0 0 0-.2-.2h-4.26a.2.2 0 0 0-.2.2v2.38c0 .96.79 1.74 1.75 1.74h2.71a.2.2 0 0 0 .2-.2v-.58a.2.2 0 0 0-.2-.2h-2.54c-.45 0-.82-.36-.86-.8V4.29h3.39Zm-27.59-.94h.22m23.18 0h.22m5.41-3.2c-.28 0-.5.22-.5.5s.22.5.5.5.5-.22.5-.5-.22-.5-.5-.5Zm0 .92c-.23 0-.42-.19-.42-.43s.19-.42.43-.42c.23 0 .42.19.42.42 0 .23-.19.42-.42.42Zm.18-.17h-.06l-.13-.2h-.08v.19s0 .02-.02.02h-.04s-.02 0-.02-.02V.37s0-.03.03-.03h.12c.13 0 .2.04.2.16 0 .07-.04.13-.11.14l.12.2s0 .02-.02.02v.02Zm-.08-.38c0-.06-.04-.08-.12-.08h-.07v.18h.07c.09 0 .12-.02.12-.08Z" style="stroke-width:0;fill:#1652a1"/></svg>