<svg xmlns="http://www.w3.org/2000/svg" id="Layer_2" viewBox="0 0 2047.81 1175.24"><defs><linearGradient id="linear-gradient" x1="229.7" x2="682.94" y1="573.9" y2="573.9" gradientTransform="matrix(1 0 0 -1 0 1161.51)" gradientUnits="userSpaceOnUse"><stop offset="0" stop-color="#88c86e"/><stop offset="1" stop-color="#00a5a6"/></linearGradient><style>.cls-2{stroke-width:0;fill:#054166}</style></defs><path d="M479.01 383.65c37.41 0 67.73 30.43 67.73 67.98s-30.32 67.98-67.73 67.98h-98.52v136.15l98.52-.19c37.41 0 67.73 30.43 67.73 67.98s-30.32 67.98-67.73 67.98H229.7v135.96h249.31c112.59 0 203.86-91.3 203.86-203.93 0-52.22-19.63-99.85-51.9-135.93 32.31-36.08 51.97-83.74 51.97-135.99 0-112.63-91.3-203.93-203.93-203.93H229.7v135.96h249.31v-.02Z" style="stroke-width:0;fill:url(#linear-gradient)"/><path d="M696.51 655.57h270.85V519.61H696.58a227.433 227.433 0 0 1-34.66 68.02c15.35 20.64 27 43.62 34.59 67.94ZM581.03 927.48h386.33V791.52H696.6c-10.82 34.8-29.97 66.69-56.47 93.19-17.57 17.58-37.51 31.93-59.1 42.76ZM967.36 247.7h-386.3c21.59 10.83 41.54 25.18 59.12 42.76 26.51 26.51 45.67 58.39 56.49 93.2h270.7V247.7h-.01Z" class="cls-2"/><path d="M597.97 1175.24c-77.93 0-153.29-14.78-223.98-43.92-68.77-28.35-130.35-69.09-183.02-121.09C82.21 902.86 22.31 757.56 22.31 601.09h22c0 150.54 57.57 290.28 162.11 393.48 50.63 49.98 109.83 89.14 175.95 116.4 68.02 28.04 140.56 42.26 215.6 42.26s147.58-14.22 215.6-42.26c66.12-27.26 125.32-66.42 175.95-116.4 104.54-103.2 162.11-242.94 162.11-393.48h22c0 156.47-59.9 301.77-168.66 409.14-52.67 52-114.25 92.74-183.02 121.09-70.69 29.14-146.05 43.92-223.98 43.92ZM54.66 543.33l-49.61-5.91c-3.65-.43-5.42-2.69-4.99-6.34l3.8-31.92c.3-2.56 2.67-4.51 5.32-4.19 2.56.3 4.4 2.75 4.09 5.31l-3.2 26.89 15.8 1.88 3.12-26.25c.3-2.56 2.67-4.51 5.22-4.2 2.65.32 4.49 2.76 4.19 5.32l-3.12 26.25 16.9 2.01 3.2-26.89c.3-2.56 2.67-4.51 5.22-4.2 2.65.32 4.49 2.76 4.19 5.32l-3.8 31.92c-.44 3.66-2.68 5.43-6.34 5h.01ZM74.06 452.33l-48.4 19.83 38.76 9.21c2.86.68 4.73 3.58 4.05 6.45-.7 2.96-3.67 4.71-6.54 4.03l-48.6-11.55a7.083 7.083 0 0 1-5.25-8.54c.53-2.24 2.1-4.04 4.18-4.87l46.86-19.34-37.59-8.93c-2.86-.68-4.73-3.58-4.05-6.45.7-2.96 3.67-4.71 6.54-4.03l49.05 11.66c3.49.83 5.76 4.4 4.91 7.98-.51 2.15-1.94 3.8-3.92 4.56ZM77.24 428.48l-46.96-17.04c-3.46-1.26-4.67-3.85-3.41-7.31l10.96-30.22c.88-2.42 3.62-3.78 6.13-2.87 2.42.88 3.66 3.68 2.78 6.1l-9.24 25.45 14.96 5.43 9.02-24.85c.88-2.42 3.62-3.78 6.04-2.9 2.51.91 3.74 3.71 2.86 6.13l-9.02 24.85 16 5.81 9.24-25.45c.88-2.42 3.62-3.78 6.04-2.9 2.51.91 3.74 3.71 2.86 6.13l-10.96 30.22c-1.26 3.46-3.85 4.68-7.31 3.42ZM117.52 337.68c1.9.93 3.49 3.96 2.16 6.69-.77 1.57-2.36 2.74-4.05 3.05l-25.36 3.72-5.49 11.26 16.21 7.91c2.65 1.29 3.83 4.53 2.54 7.18-1.33 2.73-4.62 3.79-7.26 2.5l-45.64-22.27c-3.31-1.61-4.24-4.32-2.62-7.63l9.33-19.12c5.33-10.93 15.92-14.58 26.09-9.61 9.01 4.4 11.6 12.32 10.3 19.17l20.3-3.42c.99-.13 1.93-.18 3.5.58h-.01Zm-41.25 20.56L82.73 345c2.67-5.46 1.13-11.13-4.16-13.71s-10.7-.3-13.37 5.16l-6.46 13.24 17.53 8.55ZM132.3 271.08l11.07 7.1c2.4 1.54 3.86 3.35 4.29 6.26 1.12 7.62-.19 15.63-5.12 23.31-9.6 14.96-28.02 20.32-44.2 9.94-16.18-10.38-18.9-29.31-9.3-44.27 4.97-7.75 11.39-11.62 18.26-13.12 1.27-.28 2.65-.05 3.82.7a4.945 4.945 0 0 1 1.49 6.87 5.124 5.124 0 0 1-3.18 2.23c-4.83 1.06-9.35 3.85-12.34 8.5-6.57 10.23-3.62 22.85 7.22 29.8 10.84 6.96 23.61 4.43 30.18-5.8 3.38-5.27 3.89-11.51 3.21-15.23l-8.05-5.17-7.61 11.86c-1.39 2.17-4.37 2.89-6.61 1.45-2.17-1.39-2.75-4.39-1.36-6.56l10.35-16.12c1.99-3.1 4.79-3.71 7.88-1.73v-.02ZM148.11 208.78l10.19 32.65 15.98 13.02c2.28 1.86 2.7 5.28.83 7.57-1.92 2.36-5.36 2.64-7.64.79l-15.98-13.02-34.02-3.24c-.92-.04-1.95-.52-2.73-1.16a5.148 5.148 0 0 1-.74-7.25 5.153 5.153 0 0 1 4.59-1.85l28.92 3.24-9.15-27.52c-.49-1.59-.23-3.51.88-4.87a5.149 5.149 0 0 1 7.25-.75c.78.64 1.4 1.49 1.62 2.39ZM212.24 184.55c-1.47-1.77-1.15-4.42.55-5.83l32.26-26.75c1.7-1.41 4.36-1.23 5.83.54s1.15 4.42-.55 5.83l-32.26 26.75c-1.7 1.41-4.36 1.23-5.83-.54ZM304.13 139.95 279.31 96.6c-1.83-3.19-1.08-5.96 2.12-7.79l27.89-15.97c2.24-1.28 5.21-.54 6.53 1.77 1.28 2.24.41 5.17-1.82 6.45l-23.5 13.45 7.91 13.81 22.94-13.13c2.24-1.28 5.21-.54 6.49 1.69 1.33 2.32.46 5.25-1.78 6.53l-22.94 13.13 8.46 14.77 23.5-13.45c2.24-1.28 5.21-.54 6.49 1.69 1.33 2.32.46 5.25-1.78 6.53l-27.89 15.97c-3.2 1.83-5.96 1.08-7.79-2.11ZM398.44 93.98l-16.35-38.24.88 48.66c.05 1.28-.68 2.39-1.87 2.9s-2.49.26-3.39-.65l-34.5-34.28 16.35 38.24c1.16 2.71-.07 5.93-2.78 7.09-2.79 1.19-5.97-.15-7.13-2.85l-18.92-44.24c-1.92-4.48.13-9.76 4.71-11.72 3.47-1.48 7.34-.64 9.83 1.9l27.72 27.57-.7-39.12c-.12-3.55 1.94-6.93 5.42-8.42 4.57-1.96 9.81.21 11.72 4.69l18.92 44.24a5.445 5.445 0 0 1-2.86 7.13c-2.71 1.16-5.89-.18-7.05-2.89ZM420.13 86.58 404.16 37.5c-.91-2.8.6-5.9 3.49-6.84 2.8-.91 5.85.71 6.76 3.51l15.97 49.08c.91 2.8-.6 5.9-3.4 6.81-2.89.94-5.94-.68-6.85-3.48ZM438.34 75.33c-.69-2.77.98-5.56 3.66-6.23 1.16-.29 2.32-.2 3.28.22 4.87 2.01 10.5 2.87 16.75 1.31 8.58-2.15 10.92-7.19 9.94-11.12-1.34-5.35-8.09-5.37-15.79-5.44-10.34.03-22.49.03-25.64-12.55-2.46-9.82 4.31-19.57 18.25-23.06 6.97-1.74 13.04-1.37 19.77.84 1.54.47 2.81 1.76 3.24 3.46.67 2.68-1 5.47-3.69 6.14-1.07.27-2.14.16-2.99-.2-5-1.78-10.34-1.87-14.9-.73-7.06 1.77-10.25 5.69-9.13 10.16 1.16 4.64 7.62 4.64 15.12 4.66 10.45.04 22.92.15 26.16 13.09 2.48 9.91-2.37 20.13-18.45 24.15-8.84 2.21-16.35 1.44-22.63-1.26-1.38-.6-2.55-1.83-2.95-3.44ZM490.98 62.52c-.42-2.82 1.51-5.44 4.24-5.85 1.18-.18 2.33.02 3.25.54 4.65 2.46 10.17 3.87 16.55 2.91 8.74-1.31 11.56-6.11 10.96-10.11-.82-5.46-7.53-6.13-15.2-6.93-10.3-.97-22.39-2.13-24.32-14.95-1.5-10.01 6.17-19.07 20.38-21.2 7.1-1.07 13.12-.11 19.6 2.73 1.49.61 2.63 2.02 2.89 3.75.41 2.73-1.53 5.35-4.26 5.76-1.09.16-2.15-.05-2.96-.49-4.81-2.25-10.11-2.85-14.76-2.16-7.2 1.08-10.75 4.68-10.07 9.23.71 4.73 7.14 5.35 14.6 6.09 10.4 1.04 22.8 2.35 24.78 15.54 1.52 10.1-4.29 19.81-20.69 22.27-9.02 1.35-16.41-.14-22.4-3.43-1.32-.73-2.36-2.06-2.6-3.7h.01ZM547.87 59.78l-4.15-51.45c-.24-2.93 1.95-5.6 4.98-5.85 2.94-.24 5.52 2.05 5.76 4.98l4.15 51.45c.24 2.93-1.95 5.6-4.89 5.84-3.03.24-5.62-2.04-5.85-4.97ZM600.5 0c18.42.29 31.19 13.93 30.91 32.23-.29 18.31-13.48 31.53-31.9 31.24-18.42-.29-31.19-13.93-30.91-32.23.29-18.31 13.48-31.53 31.9-31.24Zm-.15 9.57c-12.43-.2-20.5 9.16-20.7 21.85-.2 12.6 7.57 22.3 20.01 22.49 12.34.19 20.5-9.25 20.7-21.85.2-12.7-7.67-22.3-20.01-22.49ZM680.69 65.86l-25.24-45.81-4.71 39.56c-.35 2.92-3.02 5.11-5.95 4.76-3.02-.36-5.1-3.11-4.75-6.03l5.91-49.61a7.101 7.101 0 0 1 7.88-6.2c2.29.27 4.26 1.62 5.32 3.6l24.58 44.34 4.57-38.37c.35-2.92 3.02-5.11 5.95-4.76 3.02.36 5.1 3.11 4.75 6.03l-5.96 50.06c-.42 3.56-3.71 6.23-7.37 5.79-2.2-.26-4-1.5-4.98-3.37ZM703.12 61.7c.63-2.78 3.39-4.51 6.08-3.9 1.17.27 2.16.87 2.83 1.68 3.43 3.99 8.06 7.31 14.34 8.75 8.62 1.97 12.99-1.47 13.9-5.41 1.23-5.38-4.78-8.45-11.62-12-9.23-4.66-20.07-10.15-17.18-22.8 2.25-9.87 12.71-15.5 26.71-12.3 7 1.6 12.25 4.69 17.25 9.7 1.16 1.11 1.71 2.84 1.32 4.55-.62 2.69-3.37 4.42-6.07 3.81-1.08-.25-1.98-.83-2.58-1.53-3.65-3.85-8.37-6.35-12.95-7.39-7.09-1.62-11.72.44-12.74 4.92-1.07 4.66 4.69 7.58 11.37 11 9.3 4.77 20.37 10.5 17.4 23.51-2.27 9.96-11.22 16.88-27.39 13.19-8.89-2.03-15.23-6.12-19.6-11.37-.96-1.16-1.44-2.78-1.07-4.4ZM807.91 74.95c.92-2.11 3.43-3.02 5.45-2.14l38.42 16.73c2.03.88 3.07 3.34 2.15 5.45s-3.43 3.02-5.45 2.14L810.06 80.4c-2.03-.88-3.07-3.34-2.15-5.45ZM889.15 136.81l27.47-41.73c2.02-3.07 4.83-3.65 7.91-1.63l26.85 17.67c2.15 1.42 2.84 4.4 1.37 6.63-1.42 2.15-4.43 2.7-6.58 1.29l-22.62-14.88-8.75 13.29 22.08 14.53c2.15 1.42 2.84 4.4 1.42 6.55-1.47 2.23-4.48 2.78-6.63 1.36l-22.08-14.53-9.36 14.22 22.62 14.88c2.15 1.42 2.84 4.4 1.42 6.55-1.47 2.23-4.48 2.78-6.63 1.36l-26.85-17.67c-3.08-2.02-3.66-4.83-1.63-7.9ZM931.95 166.68l31.79-39.6c2.3-2.87 5.15-3.18 8.02-.87l25.07 20.12c2.01 1.61 2.41 4.65.74 6.73-1.61 2.01-4.66 2.28-6.67.66l-21.12-16.95-9.96 12.41 20.61 16.54c2.01 1.61 2.41 4.65.8 6.66-1.67 2.08-4.72 2.35-6.73.73l-20.61-16.54-13.53 16.86c-1.84 2.3-5.26 2.73-7.56.89-2.37-1.9-2.68-5.34-.84-7.63ZM971.2 198.91l35.35-36.45c2.56-2.64 5.42-2.68 8.07-.12l23.08 22.38c1.85 1.8 1.96 4.85.11 6.77-1.79 1.85-4.85 1.83-6.7.03l-19.44-18.85-11.08 11.42 18.98 18.4c1.85 1.79 1.96 4.85.17 6.7-1.86 1.92-4.92 1.9-6.77.1L994 190.89l-15.05 15.52c-2.05 2.11-5.5 2.23-7.61.18-2.18-2.12-2.17-5.57-.12-7.68h-.02ZM1007.2 235.08l38.4-34.49c2.19-1.97 5.64-1.85 7.67.42 1.97 2.19 1.72 5.63-.47 7.6l-38.4 34.49c-2.19 1.97-5.64 1.85-7.61-.35-2.03-2.26-1.78-5.7.41-7.67ZM1041.59 234.21c14.98-11.46 33.77-8.09 44.51 5.95 5.99 7.83 7.13 15.53 5.86 22.65-.15 1.16-.9 2.31-1.92 3.09-2.19 1.68-5.42 1.25-7.1-.95-.95-1.24-1.28-2.73-.96-4.13.98-4.92-.01-10.31-3.48-14.85-7.11-9.29-19.97-10.81-30.2-2.99s-12.13 20.64-5.02 29.93c3.47 4.54 8.33 6.96 13.47 7.32 1.36.12 2.73.69 3.68 1.94 1.68 2.19 1.25 5.42-.94 7.1-1.02.78-2.33 1.2-3.49 1.04-7.2-.64-14.28-3.68-20.33-11.58-10.74-14.04-9.07-33.06 5.91-44.52ZM1058.89 301.28l43.37-27.99c2.47-1.6 5.86-.93 7.51 1.62 1.6 2.48.81 5.83-1.66 7.43l-43.37 27.99c-2.47 1.6-5.86.93-7.46-1.54-1.65-2.55-.86-5.91 1.61-7.51ZM1072.21 320.24l43.81-23.99c3.23-1.77 5.98-.96 7.75 2.27l15.44 28.19c1.24 2.26.44 5.22-1.9 6.5-2.26 1.24-5.18.31-6.42-1.95l-13.01-23.75-13.96 7.65 12.7 23.18c1.24 2.26.44 5.22-1.81 6.45-2.34 1.28-5.26.36-6.5-1.9l-12.7-23.18-14.93 8.18 13 23.75c1.24 2.26.45 5.22-1.81 6.45-2.34 1.28-5.26.36-6.5-1.9L1069.93 328c-1.77-3.23-.97-5.98 2.26-7.75h.02ZM1109.32 405.6l27.83-44.29-36.88 15.06c-2.73 1.11-5.93-.17-7.04-2.89-1.15-2.81.25-5.97 2.97-7.08l46.25-18.88c3.58-1.46 7.74.22 9.24 3.89.87 2.13.65 4.51-.57 6.4l-26.87 43 35.77-14.61c2.73-1.11 5.93.17 7.04 2.89 1.15 2.81-.25 5.97-2.97 7.08l-46.68 19.06c-3.32 1.36-7.25-.22-8.64-3.64-.83-2.05-.63-4.22.54-5.99h.01ZM1144.13 417.54c18.2-4.93 34.32 5.3 38.94 22.37 2.58 9.51.72 17.08-3.15 23.18-.58 1.02-1.7 1.8-2.95 2.14-2.66.72-5.49-.9-6.21-3.57-.41-1.51-.15-3.01.67-4.19 2.77-4.19 3.89-9.55 2.4-15.06-3.06-11.29-14.39-17.57-26.82-14.2-12.43 3.37-19.04 14.51-15.98 25.8 1.49 5.51 5.08 9.6 9.7 11.88 1.22.62 2.27 1.68 2.67 3.19.72 2.67-.89 5.49-3.56 6.21-1.24.34-2.61.23-3.62-.35-6.43-3.32-11.83-8.82-14.43-18.42-4.63-17.07 4.12-34.04 22.32-38.97h.02ZM1190.46 523.01l-31.06-14.33-20.37 3.13c-2.91.45-5.73-1.54-6.18-4.46-.46-3 1.63-5.75 4.54-6.2l20.37-3.13 25.22-23.07c.64-.66 1.69-1.1 2.69-1.25a5.153 5.153 0 0 1 5.88 4.32c.27 1.73-.39 3.51-1.71 4.64l-21.8 19.28 26.55 11.67c1.5.7 2.76 2.19 3.02 3.92a5.148 5.148 0 0 1-4.31 5.88c-1 .15-2.04.03-2.85-.4h.01ZM1389.67 302.27l-44.07 66.65v48.16c0 6.88-5.59 12.68-12.47 12.68s-12.68-5.8-12.68-12.68v-48.16l-44.29-66.43c-1.29-1.72-1.93-4.3-1.93-6.66 0-6.67 5.38-12.04 12.04-12.04 4.08 0 7.96 2.15 10.1 5.59l36.76 57.19 36.33-57.19c2.15-3.22 6.02-5.59 10.11-5.59 6.66 0 12.04 5.38 12.04 12.04 0 2.36-.64 4.73-1.93 6.45ZM1374.62 376.45c0-29.67 20.42-54.39 53.32-54.39s53.53 24.72 53.53 54.39-20.21 54.61-53.53 54.61-53.32-24.72-53.32-54.61Zm83.42 0c0-18.27-10.75-34.4-30.1-34.4s-29.88 16.12-29.88 34.4 10.75 34.61 29.88 34.61 30.1-16.12 30.1-34.61ZM1588.97 334.74v83.63c0 6.23-5.16 11.39-11.18 11.39s-11.39-5.16-11.39-11.39v-3.44c-7.53 8.17-20.42 16.12-36.76 16.12-22.36 0-33.32-11.61-33.32-32.89v-63.42c0-6.24 5.16-11.39 11.39-11.39s11.18 5.16 11.18 11.39v55.25c0 16.12 8.17 21.07 20.85 21.07 11.39 0 21.29-6.45 26.66-13.54v-62.78c0-6.24 5.16-11.39 11.18-11.39s11.39 5.16 11.39 11.39ZM1668.09 333.45c0 5.16-3.87 9.67-11.61 10.75s-19.13 6.23-23.65 13.54v60.63c0 6.23-5.16 11.39-11.18 11.39s-11.39-5.16-11.39-11.39v-83.63c0-6.24 5.16-11.39 11.18-11.39s11.39 5.16 11.39 11.39v5.16c5.59-7.31 13.33-13.54 20-15.7 2.58-.86 4.08-1.29 6.02-1.29 6.45 0 9.25 4.95 9.25 10.54h-.01ZM1385.55 651.08l-72.16-100.72v94.4c0 6.98-5.67 12.86-12.64 12.86s-12.86-5.89-12.86-12.86V526.38c0-9.16 7.41-16.79 16.79-16.79 5.45 0 10.46 2.62 13.52 6.98l70.2 97.45v-91.56c0-6.98 5.67-12.86 12.64-12.86s12.86 5.89 12.86 12.86v119.47c0 8.5-6.98 15.7-15.7 15.7-5.23 0-9.81-2.4-12.64-6.54h-.01ZM1481.46 548.4c31.61 0 51.88 24.2 51.88 52.1 0 6.76-4.8 10.68-13.52 10.68h-67.8c1.74 15.92 13.73 29 33.57 29 7.63 0 16.57-2.4 23.98-6.98 1.31-.87 3.05-1.31 5.01-1.31 5.01 0 9.16 4.14 9.16 9.16 0 3.27-1.74 5.89-4.14 7.63-10.46 6.98-23.11 10.25-36.41 10.25-31.61 0-55.15-22.02-55.15-55.37 0-30.52 22.24-55.15 53.41-55.15h.01Zm-29.65 46.65h59.3c-.44-12.43-8.94-27.9-29.65-27.9-19.62 0-28.56 15.04-29.65 27.9ZM1599.18 647.59c0 4.36-2.4 7.41-6.1 8.72-3.71 1.53-8.72 2.62-15.04 2.62-17.66 0-27.03-9.59-27.03-27.03v-60.82h-8.72c-5.45 0-10.03-4.58-10.03-10.03s4.58-10.03 10.03-10.03h8.72v-18.53c0-6.32 5.23-11.55 11.55-11.55s11.34 5.23 11.34 11.55v18.53h12.64c5.45 0 10.03 4.58 10.03 10.03s-4.58 10.03-10.03 10.03h-12.64v55.16c0 7.19 3.49 12.43 10.03 12.43 2.62 0 3.92-.65 5.67-.65 5.89 0 9.59 4.14 9.59 9.59v-.02ZM1642.78 641.93c0-3.05 1.09-6.1 2.83-8.28l72.81-100.28h-64.31c-6.1 0-11.34-5.01-11.34-11.12s5.23-11.34 11.34-11.34h84.37c7.85 0 14.39 6.32 14.39 14.39 0 3.05-1.09 6.1-2.83 8.28l-72.81 100.28h65.84c6.1 0 11.34 5.01 11.34 11.12s-5.23 11.34-11.34 11.34h-85.89c-7.85 0-14.39-6.32-14.39-14.39ZM1814.99 548.4c31.61 0 51.88 24.2 51.88 52.1 0 6.76-4.8 10.68-13.52 10.68h-67.8c1.74 15.92 13.73 29 33.57 29 7.63 0 16.57-2.4 23.98-6.98 1.31-.87 3.05-1.31 5.01-1.31 5.01 0 9.16 4.14 9.16 9.16 0 3.27-1.74 5.89-4.14 7.63-10.46 6.98-23.11 10.25-36.41 10.25-31.61 0-55.15-22.02-55.15-55.37 0-30.52 22.24-55.15 53.41-55.15h.01Zm-29.65 46.65h59.3c-.44-12.43-8.94-27.9-29.65-27.9-19.62 0-28.56 15.04-29.65 27.9ZM1938.6 559.96c0 5.23-3.92 9.81-11.77 10.9s-19.4 6.32-23.98 13.73v61.48c0 6.32-5.23 11.55-11.34 11.55s-11.55-5.23-11.55-11.55v-84.8c0-6.32 5.23-11.55 11.34-11.55s11.55 5.23 11.55 11.55v5.23c5.67-7.41 13.52-13.73 20.27-15.91 2.62-.87 4.14-1.31 6.1-1.31 6.54 0 9.37 5.01 9.37 10.68h.01ZM1939.47 603.56c0-30.08 20.71-55.15 54.06-55.15s54.28 25.07 54.28 55.15-20.49 55.37-54.28 55.37-54.06-25.07-54.06-55.37Zm84.58 0c0-18.53-10.9-34.88-30.52-34.88s-30.3 16.35-30.3 34.88 10.9 35.1 30.3 35.1 30.52-16.35 30.52-35.1ZM1284.34 892.09V771.75c0-8.72 4.8-13.52 13.52-13.52h50.36c30.52 0 47.52 20.93 47.52 45.56s-17.22 45.56-47.52 45.56h-38.37v42.73c0 6.98-5.67 12.86-12.64 12.86s-12.86-5.89-12.86-12.86h-.01Zm60.39-111.4h-34.88v46.22h34.88c14.39 0 24.85-9.16 24.85-23.11s-10.46-23.11-24.85-23.11ZM1488.17 833.88v59.51c0 6.32-5.23 11.55-11.55 11.55s-11.34-5.23-11.34-11.55v-1.09c-7.85 8.94-20.06 13.95-34.01 13.95-17.22 0-36.62-11.55-36.62-34.88s19.4-34.23 36.62-34.23c14.17 0 26.38 4.58 34.01 13.52v-15.7c0-12.21-10.03-19.62-24.63-19.62-8.94 0-16.79 2.4-24.63 7.85-1.31.87-3.27 1.53-5.23 1.53-5.01 0-9.16-4.14-9.16-9.16 0-3.05 1.74-5.89 3.92-7.41 11.55-8.5 24.63-12.43 38.8-12.43 23.33 0 43.82 9.81 43.82 38.15Zm-22.89 45.78v-15.91c-5.23-7.19-15.04-10.9-25.07-10.9-12.86 0-22.45 7.41-22.45 18.97s9.59 18.75 22.45 18.75c10.03 0 19.84-3.71 25.07-10.9ZM1567.74 807.29c0 5.23-3.92 9.81-11.77 10.9s-19.4 6.32-23.98 13.73v61.48c0 6.32-5.23 11.55-11.34 11.55s-11.55-5.23-11.55-11.55v-84.8c0-6.32 5.23-11.55 11.34-11.55s11.55 5.23 11.55 11.55v5.23c5.67-7.41 13.52-13.73 20.27-15.91 2.62-.87 4.14-1.31 6.1-1.31 6.54 0 9.37 5.01 9.37 10.68h.01ZM1637.49 894.93c0 4.36-2.4 7.41-6.1 8.72-3.71 1.53-8.72 2.62-15.04 2.62-17.66 0-27.03-9.59-27.03-27.03v-60.82h-8.72c-5.45 0-10.03-4.58-10.03-10.03s4.58-10.03 10.03-10.03h8.72v-18.53c0-6.32 5.23-11.55 11.55-11.55s11.34 5.23 11.34 11.55v18.53h12.64c5.45 0 10.03 4.58 10.03 10.03s-4.58 10.03-10.03 10.03h-12.64v55.16c0 7.19 3.49 12.43 10.03 12.43 2.62 0 3.92-.65 5.67-.65 5.89 0 9.59 4.14 9.59 9.59v-.02ZM1739.52 829.52v63.88c0 6.32-5.23 11.55-11.55 11.55s-11.34-5.23-11.34-11.55v-55.59c0-16.35-8.28-21.8-21.15-21.8-11.77 0-21.8 6.98-27.03 14.17v63.22c0 6.32-5.23 11.55-11.34 11.55s-11.55-5.23-11.55-11.55v-84.8c0-6.32 5.23-11.55 11.34-11.55s11.55 5.23 11.55 11.55v4.14c6.98-8.28 20.49-17 37.06-17 22.67 0 34.01 12.21 34.01 33.79ZM1807.31 795.73c31.61 0 51.88 24.2 51.88 52.1 0 6.76-4.8 10.68-13.52 10.68h-67.8c1.74 15.92 13.73 29 33.57 29 7.63 0 16.57-2.4 23.98-6.98 1.31-.87 3.05-1.31 5.01-1.31 5.01 0 9.16 4.14 9.16 9.16 0 3.27-1.74 5.89-4.14 7.63-10.46 6.98-23.11 10.25-36.41 10.25-31.61 0-55.15-22.02-55.15-55.37 0-30.52 22.24-55.15 53.41-55.15h.01Zm-29.65 46.65h59.3c-.44-12.43-8.94-27.9-29.65-27.9-19.62 0-28.56 15.04-29.65 27.9ZM1931.79 807.29c0 5.23-3.92 9.81-11.77 10.9s-19.4 6.32-23.98 13.73v61.48c0 6.32-5.23 11.55-11.34 11.55s-11.55-5.23-11.55-11.55v-84.8c0-6.32 5.23-11.55 11.34-11.55s11.55 5.23 11.55 11.55v5.23c5.67-7.41 13.52-13.73 20.27-15.91 2.62-.87 4.14-1.31 6.1-1.31 6.54 0 9.37 5.01 9.37 10.68h.01Z" class="cls-2"/></svg>