<?xml version="1.0" encoding="utf-8"?>
<!-- Generator: Adobe Illustrator 28.3.0, SVG Export Plug-In . SVG Version: 6.00 Build 0)  -->
<svg version="1.1" id="layer" xmlns="http://www.w3.org/2000/svg" xmlns:xlink="http://www.w3.org/1999/xlink" x="0px" y="0px"
	 viewBox="0 0 902.1 500" style="enable-background:new 0 0 902.1 500;" xml:space="preserve">
<style type="text/css">
	.st0{fill:#F29600;}
	.st1{fill:#1F66A6;}
	
		.st2{clip-path:url(#SVGID_00000053512535731976041040000005324026386672242585_);fill:url(#SVGID_00000171685708359790786150000003023316253889124240_);}
	
		.st3{clip-path:url(#SVGID_00000127722672809160417970000005222265638681956745_);fill:url(#SVGID_00000023990527083563330970000014049058809776554907_);}
	
		.st4{clip-path:url(#SVGID_00000042700392212150536180000017160367485829129633_);fill:url(#SVGID_00000128478983061129594440000003201439347357353647_);}
	
		.st5{clip-path:url(#SVGID_00000176721897605770120440000000187693887398060688_);fill:url(#SVGID_00000117676387935885468610000015895306553811152804_);}
	
		.st6{clip-path:url(#SVGID_00000124145627257491998230000012054908609754813060_);fill:url(#SVGID_00000116211544704516163740000009056286866411498385_);}
	
		.st7{clip-path:url(#SVGID_00000017474776738470105360000017939268009331458488_);fill:url(#SVGID_00000029765061929017238120000004166371789031696529_);}
	
		.st8{clip-path:url(#SVGID_00000055673395297664962540000002387190901383403711_);fill:url(#SVGID_00000063609258111883332700000010893674979293929098_);}
	
		.st9{clip-path:url(#SVGID_00000165940363475083947430000007268733662617171854_);fill:url(#SVGID_00000145037236853512228760000013163954335399323299_);}
</style>
<g>
	<g>
		<path class="st0" d="M486.1,143.2h-7.5V133h-0.2c-6.4,9.6-16.6,11.6-22.7,11.6c-18.3,0-31.4-14-31.4-30.7
			c0-15.6,12.3-30.5,31.4-30.5c6.3,0,16.5,2,22.7,11.7h0.2V84.9h7.5V143.2z M455.6,137.8c12.6,0,23.4-10.1,23.4-23.8
			c0-12.8-9.9-24-23.4-24c-12.8,0-23.9,9.3-23.9,24.1C431.8,127.2,441.4,137.8,455.6,137.8"/>
		<path class="st0" d="M549.8,143.2h-7v-9.1h-0.2c-2.1,4.4-7.8,10.5-18.7,10.5c-11.5,0-17.5-5.6-20.1-8.7
			c-4.2-5.1-5.1-12.6-5.1-18.8V84.9h7.5V117c0,7.4,1.6,12.2,4.2,15.4c4.1,4.6,9.5,5.5,13.5,5.5c4.2,0,8.6-1,12.4-4.7
			c3.4-3.4,6.1-7.3,6.1-17.5V84.9h7.5L549.8,143.2L549.8,143.2z"/>
		<path class="st0" d="M566.7,125.9c0.2,11.1,7.8,11.9,10.5,11.9c7,0,10.9-4.2,10.9-10.5c0-8-7.3-9.8-11.6-11.6
			c-6-2-15.5-5.2-15.5-16.2c0-8.2,5.9-16.2,16.6-16.2c8.7,0,16,6.7,15.9,15.9H586c-0.5-7.1-5.4-9.2-8.7-9.2c-6,0-8.8,4.8-8.8,8.7
			c0,6.2,6.2,8.3,10.4,9.7c6.8,2.2,16.6,6,16.6,18c0.1,10-6,18-18.3,18c-8.1,0-18.2-5.5-17.9-18.7h7.4V125.9z"/>
		<polygon class="st0" points="610.8,91.5 598.6,91.5 598.6,84.8 610.8,84.8 610.8,64.2 618.3,64.2 618.3,84.8 632.3,84.8 
			632.3,91.5 618.3,91.5 618.3,143.2 610.8,143.2 		"/>
		<path class="st0" d="M638.6,84.8h7.5v8.4h0.2c3.5-8.2,10.1-9.5,16.4-9.9v7.9c-5.2,0.4-9.7,2.3-12.6,5.8c-2.6,3.2-4.1,7.4-4.1,12.1
			v34.1h-7.5L638.6,84.8L638.6,84.8z"/>
		<path class="st0" d="M725.1,143.2h-7.5V133h-0.2c-6.4,9.6-16.6,11.6-22.7,11.6c-18.3,0-31.4-14-31.4-30.7
			c0-15.6,12.3-30.5,31.4-30.5c6.3,0,16.5,2,22.7,11.7h0.2V84.9h7.5V143.2z M694.7,137.8c12.6,0,23.4-10.1,23.4-23.8
			c0-12.8-9.9-24-23.4-24c-12.8,0-23.9,9.3-23.9,24.1C670.8,127.2,680.4,137.8,694.7,137.8"/>
		<rect x="738" y="64.2" class="st0" width="7.5" height="78.9"/>
		<path class="st0" d="M758.4,64.2h7.5v13.4h-7.5V64.2z M758.4,84.8h7.5v58.3h-7.5V84.8z"/>
		<path class="st0" d="M837.7,143.2h-7.5V133H830c-6.4,9.6-16.6,11.6-22.7,11.6c-18.3,0-31.4-14-31.4-30.7
			c0-15.6,12.3-30.5,31.4-30.5c6.3,0,16.5,2,22.7,11.7h0.2V84.9h7.5V143.2z M807.3,137.8c12.6,0,23.4-10.1,23.4-23.8
			c0-12.8-9.9-24-23.4-24c-12.8,0-23.9,9.3-23.9,24.1C783.4,127.2,793,137.8,807.3,137.8"/>
		<path class="st0" d="M850.7,84.8h7.5v7.5h0.2c2.2-3.5,8-9,17.9-9c7.1,0,13.1,1.8,18.5,7.1c4.4,4.3,7.3,11,7.3,20.6v32.1h-7.5v-32
			c0-7.6-2.3-12.9-5.5-16c-4.1-3.9-9.4-5-12.7-5s-8.6,1.1-12.7,5c-3.2,3.1-5.5,8.4-5.4,16v32.1h-7.5L850.7,84.8L850.7,84.8z"/>
		<path class="st0" d="M431.5,210.5c0.5,11.4,11.2,21.1,22.6,21.1c10.7-0.2,18.2-6.5,20.9-13.8h7.9c-4.1,11.6-15.3,20.5-28.7,20.5
			c-16.3,0-30.4-13.2-30.4-30.5c0-16.5,13.3-30.4,30.3-30.7c12.8,0.1,21.9,7.7,26,14.9c3.9,6.3,4.8,12.8,4.5,18.5L431.5,210.5
			L431.5,210.5z M477.1,203.8c-2.3-13.8-13.5-19.9-22.8-19.9c-9.2,0-20.6,6.2-22.7,19.9H477.1z"/>
		<path class="st0" d="M494.5,178.7h7.5v7.5h0.2c2.2-3.5,8-9,17.9-9c7.2,0,13.1,1.8,18.5,7.1c4.4,4.3,7.3,11,7.3,20.6V237h-7.5
			v-32.1c0-7.6-2.3-12.9-5.5-16c-4.1-3.9-9.4-5-12.7-5s-8.6,1.1-12.7,5c-3.2,3.1-5.5,8.4-5.4,16V237h-7.5L494.5,178.7L494.5,178.7z"
			/>
		<path class="st0" d="M562.9,210.5c0.5,11.4,11.2,21.1,22.6,21.1c10.7-0.2,18.2-6.5,20.9-13.8h7.9c-4.1,11.6-15.3,20.5-28.7,20.5
			c-16.3,0-30.4-13.2-30.4-30.5c0-16.5,13.3-30.4,30.3-30.7c12.8,0.1,21.9,7.7,26,14.9c3.9,6.3,4.8,12.8,4.5,18.5L562.9,210.5
			L562.9,210.5z M608.5,203.8c-2.3-13.8-13.5-19.9-22.8-19.9c-9.2,0-20.6,6.2-22.7,19.9H608.5z"/>
		<path class="st0" d="M625.9,178.7h7.5v8.4h0.2c3.5-8.2,10.1-9.5,16.4-9.9v7.9c-5.2,0.4-9.7,2.3-12.6,5.8
			c-2.6,3.2-4.1,7.4-4.1,12.1v34.1h-7.5L625.9,178.7L625.9,178.7z"/>
		<path class="st0" d="M711,227.8c0,6.3,0,14.2-5.3,21.3c-7.4,10.2-20.8,10.8-23.2,10.8c-8.3,0-24.5-3.2-29.9-21.4h7.9
			c1.9,4.8,7.7,14.7,21.9,14.7c9.8,0,21.1-5.7,21.1-21.8v-5.1h-0.1c-4.4,8.3-14,12.1-22.5,12.1c-15.4,0-30.5-11.9-30.5-30.3
			c0-18.6,15.1-30.9,30.5-30.9c5.3,0,15.8,1.6,22.5,11.9h0.2v-10.5h7.5v49.2H711z M680.9,231.7c15.5,0,23.1-13.9,23.1-23.8
			c0-12.8-10-24-23.1-24c-13.2,0-23,11.2-23,24C657.8,220.6,667.6,231.7,680.9,231.7"/>
		<polygon class="st0" points="740.6,235.1 717.9,178.7 725.8,178.7 744.4,225.2 764.2,178.7 772.1,178.7 738.3,257.5 730.5,257.5 
					"/>
		<path class="st1" d="M429.8,313.6c0.2,11.1,7.8,11.9,10.5,11.9c7,0,10.9-4.2,10.9-10.5c0-8-7.3-9.8-11.6-11.6
			c-6-2-15.5-5.2-15.5-16.2c0-8.2,5.9-16.2,16.6-16.2c8.7,0,16,6.7,15.9,15.9h-7.5c-0.5-7.1-5.4-9.2-8.7-9.2c-6,0-8.9,4.8-8.9,8.7
			c0,6.2,6.2,8.3,10.5,9.7c6.8,2.2,16.6,6,16.6,18c0.1,10-6,18-18.3,18c-8.1,0-18.2-5.5-17.9-18.7h7.4V313.6z"/>
		<polygon class="st1" points="473.9,279.2 461.6,279.2 461.6,272.5 473.9,272.5 473.9,251.9 481.4,251.9 481.4,272.5 495.4,272.5 
			495.4,279.2 481.4,279.2 481.4,330.8 473.9,330.8 		"/>
		<path class="st1" d="M526.6,271c17.3,0,30.6,14.6,30.6,30.6c0,15.9-13.1,30.6-30.6,30.6c-17.1,0-30.4-14.4-30.4-30.2
			C496.2,283.6,511.3,271,526.6,271 M526.7,325.5c11.3,0,23-9,23-24.2c0-15.4-13-23.6-23-23.6c-10.7,0-23,8.7-23,24.2
			C503.7,315.5,514.7,325.5,526.7,325.5"/>
		<path class="st1" d="M567.1,272.5h7.5v8.4h0.2c3.5-8.2,10.1-9.5,16.4-9.9v7.9c-5.2,0.4-9.7,2.3-12.6,5.8
			c-2.6,3.2-4.1,7.4-4.1,12.1v34.1H567v-58.4H567.1z"/>
		<path class="st1" d="M653.6,330.8h-7.5v-10.2h-0.2c-6.4,9.6-16.6,11.6-22.7,11.6c-18.3,0-31.4-14-31.4-30.7
			c0-15.6,12.3-30.5,31.4-30.5c6.3,0,16.5,2,22.7,11.7h0.2v-10.2h7.5V330.8z M623.2,325.5c12.6,0,23.4-10.1,23.4-23.8
			c0-12.8-9.9-24-23.4-24c-12.8,0-23.9,9.3-23.9,24.1C599.3,314.8,608.9,325.5,623.2,325.5"/>
		<path class="st1" d="M724,321.7c0,6.3,0,14.2-5.3,21.3c-7.4,10.2-20.8,10.8-23.2,10.8c-8.3,0-24.5-3.2-29.9-21.4h7.9
			c1.9,4.8,7.7,14.7,21.9,14.7c9.8,0,21.1-5.7,21.1-21.8v-5.1h-0.2c-4.4,8.3-14,12.1-22.5,12.1c-15.4,0-30.5-11.9-30.5-30.3
			c0-18.6,15.1-30.9,30.5-30.9c5.3,0,15.8,1.6,22.5,11.9h0.2v-10.5h7.5V321.7z M693.8,325.5c15.5,0,23.1-13.9,23.1-23.8
			c0-12.8-10-24-23.1-24c-13.2,0-23,11.2-23,24C670.8,314.4,680.6,325.5,693.8,325.5"/>
		<path class="st1" d="M741.7,304.4c0.5,11.4,11.2,21.1,22.6,21.1c10.7-0.2,18.2-6.5,20.9-13.8h7.9c-4.1,11.6-15.3,20.5-28.7,20.5
			c-16.3,0-30.4-13.2-30.4-30.5c0-16.5,13.3-30.4,30.3-30.7c12.8,0.1,21.9,7.7,26,14.9c3.9,6.3,4.8,12.8,4.5,18.5H741.7z
			 M787.3,297.7c-2.3-13.8-13.5-19.9-22.8-19.9c-9.2,0-20.6,6.2-22.7,19.9H787.3z"/>
		<path class="st1" d="M483.8,424.7h-7.5v-10.2h-0.2c-6.4,9.6-16.6,11.6-22.7,11.6c-18.3,0-31.4-14-31.4-30.7
			c0-15.6,12.3-30.5,31.4-30.5c6.3,0,16.5,2,22.7,11.7h0.2v-10.2h7.5V424.7z M453.4,419.3c12.6,0,23.4-10.1,23.4-23.8
			c0-12.8-9.9-24-23.4-24c-12.8,0-23.9,9.3-23.9,24.1C429.5,408.7,439.1,419.3,453.4,419.3"/>
		<rect x="496.8" y="345.7" class="st1" width="7.5" height="78.9"/>
		<rect x="517.1" y="345.7" class="st1" width="7.5" height="78.9"/>
		<path class="st1" d="M537.5,345.7h7.5v13.4h-7.5V345.7z M537.5,366.3h7.5v58.3h-7.5V366.3z"/>
		<path class="st1" d="M616.8,424.7h-7.5v-10.2h-0.2c-6.4,9.6-16.6,11.6-22.7,11.6c-18.3,0-31.4-14-31.4-30.7
			c0-15.6,12.3-30.5,31.4-30.5c6.3,0,16.5,2,22.7,11.7h0.2v-10.2h7.5V424.7z M586.4,419.3c12.6,0,23.4-10.1,23.4-23.8
			c0-12.8-9.9-24-23.4-24c-12.8,0-23.9,9.3-23.9,24.1C562.5,408.7,572.1,419.3,586.4,419.3"/>
		<path class="st1" d="M629.8,366.3h7.5v7.5h0.2c2.2-3.5,8-9,17.9-9c7.2,0,13.1,1.8,18.5,7.1c4.4,4.3,7.3,11,7.3,20.6v32.1h-7.5
			v-32.1c0-7.6-2.3-12.9-5.5-16c-4.1-3.9-9.4-5-12.7-5s-8.6,1.1-12.7,5c-3.2,3.1-5.5,8.4-5.4,16v32.1h-7.5L629.8,366.3L629.8,366.3z
			"/>
		<path class="st1" d="M751,407.5c-3.7,7.3-11.5,18.6-29,18.6c-18.2,0-31.4-14.2-31.4-30.5c0-16.9,14-30.7,31.4-30.7
			c10.2,0,23.4,5.1,29,19.1h-8.2c-4.7-8.9-13.2-12.4-20.6-12.4c-11.4,0-24.1,8.5-24.1,23.8c0,13.1,10.1,24,24.1,24
			c12.2,0,18.2-7.4,20.6-11.8h8.2V407.5z"/>
		<path class="st1" d="M764.4,398.2c0.5,11.4,11.2,21.1,22.6,21.1c10.7-0.2,18.2-6.5,20.9-13.8h7.9c-4.1,11.6-15.3,20.5-28.7,20.5
			c-16.3,0-30.4-13.2-30.4-30.5c0-16.5,13.3-30.4,30.3-30.7c12.8,0.1,21.9,7.7,26,14.9c3.9,6.3,4.8,12.8,4.5,18.5H764.4z M810,391.5
			c-2.3-13.8-13.5-19.9-22.8-19.9c-9.2,0-20.6,6.2-22.7,19.9H810z"/>
	</g>
	<g>
		<g>
			<defs>
				<path id="SVGID_1_" d="M279.5,124.7c3.9,3.4,7.6,6.8,11.1,10.5c28.5,29.6,41.9,67,38.8,108.1c-5,67-67.7,130.7-134,198.2
					c-12.9,13.1-26.2,26.6-38.7,39.9l20.8,18.6c12.2-12.9,25.1-26,37.8-38.9c70-71.2,136.2-138.5,142-215.7
					c3.7-49.3-12.4-94.1-46.6-129.6c-3.9-4.1-8.1-8-12.5-11.8L279.5,124.7z"/>
			</defs>
			<clipPath id="SVGID_00000178173564015156151900000008638505294898823053_">
				<use xlink:href="#SVGID_1_"  style="overflow:visible;"/>
			</clipPath>
			
				<linearGradient id="SVGID_00000106105516758419137740000002755024497655810730_" gradientUnits="userSpaceOnUse" x1="-459.4775" y1="49.2174" x2="-454.4806" y2="49.2174" gradientTransform="matrix(40.2472 0 0 40.2472 18649.4023 -1678.8608)">
				<stop  offset="0" style="stop-color:#1F66A6"/>
				<stop  offset="1" style="stop-color:#9CC4DD"/>
			</linearGradient>
			
				<rect x="156.7" y="104" style="clip-path:url(#SVGID_00000178173564015156151900000008638505294898823053_);fill:url(#SVGID_00000106105516758419137740000002755024497655810730_);" width="204.3" height="396"/>
		</g>
	</g>
	<g>
		<g>
			<defs>
				<path id="SVGID_00000021827792864001369810000016531795739740872885_" d="M200.2,212.7c2,1.5,3.7,3.1,5.2,4.6
					c5.1,5.3,6.6,9.6,6,17.2c0,0.5-1.4,12.3-24.9,42.3c-19.9,25.2-46.9,52.7-75.5,81.8c-14.1,14.4-28.6,29.1-42.6,44l20.8,18.6
					c13.7-14.5,27.9-29,41.7-43c29.4-29.9,57.1-58.1,78-84.7c23.8-30.4,29.7-47.7,30.4-56.8c1.2-15.6-3.1-27.5-13.8-38.6
					c-2-2.1-4.2-4.1-6.6-6L200.2,212.7z"/>
			</defs>
			<clipPath id="SVGID_00000119102970810444501070000006997250311894536628_">
				<use xlink:href="#SVGID_00000021827792864001369810000016531795739740872885_"  style="overflow:visible;"/>
			</clipPath>
			
				<linearGradient id="SVGID_00000070829574630268027460000010034348276838157969_" gradientUnits="userSpaceOnUse" x1="-459.0644" y1="49.5016" x2="-454.0675" y2="49.5016" gradientTransform="matrix(34.2357 0 0 34.2357 15784.8115 -1388.1727)">
				<stop  offset="0" style="stop-color:#1F66A6"/>
				<stop  offset="1" style="stop-color:#9CC4DD"/>
			</linearGradient>
			
				<rect x="68.4" y="191.9" style="clip-path:url(#SVGID_00000119102970810444501070000006997250311894536628_);fill:url(#SVGID_00000070829574630268027460000010034348276838157969_);" width="172.1" height="229.3"/>
		</g>
	</g>
	<g>
		<g>
			<defs>
				<path id="SVGID_00000068636782800730111200000009897740296910532015_" d="M252.9,154.2c21.8,18.4,40,46,37,86.2
					c-3.9,52.5-61.7,111.2-122.8,173.4c-13.3,13.6-27,27.5-40,41.3l21.7,19.3c12.7-13.4,26-27,39.1-40.3
					c64.9-66,126.3-128.4,131-191.5c3.3-43.3-13.3-81.5-46.5-109.9L252.9,154.2z"/>
			</defs>
			<clipPath id="SVGID_00000084490259718540712510000008577276013472303251_">
				<use xlink:href="#SVGID_00000068636782800730111200000009897740296910532015_"  style="overflow:visible;"/>
			</clipPath>
			
				<linearGradient id="SVGID_00000020362777143371209900000001047906150994594990_" gradientUnits="userSpaceOnUse" x1="-459.4362" y1="49.2953" x2="-454.4392" y2="49.2953" gradientTransform="matrix(38.4553 0 0 38.4553 17794.8789 -1592.2163)">
				<stop  offset="0" style="stop-color:#1F66A6"/>
				<stop  offset="1" style="stop-color:#9CC4DD"/>
			</linearGradient>
			
				<rect x="127.1" y="132.6" style="clip-path:url(#SVGID_00000084490259718540712510000008577276013472303251_);fill:url(#SVGID_00000020362777143371209900000001047906150994594990_);" width="195" height="341.7"/>
		</g>
	</g>
	<g>
		<g>
			<defs>
				<path id="SVGID_00000119817181018149933780000012761478773688016572_" d="M226,184.1c2.6,2.1,5,4.3,7.1,6.5
					c12.8,13.3,18.1,28.2,16.7,46.8c-2.8,37.8-60.4,96.5-111.3,148.2c-13.7,14-27.8,28.3-41.4,42.7l21.6,19.3
					c13.2-14,27-28,40.4-41.7c57-58,116-117.9,119.6-166.4c2-26.7-6.3-50-24.8-69.1c-2.7-2.8-5.5-5.4-8.6-8L226,184.1z"/>
			</defs>
			<clipPath id="SVGID_00000029729946802063414900000005779927122316962191_">
				<use xlink:href="#SVGID_00000119817181018149933780000012761478773688016572_"  style="overflow:visible;"/>
			</clipPath>
			
				<linearGradient id="SVGID_00000018919616316777286450000004319723674576116379_" gradientUnits="userSpaceOnUse" x1="-459.3025" y1="49.391" x2="-454.3056" y2="49.391" gradientTransform="matrix(36.4141 0 0 36.4141 16822.207 -1493.4779)">
				<stop  offset="0" style="stop-color:#1F66A6"/>
				<stop  offset="1" style="stop-color:#9CC4DD"/>
			</linearGradient>
			
				<rect x="97.1" y="162.5" style="clip-path:url(#SVGID_00000029729946802063414900000005779927122316962191_);fill:url(#SVGID_00000018919616316777286450000004319723674576116379_);" width="183.7" height="285.1"/>
		</g>
	</g>
	<g>
		<g>
			<defs>
				<path id="SVGID_00000113311800313186341180000003696805265264274563_" d="M142.2,38.8C72.3,109.7,6.3,176.7,0.5,253.6
					c-3.7,49.1,12.4,93.8,46.5,129.1c3.9,4.1,8.1,8,12.5,11.8l18.7-20.6c-3.9-3.3-7.6-6.8-11.1-10.4C38.7,334,25.3,296.8,28.3,255.8
					c5-66.7,67.5-130.2,133.7-197.4c12.9-13.1,26.1-26.5,38.6-39.7L179.9,0C167.8,12.9,154.8,26,142.2,38.8"/>
			</defs>
			<clipPath id="SVGID_00000183968413592473551830000009994010428915974841_">
				<use xlink:href="#SVGID_00000113311800313186341180000003696805265264274563_"  style="overflow:visible;"/>
			</clipPath>
			
				<linearGradient id="SVGID_00000124157893146364548250000009841831285975012775_" gradientUnits="userSpaceOnUse" x1="-462.5674" y1="47.132" x2="-457.5703" y2="47.132" gradientTransform="matrix(40.1601 0 0 40.1601 18576.8086 -1695.6263)">
				<stop  offset="0" style="stop-color:#FBD57D"/>
				<stop  offset="1" style="stop-color:#F4A300"/>
			</linearGradient>
			
				<rect x="-3.1" style="clip-path:url(#SVGID_00000183968413592473551830000009994010428915974841_);fill:url(#SVGID_00000124157893146364548250000009841831285975012775_);" width="203.9" height="394.4"/>
		</g>
	</g>
	<g>
		<g>
			<defs>
				<path id="SVGID_00000155124673420593152360000000147181728169941898_" d="M226.4,121.4c-29.3,29.8-57,57.9-77.8,84.4
					c-23.8,30.3-29.6,47.5-30.3,56.6c-1.2,15.6,3.1,27.4,13.7,38.5c2,2,4.2,4.1,6.6,6l18.7-20.7c-2-1.5-3.7-3-5.2-4.6
					c-5.1-5.3-6.6-9.6-6-17.1c0-0.5,1.4-12.3,24.9-42.1c19.8-25.2,46.8-52.5,75.3-81.5c14.1-14.3,28.6-29,42.6-43.8l-20.8-18.5
					C254.4,93,240.2,107.4,226.4,121.4"/>
			</defs>
			<clipPath id="SVGID_00000054230405769434952000000004215281548213641859_">
				<use xlink:href="#SVGID_00000155124673420593152360000000147181728169941898_"  style="overflow:visible;"/>
			</clipPath>
			
				<linearGradient id="SVGID_00000091721556838755342430000003367129642453962121_" gradientUnits="userSpaceOnUse" x1="-457.8694" y1="46.8389" x2="-452.8725" y2="46.8389" gradientTransform="matrix(34.1616 0 0 34.1616 15759.665 -1407.3922)">
				<stop  offset="0" style="stop-color:#FBD57D"/>
				<stop  offset="1" style="stop-color:#F4A300"/>
			</linearGradient>
			
				<rect x="117.1" y="78.5" style="clip-path:url(#SVGID_00000054230405769434952000000004215281548213641859_);fill:url(#SVGID_00000091721556838755342430000003367129642453962121_);" width="171.7" height="228.4"/>
		</g>
	</g>
	<g>
		<g>
			<defs>
				<path id="SVGID_00000004536294120746441160000005051902668991868590_" d="M169.6,65.7c-64.8,65.8-126,127.9-130.7,190.8
					c-3.2,43.2,13.3,81.2,46.4,109.5l19.4-21.5c-21.8-18.3-39.9-45.8-36.9-85.8c3.9-52.3,61.5-110.8,122.5-172.7
					c13.3-13.5,27-27.4,40-41.1l-21.7-19.3C196,38.9,182.6,52.5,169.6,65.7"/>
			</defs>
			<clipPath id="SVGID_00000103248357158453380610000005192271422402154668_">
				<use xlink:href="#SVGID_00000004536294120746441160000005051902668991868590_"  style="overflow:visible;"/>
			</clipPath>
			
				<linearGradient id="SVGID_00000086678683277711636970000008348644389407345295_" gradientUnits="userSpaceOnUse" x1="-461.2531" y1="47.0534" x2="-456.256" y2="47.0534" gradientTransform="matrix(38.3722 0 0 38.3722 17737.7871 -1609.7437)">
				<stop  offset="0" style="stop-color:#FBD57D"/>
				<stop  offset="1" style="stop-color:#F4A300"/>
			</linearGradient>
			
				<rect x="35.6" y="25.6" style="clip-path:url(#SVGID_00000103248357158453380610000005192271422402154668_);fill:url(#SVGID_00000086678683277711636970000008348644389407345295_);" width="194.6" height="340.4"/>
		</g>
	</g>
	<g>
		<g>
			<defs>
				<path id="SVGID_00000011021527352388396180000007306892912391771321_" d="M198.2,93.8C141.3,151.5,82.5,211.2,78.9,259.5
					c-2,26.6,6.3,49.8,24.7,68.8c2.7,2.8,5.5,5.4,8.5,7.9l19.4-21.5c-2.6-2.1-4.9-4.3-7.1-6.5c-12.8-13.2-18.1-28-16.7-46.6
					c2.8-37.7,60.4-96.1,111.1-147.6c13.7-13.9,27.8-28.2,41.3-42.5l-21.6-19.3C225.4,66.2,211.6,80.1,198.2,93.8"/>
			</defs>
			<clipPath id="SVGID_00000039120675292627473890000016613523927498507442_">
				<use xlink:href="#SVGID_00000011021527352388396180000007306892912391771321_"  style="overflow:visible;"/>
			</clipPath>
			
				<linearGradient id="SVGID_00000081622358672549507220000002174817292315953566_" gradientUnits="userSpaceOnUse" x1="-459.6795" y1="46.9534" x2="-454.6825" y2="46.9534" gradientTransform="matrix(36.3353 0 0 36.3353 16781.1758 -1511.8649)">
				<stop  offset="0" style="stop-color:#FBD57D"/>
				<stop  offset="1" style="stop-color:#F4A300"/>
			</linearGradient>
			
				<rect x="76.9" y="52.2" style="clip-path:url(#SVGID_00000039120675292627473890000016613523927498507442_);fill:url(#SVGID_00000081622358672549507220000002174817292315953566_);" width="183.3" height="284"/>
		</g>
	</g>
</g>
</svg>
