<svg xmlns="http://www.w3.org/2000/svg" viewBox="0 0 349.98 183.55"><path d="M159.41 170.43V125h28.77v9.55h-18.64v8.65h16.91v8.9h-16.91v8.71h18.7v9.61h-28.83Zm43.02 0h-9.74v-31.84h9.42v3.66c1.73-3.01 5.64-4.48 8.9-4.48 8.01 0 11.59 5.7 11.59 12.68v19.98h-9.74v-18.32c0-3.14-1.66-5.51-5.19-5.51-3.2 0-5.26 2.37-5.26 5.57v18.26h.02Zm53.91-9.17c-1.54 5.51-6.6 10.12-14.68 10.12-8.77 0-16.59-6.28-16.59-16.98s7.62-16.78 15.88-16.78c9.87 0 15.96 6.08 15.96 16.34 0 1.35-.13 2.82-.19 3.01h-22.17c.19 3.59 3.47 6.15 7.24 6.15 3.53 0 5.51-1.66 6.41-4.16l8.14 2.31Zm-8.84-10.58c-.13-2.44-1.79-5.38-6.41-5.38-4.1 0-6.15 3.01-6.35 5.38h12.76Zm32.52-2.49c-1.09-.25-2.12-.32-3.07-.32-3.91 0-7.43 2.31-7.43 8.65v13.9h-9.74v-31.84h9.42v4.29c1.66-3.59 5.7-4.61 8.27-4.61.96 0 1.92.13 2.56.32v9.61h-.01Zm8.71 21.58c.63 3.07 3.2 5.32 6.86 5.32 4.86 0 7.88-2.37 7.88-8.14v-1.47c-1.16 1.73-3.91 3.59-8.52 3.59-8.46 0-14.8-6.67-14.8-15.5s6.08-15.57 14.8-15.57c5.19 0 7.95 2.31 8.84 3.97v-3.39h9.29v27.87c0 9.17-5.13 17.1-17.04 17.1-9.17 0-14.99-5.64-15.88-11.34l8.58-2.44h-.01Zm14.8-16.21c0-4.35-3.14-7.05-6.79-7.05s-6.86 2.69-6.86 7.05 2.95 7.05 6.86 7.05 6.79-2.69 6.79-7.05Zm16.59 29.09 7.24-16.53-13.39-27.55h10.89l7.76 17.04 7.05-17.04h10.31l-19.6 44.08h-10.26ZM16.98 125c8.96 0 14.16 5.19 14.16 12.18 0 4.67-2.95 8.52-6.67 9.74 4.1.96 8.07 4.74 8.07 10.64 0 7.43-5.64 12.87-14.22 12.87H0V125h16.98Zm-1.6 18.19c3.53 0 5.83-1.85 5.83-4.93s-1.98-4.86-5.95-4.86H9.88v9.8h5.51-.01Zm.84 18.97c3.91 0 6.28-2.04 6.28-5.32s-2.31-5.32-6.28-5.32H9.87v10.64h6.35Zm39.93-13.97c-1.09-.25-2.12-.32-3.07-.32-3.91 0-7.43 2.31-7.43 8.65v13.9h-9.74v-31.84h9.42v4.29c1.66-3.59 5.7-4.61 8.27-4.61.96 0 1.92.13 2.56.32v9.61h-.01Zm21.94 19.02c-1.66 2.76-5.32 3.91-8.52 3.91-7.76 0-12.11-5.64-12.11-12.43v-20.11h9.74v18.07c0 3.07 1.66 5.51 5.13 5.51 3.26 0 5.32-2.25 5.32-5.45v-18.13h9.74v26.14c0 2.88.25 5.19.32 5.7h-9.36c-.13-.57-.25-2.37-.25-3.2h-.01Zm21.52-12.68c0 5.07 3.39 7.88 7.43 7.88 3.78 0 5.89-2.37 6.6-4.74l8.58 2.63c-1.41 5.57-6.67 11.08-15.18 11.08-9.48 0-17.1-6.98-17.1-16.85s7.43-16.91 16.78-16.91c8.77 0 13.9 5.38 15.31 11.08l-8.71 2.63c-.7-2.44-2.63-4.74-6.41-4.74-4.04 0-7.3 2.82-7.3 7.95v-.03.02Zm54.12 6.73c-1.54 5.51-6.6 10.12-14.68 10.12-8.77 0-16.59-6.28-16.59-16.98s7.62-16.78 15.88-16.78c9.87 0 15.96 6.08 15.96 16.34 0 1.35-.13 2.82-.19 3.01h-22.17c.19 3.59 3.47 6.15 7.24 6.15 3.53 0 5.51-1.66 6.41-4.16l8.14 2.31Zm-8.84-10.58c-.13-2.44-1.79-5.38-6.41-5.38-4.1 0-6.15 3.01-6.35 5.38h12.76Z" style="fill:#202020;stroke-width:0"/><path d="M300.04 75.16h-25v25h25v-25Z" style="stroke-width:0;fill:#ff7a00"/><path d="M262.54 0h-100v25h100V0Zm0 37.5h-100v25h100v-25Zm0 37.5h-100v25h100V75ZM150.04 0h-100v100h100V0Z" style="fill:#002af0;stroke-width:0"/></svg>