<?xml version="1.0" encoding="UTF-8"?>
<svg id="Layer_1" data-name="Layer 1" xmlns="http://www.w3.org/2000/svg" viewBox="0 0 760.11 200">
  <defs>
    <style>
      .cls-1 {
        fill: #002af0;
      }

      .cls-2 {
        fill: #ff7a00;
      }

      .cls-3 {
        fill: #202020;
      }
    </style>
  </defs>
  <path class="cls-3" d="m500.41,124.99v-49.99h31.66v10.51h-20.51v9.51h18.61v9.79h-18.61v9.58h20.58v10.58h-31.73Zm47.34,0h-10.72v-35.04h10.37v4.02c1.9-3.31,6.2-4.93,9.79-4.93,8.82,0,12.76,6.27,12.76,13.96v21.99h-10.72v-20.16c0-3.45-1.83-6.06-5.71-6.06-3.52,0-5.78,2.61-5.78,6.13v20.09h.01Zm59.32-10.09c-1.69,6.06-7.27,11.14-16.15,11.14-9.65,0-18.26-6.92-18.26-18.68s8.38-18.47,17.48-18.47c10.86,0,17.56,6.69,17.56,17.98,0,1.48-.14,3.1-.21,3.31h-24.39c.21,3.95,3.81,6.76,7.96,6.76,3.88,0,6.06-1.83,7.06-4.58l8.96,2.54Zm-9.72-11.64c-.14-2.68-1.97-5.92-7.06-5.92-4.51,0-6.76,3.31-6.99,5.92h14.04Zm35.78-2.74c-1.2-.28-2.33-.35-3.38-.35-4.3,0-8.17,2.54-8.17,9.51v15.3h-10.72v-35.04h10.37v4.72c1.83-3.95,6.27-5.07,9.1-5.07,1.06,0,2.11.14,2.82.35v10.58h-.01Zm9.58,23.75c.7,3.38,3.52,5.85,7.54,5.85,5.35,0,8.68-2.61,8.68-8.96v-1.62c-1.27,1.9-4.3,3.95-9.37,3.95-9.3,0-16.29-7.33-16.29-17.06s6.69-17.13,16.29-17.13c5.71,0,8.75,2.54,9.72,4.37v-3.73h10.23v30.67c0,10.09-5.64,18.82-18.75,18.82-10.09,0-16.5-6.2-17.48-12.48l9.44-2.68h-.01Zm16.29-17.84c0-4.79-3.45-7.75-7.47-7.75s-7.54,2.96-7.54,7.75,3.24,7.75,7.54,7.75,7.47-2.96,7.47-7.75Zm18.26,32.01l7.96-18.19-14.74-30.32h11.99l8.54,18.75,7.75-18.75h11.34l-21.57,48.51h-11.27Zm-333.58-63.44c9.86,0,15.58,5.71,15.58,13.4,0,5.14-3.24,9.37-7.33,10.72,4.51,1.06,8.89,5.21,8.89,11.71,0,8.17-6.2,14.17-15.65,14.17h-20.16v-49.99h18.68Zm-1.76,20.02c3.88,0,6.41-2.04,6.41-5.42s-2.18-5.35-6.55-5.35h-5.92v10.79h6.06Zm.92,20.87c4.3,0,6.92-2.25,6.92-5.85s-2.54-5.85-6.92-5.85h-6.99v11.71h6.99Zm43.94-15.37c-1.2-.28-2.33-.35-3.38-.35-4.3,0-8.17,2.54-8.17,9.51v15.3h-10.72v-35.04h10.37v4.72c1.83-3.95,6.27-5.07,9.1-5.07,1.06,0,2.11.14,2.82.35v10.58h-.01Zm24.14,20.93c-1.83,3.03-5.85,4.3-9.37,4.3-8.54,0-13.33-6.2-13.33-13.68v-22.13h10.72v19.88c0,3.38,1.83,6.06,5.64,6.06,3.59,0,5.85-2.47,5.85-5.99v-19.95h10.72v28.77c0,3.17.28,5.71.35,6.27h-10.3c-.14-.63-.28-2.61-.28-3.52h0Zm23.68-13.96c0,5.57,3.73,8.68,8.17,8.68,4.16,0,6.48-2.61,7.27-5.21l9.44,2.89c-1.55,6.13-7.33,12.2-16.71,12.2-10.44,0-18.82-7.68-18.82-18.54s8.17-18.61,18.47-18.61c9.65,0,15.3,5.92,16.85,12.2l-9.58,2.89c-.77-2.68-2.89-5.21-7.06-5.21-4.44,0-8.03,3.1-8.03,8.75v-.03Zm59.56,7.4c-1.69,6.06-7.27,11.14-16.15,11.14-9.65,0-18.26-6.92-18.26-18.68s8.38-18.47,17.48-18.47c10.86,0,17.56,6.69,17.56,17.98,0,1.48-.14,3.1-.21,3.31h-24.39c.21,3.95,3.81,6.76,7.96,6.76,3.88,0,6.06-1.83,7.06-4.58l8.96,2.54Zm-9.72-11.64c-.14-2.68-1.97-5.92-7.06-5.92-4.51,0-6.76,3.31-6.99,5.92h14.04Z"/>
  <path class="cls-2" d="m300,125.16h-25v25h25v-25Z"/>
  <path class="cls-1" d="m262.5,50h-100v25h100v-25Zm0,37.5h-100v25h100v-25Zm0,37.5h-100v25h100v-25Zm-112.5-75H50v100h100V50Z"/>
</svg>