<svg width="160" height="161" viewBox="0 0 160 161" fill="none" xmlns="http://www.w3.org/2000/svg">
<g clip-path="url(#clip0_277_456)">
<path d="M159.981 80.5196C159.981 124.708 124.165 160.525 79.9827 160.525C35.7986 160.525 -0.017334 124.708 -0.017334 80.5196C-0.017334 36.3336 35.7986 0.516607 79.9827 0.516607C124.165 0.516607 159.981 36.3336 159.981 80.5196Z" fill="#00AFDB"/>
<path d="M73.0146 19.719C70.8242 19.719 69.0432 21.4933 69.0432 23.6885V57.6584C69.0432 59.8536 70.8242 61.6279 73.0146 61.6279C75.2028 61.6279 76.9815 59.8536 76.9815 57.6584V23.6885C76.9815 21.4933 75.2028 19.719 73.0146 19.719ZM99.5979 19.719C97.4098 19.719 95.6287 21.4933 95.6287 23.6885V72.8996C95.6287 75.0903 97.4098 76.8715 99.5979 76.8715C101.791 76.8715 103.565 75.0903 103.565 72.8996V23.6885C103.565 21.4933 101.791 19.719 99.5979 19.719ZM46.4291 38.7706C44.2364 38.7706 42.4599 40.5472 42.4599 42.7401V65.2835C42.4599 67.4696 44.2364 69.2508 46.4291 69.2508C48.6195 69.2508 50.3937 67.4696 50.3937 65.2835V42.7401C50.3937 40.5472 48.6195 38.7706 46.4291 38.7706ZM112.891 38.7706C110.703 38.7706 108.922 40.5472 108.922 42.7401V65.2835C108.922 67.4696 110.703 69.2508 112.891 69.2508C115.081 69.2508 116.855 67.4696 116.855 65.2835V42.7401C116.855 40.5472 115.081 38.7706 112.891 38.7706ZM59.7219 27.3371C57.5291 27.3371 55.7504 29.1137 55.7504 31.3067V61.4685C55.7504 63.6614 57.5291 65.4403 59.7219 65.4403C61.9123 65.4403 63.691 63.6614 63.691 61.4685V31.3067C63.691 29.1137 61.9123 27.3371 59.7219 27.3371ZM86.3097 31.1479C84.1147 31.1479 82.3382 32.9268 82.3382 35.1174V69.0918C82.3382 71.2779 84.1147 73.0591 86.3097 73.0591C88.4979 73.0591 90.2743 71.2779 90.2743 69.0918V35.1174C90.2743 32.9268 88.4979 31.1479 86.3097 31.1479ZM103.887 84.9632C103.887 87.3313 101.967 89.2467 99.5995 89.2467C97.2339 89.2467 95.3142 87.3313 95.3142 84.9632C95.3142 82.5997 97.2339 80.682 99.5995 80.682C101.967 80.682 103.887 82.5997 103.887 84.9632ZM131.887 109.991C131.887 105.746 128.776 102.206 124.39 102.206C120.005 102.206 116.966 105.673 116.966 109.918V109.991C116.966 114.229 120.073 117.771 124.463 117.771C128.846 117.771 131.887 114.304 131.887 110.059V109.991ZM124.39 122.787C116.755 122.787 111.273 117.1 111.273 110.059V109.991C111.273 102.95 116.827 97.1858 124.463 97.1858C132.101 97.1858 137.576 102.882 137.576 109.918V109.991C137.576 117.024 132.026 122.787 124.39 122.787ZM101.927 106.065C101.927 103.731 100.308 102.527 97.6554 102.527H92.2464V109.636H97.76C100.415 109.636 101.927 108.223 101.927 106.135V106.065ZM101.825 122.364L96.5227 114.45H92.2464V122.364H86.801V97.6114H98.1126C103.942 97.6114 107.445 100.689 107.445 105.778V105.853C107.445 109.845 105.294 112.359 102.143 113.526L108.191 122.364H101.825ZM74.3908 122.363V97.611H79.8339V122.363H74.3908ZM59.2813 122.718C55.535 122.718 51.7546 121.41 48.784 118.757L51.9957 114.901C54.2248 116.742 56.5608 117.911 59.3927 117.911C61.6196 117.911 62.9616 117.024 62.9616 115.577V115.506C62.9616 114.121 62.1109 113.418 57.9711 112.358C52.9965 111.084 49.7689 109.701 49.7689 104.79V104.719C49.7689 100.231 53.3764 97.2579 58.4328 97.2579C62.0404 97.2579 65.1224 98.3839 67.6268 100.406L64.7972 104.508C62.609 102.986 60.4527 102.065 58.3623 102.065C56.2765 102.065 55.1802 103.02 55.1802 104.223V104.301C55.1802 105.923 56.2401 106.448 60.5209 107.542C65.541 108.857 68.366 110.659 68.366 114.976V115.045C68.366 119.967 64.6198 122.718 59.2813 122.718ZM35.0795 122.788C27.7985 122.788 22.3872 117.164 22.3872 110.06V109.992C22.3872 102.949 27.6893 97.1847 35.291 97.1847C39.9653 97.1847 42.7517 98.7497 45.0536 101.009L41.5871 104.999C39.6742 103.272 37.734 102.207 35.2569 102.207C31.0876 102.207 28.0783 105.674 28.0783 109.919V109.992C28.0783 114.228 31.017 117.769 35.2569 117.769C38.0911 117.769 39.8198 116.637 41.7645 114.867L45.2288 118.372C42.6835 121.091 39.8539 122.788 35.0795 122.788Z" fill="white"/>
</g>
<defs>
<clipPath id="clip0_277_456">
<rect width="160" height="160" fill="white" transform="translate(0 0.5)"/>
</clipPath>
</defs>
</svg>
