<svg width="295" height="131" viewBox="0 0 295 131" fill="none" xmlns="http://www.w3.org/2000/svg">
<g clip-path="url(#clip0_288_902)">
<path d="M24.7 86.6C24.7 99.5 33.5 109.8 46.1 109.8C58.7 109.8 67.5 99.5 67.5 86.6C67.5 73.5 58.7 63.6 46.1 63.6C33.5 63.6 24.7 73.6 24.7 86.6ZM66.9 118.1C62.7 125.1 52.8 131 40.8 131C17.8 131 0.299988 112.4 0.299988 86.7C0.299988 60.9 17.7 42.4 40.7 42.4C53.5 42.4 63.2 48.3 67.4 55.5C67.4 52.7 67 45.8 67 39.5V2.5C66.9 1.1 68 0 69.4 0H88.2C89.6 0 90.7 1.1 90.7 2.5V126.3C90.7 127.7 89.6 128.8 88.2 128.8H69.4C68 128.8 66.9 127.7 66.9 126.3V118.1Z" fill="#00053D"/>
<path d="M122.9 77.6H160.3C159 69.1 151.9 62.1 141.9 62.1C131.9 62.2 124.7 68.6 122.9 77.6ZM123.5 93.6C124.8 103 132.1 110.5 142.7 110.5C149.1 110.5 155.2 108 158.7 103.1C159.2 102.4 160.1 101.9 161 102L180.7 104.1C182.4 104.3 183.4 106.1 182.7 107.6C174.8 123.5 159.8 130.9 142.3 130.9C117.3 130.9 98.5 112.3 98.5 86.6C98.5 60.8 116.9 42.3 142 42.3C164.5 42.3 184.9 57.6 185.8 91.3C185.8 92.6 184.8 93.6 183.5 93.6H123.5Z" fill="#00053D"/>
<path d="M254.4 64.7L294.7 125.9C295.5 127.1 294.6 128.7 293.2 128.7H268.1C267.3 128.7 266.5 128.3 266 127.5L238.4 83.1L211.7 127.5C211.3 128.2 210.5 128.7 209.6 128.7H185C183.6 128.7 182.7 127.1 183.5 125.9L223.4 63.6L185.4 2.8C184.7 1.6 185.6 0 187 0H211.9C212.8 0 213.6 0.5 214 1.2L240 45.1L265.9 1.3C266.3 0.6 267.1 0.1 268 0.1H292.2C293.6 0.1 294.5 1.7 293.7 2.9L254.4 64.7Z" fill="#59CBE8"/>
</g>
<defs>
<clipPath id="clip0_288_902">
<rect width="295" height="131" fill="white"/>
</clipPath>
</defs>
</svg>
