<svg width="490" height="112" viewBox="0 0 490 112" fill="none" xmlns="http://www.w3.org/2000/svg">
<g clip-path="url(#clip0_292_1003)">
<mask id="mask0_292_1003" style="mask-type:luminance" maskUnits="userSpaceOnUse" x="0" y="0" width="490" height="112">
<path d="M490 0.5H0V111.5H490V0.5Z" fill="white"/>
</mask>
<g mask="url(#mask0_292_1003)">
<path fill-rule="evenodd" clip-rule="evenodd" d="M110.977 47.81L155.103 0.5H0V47.81H110.977ZM268.046 111.562L268.302 0.631538L337.331 0.5L337.375 17.9507H287.012V47.9414H331.865V64.1205H287.012V95.2075H337.375V111.562H268.046ZM395.468 111.562L371.505 72.8022L365.396 79.5107L364.713 111.562H346.515V0.5H364.713V61.6213L391.965 33.0338H415.373L386.628 63.9453L416.271 111.562H395.468ZM490 33.0338H471.932V76.3974C471.932 95.0758 462.575 98.8466 455.401 98.8466C451.129 98.8466 446.986 98.5399 443.482 94.7691C439.624 90.8514 439.63 84.8693 439.636 78.8456L439.639 78.1074V33.0338H421.142V79.0281C421.142 88.4552 421.567 98.2329 427.55 104.81C433.06 110.773 439.935 113.447 449.717 113.447C460.312 113.447 468.088 108.712 472.231 100.074V111.562H490V33.0338ZM66.8513 111.562L110.977 64.2082H221.954V111.562H66.8513Z" fill="black"/>
</g>
</g>
<defs>
<clipPath id="clip0_292_1003">
<rect width="490" height="111" fill="white" transform="translate(0 0.5)"/>
</clipPath>
</defs>
</svg>
