<svg width="422" height="150" viewBox="0 0 422 150" fill="none" xmlns="http://www.w3.org/2000/svg">
<g clip-path="url(#clip0_292_1065)">
<path d="M178.649 80.2523C174.51 80.2523 172.381 83.6126 171.826 87.7271C171.217 92.2649 168.837 108.022 168.308 112.03C167.991 114.425 167.819 116.939 165.491 117.957C163.164 118.989 160.334 117.415 157.928 115.351C155.508 113.3 119.791 82.8718 119.791 82.8718C117.742 81.0857 115.163 80.239 112.703 80.239C107.308 80.239 102.125 83.5862 102.125 91.7755V142.512C102.125 146.468 104.915 148.995 108.247 148.995C111.923 148.995 114.304 146.56 114.832 142.988C114.832 142.988 118.76 118.804 119.236 116.105C119.791 112.97 120.281 110.509 123.309 109.57C126.046 108.723 128.638 110.31 132.486 113.684C136.281 117.005 168.454 146.071 168.454 146.071C170.913 148.148 172.712 148.995 176.189 148.995C179.35 148.995 185.089 147.698 185.089 138.04V87.489C185.089 82.7924 182.193 80.239 178.649 80.239V80.2523Z" fill="#00AAFF"/>
<path d="M408.763 134.323C380.73 140.355 348.663 133.913 348.663 114.081C348.663 99.0783 362.561 92.9794 373.51 92.1062C385.001 91.1933 393.98 93.6012 398.594 98.4036C401.477 101.394 400.671 105.495 395.011 105.826C389.788 106.143 380.002 106.447 371.843 106.752C367.215 106.924 364.742 109.398 364.742 112.732C364.742 115.377 366.726 118.394 372.055 118.42C379.685 118.46 399.057 118.579 408.684 118.606C415.031 118.619 418.165 115.06 418.165 107.757C418.165 96.181 407.679 78.6117 376.987 78.6117C349.178 78.6117 329.066 92.4634 329.066 115.126C329.066 147.248 376.313 157.052 410.945 145.118C414.225 143.994 417.2 141.639 416.248 137.961C415.415 134.706 412.757 133.463 408.777 134.336L408.763 134.323Z" fill="#00AAFF"/>
<path d="M83.5722 134.323C55.5385 140.355 23.4716 133.913 23.4716 114.081C23.4716 99.0783 37.3695 92.9794 48.3185 92.1062C59.7964 91.1933 68.7752 93.6012 73.4034 98.4036C76.2861 101.394 75.4927 105.495 69.8198 105.826C64.5966 106.143 54.798 106.447 46.6523 106.752C42.0241 106.924 39.5513 109.398 39.5513 112.732C39.5513 115.377 41.5349 118.394 46.8639 118.42C54.4938 118.46 73.8794 118.579 83.4929 118.606C89.8401 118.619 92.9741 115.06 92.9741 107.757C92.9741 96.181 82.4879 78.6117 51.7963 78.6117C23.9873 78.6117 3.87447 92.4634 3.87447 115.126C3.87447 147.248 51.1351 157.052 85.7541 145.118C89.0335 143.994 92.0088 141.639 91.0567 137.961C90.2236 134.706 87.5657 133.463 83.5854 134.336L83.5722 134.323Z" fill="#00AAFF"/>
<path d="M300.675 103.431C301.283 120.947 302.936 135.474 303.399 140.567C303.994 147.142 307.392 149.008 310.804 149.008C314.216 149.008 317.535 147.301 318.143 140.62C318.646 134.997 320.312 117.679 321.118 100.534C321.158 99.6472 320.536 99.2635 319.836 99.3826L301.587 102.333C301.058 102.452 300.662 102.889 300.688 103.418L300.675 103.431Z" fill="#00AAFF"/>
<path d="M310.857 78.5985C302.486 78.5985 300.04 85.1605 300.146 89.1824C300.159 89.9233 300.238 92.0004 300.357 94.567C300.384 95.1491 300.913 95.7047 301.614 95.6121L320.655 92.5163C321.264 92.3973 321.555 91.9474 321.581 91.4712C321.634 90.5715 321.647 89.6587 321.66 89.2221C321.766 85.3457 319.28 78.5853 310.857 78.5853V78.5985Z" fill="#00AAFF"/>
<path d="M282.863 106.527C276.516 106.527 256.932 106.672 244.396 106.712C238.313 106.725 236.792 109.993 236.792 112.705C236.792 115.06 238.419 118.103 244.092 118.394C252.74 118.857 263.729 119.36 268.806 119.624C275.643 119.981 275.735 123.487 273.421 126.504C268.78 132.55 257.487 136.506 245.784 136.506C230.472 136.506 213.625 127.787 213.625 113.975C213.625 101.023 228.038 86.7481 270.882 92.7677C274.651 93.2969 278.354 92.6222 279.279 89.1295C280.258 85.4251 277.851 83.0437 272.985 81.7605C263.279 79.2071 254.432 78.5985 245.969 78.5985C217.142 78.5985 194.014 92.3708 194.014 114.623C194.014 138.384 217.05 150 245.758 150C277.825 150 293.442 132.537 293.442 117.269C293.442 109.49 289.488 106.527 282.836 106.527H282.863Z" fill="#00AAFF"/>
<path fill-rule="evenodd" clip-rule="evenodd" d="M422 60.6192C365.457 22.8479 291.696 0 211.007 0C130.317 0 56.5435 22.8479 0 60.6192C56.2393 41.9122 121.986 30.3096 211.007 30.3096C300.027 30.3096 365.774 41.9122 422.013 60.6192H422Z" fill="#00AAFF"/>
</g>
<defs>
<clipPath id="clip0_292_1065">
<rect width="422" height="150" fill="white"/>
</clipPath>
</defs>
</svg>
