<svg width="502" height="125" viewBox="0 0 502 125" fill="none" xmlns="http://www.w3.org/2000/svg">
<g clip-path="url(#clip0_279_572)">
<path d="M163.127 111.458L161.321 104.034V103.733H160.719V104.034L158.913 111.458H163.026H163.127ZM168.544 119.083V119.384H165.334C165.334 119.384 165.233 119.183 165.133 119.083L164.03 114.367H158.211L157.107 119.083C157.107 119.083 157.107 119.283 156.907 119.384H153.696V119.083L157.809 103.432C158.411 101.526 160.418 100.422 162.324 101.024C163.428 101.426 164.33 102.228 164.732 103.432L168.845 119.083M188.308 114.468C188.308 115.872 187.806 117.176 186.803 118.18C185.398 119.283 183.593 119.885 181.787 119.685C180.282 119.685 178.777 119.484 177.373 119.183C177.072 119.183 176.871 118.982 176.871 118.681V116.474H180.382L181.686 116.574C182.489 116.574 183.292 116.474 183.894 115.973C184.395 115.571 184.596 114.869 184.496 114.267C184.496 113.866 184.395 113.364 184.094 113.063C183.593 112.562 182.991 112.16 182.389 111.759L179.078 109.853C178.395 109.5 177.783 109.024 177.272 108.448C176.857 108.024 176.548 107.509 176.369 106.943C176.136 106.256 176.042 105.53 176.094 104.806C176.146 104.083 176.342 103.377 176.67 102.73C177.139 101.984 177.846 101.419 178.677 101.125C179.78 100.723 181.085 100.523 182.288 100.523C183.091 100.523 183.994 100.523 184.997 100.623C185.699 100.623 186.402 100.824 187.104 100.924C187.305 100.924 187.505 101.125 187.505 101.325V103.432H187.204C185.398 103.231 183.793 103.231 182.288 103.231C180.784 103.231 179.68 103.833 179.68 105.037C179.68 105.439 179.78 105.84 180.081 106.141C180.583 106.542 181.085 106.943 181.686 107.244L184.596 108.95C185.699 109.451 186.602 110.254 187.305 111.257C187.829 112.133 188.074 113.148 188.007 114.167M194.428 118.982V119.384C194.428 119.484 194.227 119.584 194.026 119.584H191.719C191.719 119.584 191.418 119.584 191.318 119.384V105.94C191.318 105.94 191.518 105.439 191.819 105.439H194.127C194.127 105.439 194.628 105.639 194.628 105.94L194.327 118.982H194.428ZM194.428 103.031C194.428 103.031 194.428 103.332 194.227 103.432C194.227 103.432 194.026 103.532 193.926 103.532H191.117C191.017 103.532 190.916 103.332 190.916 103.131V100.924C190.916 100.924 190.916 100.623 191.117 100.523C191.117 100.523 191.318 100.422 191.518 100.422H193.926C193.926 100.422 194.327 100.623 194.428 100.924V103.031ZM205.965 111.257C205.965 110.655 205.965 110.154 205.664 109.652C205.459 109.217 205.132 108.853 204.721 108.603C204.311 108.353 203.836 108.23 203.356 108.248C202.654 108.248 201.952 108.549 201.45 109.05C200.949 109.652 200.648 110.555 200.748 111.358H206.065L205.965 111.257ZM209.275 112.963C209.275 112.963 209.075 113.565 208.774 113.565H200.648C200.648 114.367 200.848 115.17 201.35 115.772C201.952 116.474 202.754 116.775 203.657 116.675C205.162 116.675 206.567 116.675 208.272 116.474C208.573 116.474 208.774 116.474 208.774 116.875V118.481C208.774 118.481 208.674 119.083 208.373 119.083C207.57 119.283 206.868 119.384 206.065 119.384H203.457C202.754 119.384 202.052 119.384 201.45 119.083C200.735 118.85 200.059 118.512 199.444 118.079C198.748 117.469 198.198 116.711 197.833 115.86C197.468 115.01 197.299 114.088 197.337 113.163V111.358C197.337 109.652 197.839 107.947 198.942 106.743C200.146 105.539 201.751 104.937 203.356 105.037C204.46 105.037 205.563 105.338 206.567 105.84C207.47 106.341 208.172 107.144 208.573 108.047C209.075 109.05 209.275 110.154 209.275 111.358V112.862V112.963ZM230.042 118.982C230.042 118.982 230.042 119.283 229.942 119.384C229.942 119.484 229.741 119.584 229.541 119.584H227.334C227.334 119.584 227.033 119.584 226.932 119.384V110.455C226.932 110.455 226.932 109.451 226.732 108.95C226.732 108.649 226.431 108.348 226.13 108.248C225.829 108.047 225.428 108.047 225.026 108.047C224.224 108.047 223.421 108.248 222.719 108.649V118.982C222.719 118.982 222.719 119.283 222.619 119.384C222.619 119.484 222.418 119.584 222.217 119.584H219.91C219.91 119.584 219.609 119.584 219.508 119.384V108.95C219.508 108.649 219.308 108.348 219.007 108.248C218.706 108.047 218.305 108.047 217.903 108.047C217.101 108.047 216.298 108.448 215.596 108.85V119.384H212.486C212.486 119.384 212.185 119.384 212.085 119.183C211.984 119.183 211.884 118.982 211.884 118.782V105.84C211.884 105.84 212.085 105.338 212.385 105.338H214.593C214.593 105.338 215.094 105.539 215.094 105.74V106.341C215.596 106.04 216.198 105.74 216.8 105.439C217.402 105.238 218.004 105.138 218.606 105.138C219.709 105.138 220.813 105.439 221.515 106.241L222.819 105.639C222.819 105.639 223.622 105.338 224.123 105.238C224.625 105.138 225.127 105.037 225.628 105.138C226.832 105.037 228.136 105.539 228.839 106.542C229.541 107.746 229.842 109.05 229.741 110.455V118.882L230.042 118.982ZM241.479 111.257C241.479 110.655 241.479 110.154 241.178 109.652C240.966 109.22 240.657 108.842 240.275 108.549C239.75 108.264 239.149 108.149 238.556 108.221C237.963 108.293 237.407 108.548 236.965 108.95C236.463 109.552 236.162 110.455 236.263 111.257H241.58H241.479ZM244.79 112.963C244.79 112.963 244.79 113.565 244.288 113.565H236.062C236.062 114.367 236.263 115.17 236.764 115.772C237.366 116.374 238.169 116.775 238.971 116.675C240.476 116.675 241.881 116.675 243.586 116.474C243.887 116.474 244.088 116.474 244.088 116.875V118.481C244.088 118.481 243.987 119.083 243.686 119.083C242.884 119.183 242.182 119.384 241.379 119.384H238.771C238.068 119.384 237.366 119.384 236.764 119.083C236.049 118.85 235.373 118.512 234.758 118.079C234.062 117.469 233.511 116.711 233.147 115.86C232.782 115.01 232.613 114.088 232.651 113.163V111.358C232.551 109.652 233.152 107.947 234.256 106.743C235.46 105.539 236.965 104.937 238.67 105.037C239.774 105.037 240.877 105.338 241.881 105.84C242.784 106.341 243.486 107.144 243.887 108.047C244.489 109.151 244.69 110.254 244.69 111.458V112.862L244.79 112.963ZM259.237 118.982C259.237 118.982 259.237 119.283 259.136 119.384H256.428C256.428 119.384 256.127 119.384 256.026 119.183V109.151C256.026 108.85 255.725 108.448 255.424 108.348C254.902 108.063 254.313 107.924 253.719 107.947C252.716 107.947 251.712 108.348 250.809 108.85V119.283H248.101C248.101 119.283 247.8 119.283 247.699 119.083V105.84C247.699 105.84 247.9 105.338 248.201 105.338H250.408C250.408 105.338 250.91 105.539 250.91 105.74V106.341C252.138 105.556 253.565 105.138 255.023 105.138C256.327 104.937 257.631 105.539 258.434 106.642C259.136 107.947 259.337 109.351 259.237 110.856V118.982ZM271.877 115.772C271.877 116.474 271.677 117.176 271.275 117.778C270.874 118.38 270.272 118.882 269.67 119.183C268.868 119.584 267.965 119.685 266.962 119.685H264.855C264.052 119.685 263.25 119.484 262.547 119.283C262.246 119.283 262.046 118.982 262.046 118.681V116.875H262.347C263.751 117.076 265.156 117.176 266.56 117.176C267.062 117.176 267.563 117.176 267.965 116.875C268.266 116.675 268.366 116.374 268.366 115.973C268.366 115.772 268.366 115.471 268.165 115.371C267.864 115.17 267.664 114.869 267.363 114.769L263.952 112.662C263.377 112.175 262.929 111.555 262.648 110.856C262.253 110.261 262.044 109.563 262.046 108.85C262.046 106.341 263.651 105.138 266.761 105.138H269.169C269.871 105.138 270.573 105.338 271.175 105.539C271.476 105.539 271.677 105.84 271.677 106.141V107.646C271.677 107.646 271.677 108.147 271.275 108.147C269.871 107.947 268.567 107.846 267.162 107.846C266.661 107.846 266.259 107.846 265.858 108.047C265.727 108.134 265.621 108.254 265.551 108.395C265.48 108.536 265.448 108.692 265.457 108.85C265.457 109.05 265.457 109.151 265.657 109.251C265.958 109.451 266.159 109.652 266.46 109.853L269.771 111.859C270.373 112.16 270.874 112.562 271.275 113.063C271.576 113.464 271.877 113.866 271.978 114.367V115.672M288.029 116.374V113.464H286.424C285.822 113.464 285.321 113.464 284.719 113.665C284.318 113.765 284.017 114.066 283.916 114.367C283.716 114.769 283.615 115.17 283.716 115.571C283.716 116.073 283.716 116.474 284.117 116.775C284.518 116.976 285.02 117.176 285.521 117.076C286.424 117.076 287.327 116.875 288.029 116.374ZM291.34 119.083V119.484H288.832C288.832 119.484 288.33 119.283 288.33 118.982V118.581C287.227 119.283 286.023 119.685 284.819 119.685C283.816 119.685 282.712 119.384 281.91 118.782C281.455 118.391 281.107 117.892 280.896 117.331C280.686 116.77 280.62 116.164 280.706 115.571C280.706 114.769 280.907 113.866 281.308 113.163C281.809 112.461 282.512 111.96 283.314 111.759C284.418 111.358 285.622 111.257 286.826 111.257H288.431V110.154C288.431 109.552 288.33 108.95 287.929 108.549C287.399 108.187 286.764 108.01 286.123 108.047C284.719 108.047 283.415 108.047 282.01 108.248C281.709 108.248 281.508 108.248 281.508 107.846V106.241C281.508 106.241 281.709 105.84 282.01 105.74C283.314 105.539 284.719 105.439 286.123 105.439C287.127 105.439 288.13 105.639 289.033 105.94C289.835 106.241 290.437 106.843 290.939 107.545C291.34 108.348 291.641 109.251 291.541 110.154V119.183L291.34 119.083ZM306.088 118.982V119.384H303.379C303.379 119.384 303.078 119.384 302.978 119.183V110.856C302.978 110.254 302.978 109.652 302.877 109.151C302.877 108.85 302.576 108.549 302.275 108.348C301.718 108.062 301.096 107.924 300.47 107.947C299.466 107.947 298.463 108.348 297.56 108.85V118.882C297.56 118.882 297.36 119.384 297.059 119.384H294.751C294.751 119.384 294.45 119.384 294.35 119.183V105.84C294.35 105.84 294.551 105.338 294.851 105.338H297.46V106.241C298.629 105.409 300.039 104.986 301.473 105.037C302.777 104.837 304.081 105.439 304.884 106.542C305.586 107.846 305.887 109.251 305.787 110.655V118.982H306.088ZM317.224 116.775V107.947C316.421 107.846 315.618 107.746 314.816 107.746C314.013 107.746 313.211 108.047 312.709 108.649C312.308 109.451 312.107 110.354 312.107 111.257V113.163C312.107 114.066 312.207 114.969 312.709 115.772C313.211 116.374 314.013 116.775 314.816 116.675C315.618 116.675 316.421 116.675 317.224 116.474M320.534 118.28V118.681C320.334 118.782 320.133 118.882 319.932 118.882C319.13 119.083 318.227 119.283 317.424 119.384H314.916C314.11 119.433 313.302 119.316 312.542 119.04C311.783 118.764 311.088 118.334 310.502 117.778C309.416 116.496 308.876 114.839 308.997 113.163V111.257C308.997 110.053 309.198 108.95 309.699 107.846C310.089 106.923 310.803 106.174 311.706 105.74C312.709 105.238 313.913 104.937 315.017 104.937C315.819 104.937 316.622 104.937 317.424 105.138V101.024C317.424 101.024 317.625 100.523 317.926 100.523H320.233C320.233 100.523 320.735 100.723 320.735 101.024V118.28H320.534ZM338.693 111.458L336.887 104.034C336.887 104.034 336.887 103.833 336.787 103.733H336.185V104.034L334.379 111.458H338.693ZM344.11 119.083C344.11 119.083 343.91 119.484 343.709 119.484H340.8C340.8 119.484 340.699 119.283 340.599 119.183L339.496 114.468H333.677L332.573 119.183C332.573 119.183 332.573 119.384 332.373 119.484H329.162V119.183L333.275 103.532C333.877 101.626 335.884 100.523 337.79 101.125C338.894 101.526 339.796 102.329 340.198 103.532L344.311 119.183M356.952 118.882C356.952 118.882 356.751 119.384 356.551 119.384H354.644L353.44 119.685H351.835C350.832 119.685 349.829 119.584 348.926 119.283C348.122 118.994 347.423 118.469 346.919 117.778C346.418 116.775 346.117 115.772 346.217 114.668V105.84C346.217 104.736 346.418 103.633 346.919 102.629C347.393 101.91 348.103 101.378 348.926 101.125C349.829 100.824 350.832 100.723 351.835 100.723H354.745C355.347 100.723 355.949 100.723 356.551 101.024C356.651 101.024 356.852 101.024 356.952 101.125V103.432C356.952 103.532 356.751 103.633 356.551 103.633H351.233C350.732 103.633 350.13 103.733 349.729 104.134C349.428 104.636 349.227 105.238 349.327 105.84V108.549H356.45V111.458H349.327V114.668C349.327 115.27 349.327 115.872 349.729 116.374C350.13 116.775 350.732 116.875 351.233 116.875H356.149C356.149 116.875 356.651 117.076 356.651 117.377V119.083L356.952 118.882ZM371.599 114.468C371.599 115.872 371.097 117.176 370.094 118.18C368.69 119.283 366.984 119.785 365.178 119.685C363.674 119.685 362.169 119.484 360.764 119.183C360.463 119.183 360.263 118.982 360.263 118.681V116.474H365.078C365.881 116.474 366.683 116.374 367.285 115.872C367.787 115.471 367.987 114.769 367.887 114.167C367.887 113.765 367.787 113.264 367.486 112.963C366.984 112.461 366.382 112.06 365.78 111.659L362.47 109.752C361.868 109.351 361.266 108.85 360.664 108.348C360.249 107.924 359.94 107.409 359.761 106.843C359.527 106.156 359.434 105.43 359.485 104.706C359.537 103.982 359.733 103.276 360.062 102.629C360.563 101.927 361.266 101.325 362.068 101.024C363.272 100.623 364.476 100.422 365.68 100.422H368.389C369.091 100.422 369.793 100.523 370.496 100.723C370.796 100.723 370.997 100.924 370.897 101.225V103.432H370.596C368.79 103.231 367.185 103.131 365.68 103.131C364.175 103.131 363.072 103.733 363.072 104.937C363.072 105.338 363.272 105.74 363.473 106.04C363.974 106.442 364.476 106.843 365.078 107.144L367.987 108.85C369.091 109.351 369.994 110.154 370.696 111.157C371.198 112.06 371.499 113.063 371.499 114.066M391.864 118.782C391.864 118.782 391.664 119.183 391.263 119.384L389.758 119.685H387.35C386.547 119.685 385.745 119.584 384.942 119.384C384.14 119.083 383.337 118.681 382.635 118.18C381.845 117.602 381.25 116.797 380.929 115.872C380.478 114.689 380.274 113.426 380.327 112.16V108.649C380.327 107.345 380.528 106.141 380.929 104.937C381.309 104.016 381.892 103.193 382.635 102.529C383.337 102.028 384.039 101.626 384.942 101.325C385.745 101.125 386.547 100.924 387.45 100.924H389.156C389.758 100.924 390.259 100.924 390.661 101.125H391.363C391.764 101.125 391.965 101.426 391.965 101.727V103.432C391.965 103.432 391.764 103.934 391.463 103.934C389.958 103.934 388.554 103.733 387.551 103.733C386.547 103.733 385.544 104.034 384.842 104.837C384.14 105.84 383.738 107.144 383.839 108.448V112.361C383.839 115.471 385.042 116.976 387.45 116.976C388.353 116.976 389.657 116.976 391.363 116.775C391.664 116.775 391.864 116.976 391.864 117.277V118.982V118.782ZM402.8 113.464V111.458C402.8 110.555 402.599 109.752 402.097 108.95C401.64 108.426 400.996 108.101 400.303 108.045C399.609 107.989 398.921 108.205 398.385 108.649L398.085 108.95C397.598 109.694 397.352 110.57 397.382 111.458V113.464C397.382 114.367 397.583 115.17 398.085 115.973C398.586 116.574 399.389 116.875 400.191 116.775C400.994 116.775 401.696 116.474 402.198 115.872C402.685 115.128 402.93 114.253 402.9 113.364M406.211 113.364C406.211 114.468 406.01 115.571 405.508 116.574C405.107 117.477 404.305 118.28 403.502 118.782C401.496 119.785 399.088 119.785 396.981 118.782C396.092 118.281 395.389 117.507 394.974 116.574C394.494 115.574 394.253 114.474 394.272 113.364V111.458C394.272 110.354 394.473 109.251 394.974 108.248C395.376 107.345 396.078 106.542 396.981 106.04C398.987 104.937 401.496 104.937 403.502 106.04C404.405 106.542 405.107 107.345 405.508 108.248C405.91 109.251 406.211 110.354 406.211 111.458V113.364ZM426.877 118.982C426.877 118.982 426.877 119.283 426.777 119.384C426.777 119.484 426.576 119.584 426.376 119.584H424.068C424.068 119.584 423.767 119.584 423.667 119.384V110.455C423.667 110.455 423.667 109.451 423.466 108.95C423.466 108.649 423.165 108.348 422.864 108.248C422.563 108.047 422.162 108.047 421.761 108.047C420.958 108.047 420.156 108.248 419.453 108.649V118.982C419.453 118.982 419.453 119.283 419.353 119.384C419.353 119.484 419.152 119.584 418.952 119.584H416.644C416.644 119.584 416.343 119.584 416.243 119.384V110.455C416.243 109.953 416.243 109.451 416.143 108.95C416.143 108.649 415.942 108.348 415.641 108.248C415.34 108.047 414.939 108.047 414.538 108.047C413.735 108.047 412.932 108.448 412.23 108.85V118.982C412.23 118.982 412.23 119.283 412.13 119.384H409.421C409.421 119.384 409.12 119.384 409.02 119.183C409.02 119.183 408.919 118.982 408.919 118.782V105.84C408.919 105.84 409.12 105.338 409.421 105.338H412.029V106.241C412.531 105.84 413.133 105.639 413.735 105.338C414.337 105.138 414.939 105.037 415.541 105.037C416.644 105.037 417.748 105.338 418.45 106.141C418.851 105.94 419.353 105.74 419.754 105.539C420.156 105.338 420.557 105.238 421.059 105.138C421.56 105.037 422.062 104.937 422.563 105.037C423.868 104.937 425.072 105.439 425.874 106.442C426.476 107.646 426.777 108.95 426.777 110.354V118.982H426.877ZM438.415 113.464V111.558C438.415 110.655 438.314 109.752 437.813 108.95C437.578 108.621 437.257 108.363 436.886 108.203C436.514 108.044 436.106 107.99 435.706 108.047H433.298V116.875C434.101 116.976 434.903 117.076 435.706 117.076C436.508 117.076 437.311 116.775 437.813 116.173C438.214 115.371 438.415 114.468 438.415 113.565M441.725 113.364C441.725 114.568 441.525 115.672 441.023 116.775C440.633 117.698 439.92 118.448 439.017 118.882C438.013 119.384 436.809 119.684 435.706 119.584H433.298V123.998C433.298 123.998 433.097 124.5 432.796 124.5H430.489C430.489 124.5 429.987 124.299 429.987 123.998V106.141C430.188 106.04 430.389 105.94 430.589 105.94C432.195 105.539 433.9 105.238 435.606 105.238C436.809 105.238 437.913 105.439 438.916 106.04C439.819 106.542 440.521 107.244 440.923 108.248C441.324 109.351 441.625 110.455 441.525 111.558V113.364H441.725ZM451.657 116.374V113.464H450.052C449.45 113.464 448.949 113.464 448.347 113.665C447.945 113.765 447.644 114.066 447.544 114.367C447.343 114.769 447.343 115.17 447.343 115.571C447.343 116.073 447.444 116.474 447.745 116.775C448.146 117.076 448.648 117.176 449.149 117.076C450.052 117.076 450.955 116.875 451.657 116.374ZM454.968 119.083C454.968 119.083 454.767 119.584 454.466 119.584H451.958C451.958 119.584 451.758 119.384 451.858 119.183V118.782C450.754 119.484 449.551 119.885 448.347 119.885C447.343 119.885 446.24 119.584 445.437 118.982C444.983 118.592 444.634 118.093 444.424 117.531C444.213 116.97 444.148 116.365 444.233 115.772C444.233 114.969 444.434 114.066 444.835 113.364C445.337 112.662 446.039 112.16 446.842 111.96C447.945 111.558 449.149 111.458 450.353 111.458H451.958V110.354C451.958 109.752 451.858 109.151 451.457 108.749C450.953 108.418 450.349 108.276 449.751 108.348C448.347 108.348 447.042 108.348 445.638 108.549C445.337 108.549 445.136 108.549 445.136 108.147V106.542C445.136 106.542 445.337 106.141 445.638 106.04C447.042 105.74 448.447 105.639 449.751 105.639C450.754 105.639 451.758 105.84 452.661 106.141C453.463 106.442 454.065 107.044 454.466 107.746C454.968 108.549 455.169 109.451 455.068 110.354L454.868 119.083H454.968ZM469.816 118.982C469.816 118.982 469.816 119.283 469.716 119.384H467.007C467.007 119.384 466.706 119.384 466.606 119.183V110.856C466.606 110.254 466.606 109.652 466.505 109.151C466.505 108.85 466.204 108.549 465.903 108.348C465.502 108.147 465 108.047 464.499 108.147C463.496 108.147 462.492 108.549 461.589 109.05V119.083C461.589 119.083 461.389 119.584 461.088 119.584H458.78C458.78 119.584 458.479 119.584 458.379 119.384V105.84C458.379 105.84 458.58 105.338 458.881 105.338H461.088C461.088 105.338 461.589 105.439 461.589 105.74V106.241C462.817 105.455 464.245 105.038 465.703 105.037C467.007 104.937 468.311 105.439 469.114 106.542C469.816 107.846 470.117 109.251 470.017 110.655L469.816 118.882V118.982ZM484.162 105.84L480.049 120.487C479.848 121.29 479.547 122.092 479.046 122.795C478.695 123.355 478.165 123.78 477.541 123.998C476.738 124.299 475.835 124.4 474.932 124.4H473.528C473.127 124.4 472.725 124.299 472.324 124.199C471.923 124.199 471.722 123.998 471.722 123.798V122.193C471.722 122.193 471.722 121.992 471.923 121.892C471.923 121.892 472.123 121.791 472.324 121.791H476.036C476.337 121.791 476.538 121.49 476.638 121.29C476.839 120.989 477.039 120.688 477.039 120.286L477.24 119.484H476.839C476.839 119.484 475.936 119.384 475.534 119.083C475.026 118.651 474.702 118.04 474.631 117.377L471.321 105.94V105.74C471.321 105.74 471.521 105.338 471.822 105.338H474.631C474.631 105.338 474.732 105.539 474.832 105.639L477.34 115.772C477.34 115.772 477.541 116.374 477.741 116.374H477.942L480.651 105.639C480.651 105.639 480.952 105.138 481.152 105.238H483.962V105.539" fill="#706F6E"/>
<path d="M270.172 2.40824C270.272 1.30468 271.175 0.502092 272.178 0.502092H272.68C274.686 0.502092 276.024 0.869945 276.693 1.60565L321.237 54.8775V3.61212C321.237 2.50856 322.24 1.60565 323.444 1.60565H330.266C331.369 1.60565 332.272 2.50856 332.272 3.61212V75.6445C332.272 76.748 331.369 77.5506 330.266 77.5506H327.858C327.858 77.5506 327.256 77.35 327.055 77.1493L281.308 22.2723V74.3403C281.308 75.4438 280.505 76.3468 279.402 76.3468H272.279C271.747 76.3468 271.236 76.1354 270.86 75.7591C270.484 75.3828 270.272 74.8724 270.272 74.3403V2.40824H270.172ZM67.3175 3.61212C67.3175 2.50856 68.2204 1.60565 69.324 1.60565H76.3466C77.4502 1.60565 78.3531 2.50856 78.3531 3.61212V66.4147H107.347C108.45 66.4147 109.353 67.3176 109.353 68.4212V74.24C109.353 74.7721 109.142 75.2825 108.765 75.6587C108.389 76.035 107.879 76.2464 107.347 76.2464H69.2237C68.6915 76.2464 68.1812 76.035 67.8049 75.6587C67.4286 75.2825 67.2172 74.7721 67.2172 74.24C67.2172 74.24 67.2172 3.5118 67.2172 3.5118L67.3175 3.61212ZM124.402 3.61212C124.402 2.50856 125.305 1.60565 126.408 1.60565H133.531C134.635 1.60565 135.538 2.50856 135.538 3.61212V47.7545C135.538 58.3888 142.36 66.816 153.094 66.816C163.829 66.816 171.052 58.5895 171.052 47.9552V3.61212C171.052 2.50856 171.955 1.60565 173.059 1.60565H180.382C181.486 1.60565 182.389 2.50856 182.389 3.61212V48.4568C182.273 52.274 181.405 56.0308 179.833 59.5113C178.261 62.9917 176.017 66.1273 173.23 68.7377C170.442 71.348 167.166 73.3818 163.59 74.7221C160.014 76.0623 156.209 76.6827 152.392 76.5474C145.014 76.321 137.999 73.2888 132.78 68.069C127.56 62.8493 124.528 55.8351 124.301 48.4568V3.61212H124.402ZM390.861 0.502092C400.392 0.401768 409.722 3.9131 416.745 10.4341C417.648 11.1364 417.848 12.3403 417.146 13.2432L417.046 13.3435L416.845 13.5442L412.03 18.2594C411.327 19.2626 410.324 19.2626 409.321 18.2594C404.204 13.8451 397.683 11.337 390.962 11.2367C375.913 11.4374 363.874 23.8775 364.075 38.926C363.976 46.1612 366.751 53.1401 371.792 58.3313C376.832 63.5225 383.727 66.5018 390.962 66.6154C397.683 66.6154 404.204 64.0069 409.321 59.5927C410.023 58.9908 411.127 58.9908 411.829 59.5927L416.745 64.4082C417.547 65.2108 417.547 66.4147 416.745 67.3176C409.822 74.0393 400.492 77.8516 390.761 77.651C380.772 77.3283 371.3 73.1334 364.348 65.9534C357.396 58.7733 353.509 49.171 353.509 39.1768C353.509 29.1827 357.396 19.5804 364.348 12.4003C371.3 5.22026 380.772 1.02538 390.761 0.702739M44.845 1.60565H2.10716C1.84367 1.60565 1.58276 1.65755 1.33932 1.75839C1.09588 1.85922 0.87469 2.00702 0.688372 2.19333C0.312085 2.56962 0.10069 3.07997 0.10069 3.61212V9.43089C0.10069 10.5345 1.0036 11.4374 2.10716 11.4374H44.845C45.1085 11.4374 45.3694 11.3855 45.6129 11.2846C45.8563 11.1838 46.0775 11.036 46.2638 10.8497C46.4501 10.6634 46.5979 10.4422 46.6988 10.1987C46.7996 9.9553 46.8515 9.69439 46.8515 9.43089V3.61212C46.8515 3.34863 46.7996 3.08772 46.6988 2.84428C46.5979 2.60084 46.4501 2.37965 46.2638 2.19333C46.0775 2.00702 45.8563 1.85922 45.6129 1.75839C45.3694 1.65755 45.1085 1.60565 44.845 1.60565ZM44.845 1.60565H2.10716C1.84367 1.60565 1.58276 1.65755 1.33932 1.75839C1.09588 1.85922 0.87469 2.00702 0.688372 2.19333C0.312085 2.56962 0.10069 3.07997 0.10069 3.61212V9.43089C0.10069 10.5345 1.0036 11.4374 2.10716 11.4374H44.845C45.1085 11.4374 45.3694 11.3855 45.6129 11.2846C45.8563 11.1838 46.0775 11.036 46.2638 10.8497C46.4501 10.6634 46.5979 10.4422 46.6988 10.1987C46.7996 9.9553 46.8515 9.69439 46.8515 9.43089V3.61212C46.8515 3.34863 46.7996 3.08772 46.6988 2.84428C46.5979 2.60084 46.4501 2.37965 46.2638 2.19333C46.0775 2.00702 45.8563 1.85922 45.6129 1.75839C45.3694 1.65755 45.1085 1.60565 44.845 1.60565ZM10.8353 61.5992V74.5409C10.8353 75.0731 10.6239 75.5834 10.2476 75.9597C9.87135 76.336 9.361 76.5474 8.82885 76.5474H2.00684C1.47469 76.5474 0.964335 76.336 0.588048 75.9597C0.211762 75.5834 0.000366211 75.0731 0.000366211 74.5409L0.000366211 50.6639C0.000366211 40.9325 7.82561 33.1073 17.557 33.1073H44.7447C45.8483 33.1073 46.7512 34.0102 46.7512 35.1137V40.9325C46.7512 41.4647 46.5398 41.975 46.1635 42.3513C45.7872 42.7276 45.2769 42.939 44.7447 42.939H19.2625C14.7479 42.939 11.036 46.5506 10.6347 50.9649V61.4989L10.8353 61.5992ZM247.499 1.70598H204.761C204.229 1.70598 203.718 1.91737 203.342 2.29366C202.966 2.66994 202.754 3.1803 202.754 3.71245V9.73187C202.754 10.8354 203.657 11.7383 204.761 11.7383H247.499C248.031 11.7383 248.541 11.5269 248.918 11.1507C249.294 10.7744 249.505 10.264 249.505 9.73187V3.71245C249.505 3.1803 249.294 2.66994 248.918 2.29366C248.541 1.91737 248.031 1.70598 247.499 1.70598ZM247.499 43.24C248.031 43.24 248.541 43.0286 248.918 42.6523C249.294 42.276 249.505 41.7656 249.505 41.2335V35.4147C249.505 34.8826 249.294 34.3722 248.918 33.9959C248.541 33.6196 248.031 33.4082 247.499 33.4082H204.661C204.128 33.4082 203.618 33.6196 203.242 33.9959C202.865 34.3722 202.654 34.8826 202.654 35.4147V59.2917C202.654 68.9228 210.58 76.748 220.211 76.748H247.398C247.931 76.748 248.441 76.5367 248.817 76.1604C249.194 75.7841 249.405 75.2737 249.405 74.7416V68.9228C249.405 68.3907 249.194 67.8803 248.817 67.504C248.441 67.1277 247.931 66.9163 247.398 66.9163H221.916C217.402 66.9163 213.69 63.3047 213.288 58.8904V43.5409H247.398L247.499 43.24ZM482.055 1.70598H439.318C438.785 1.70598 438.275 1.91737 437.899 2.29366C437.522 2.66994 437.311 3.1803 437.311 3.71245V9.73187C437.311 10.8354 438.214 11.7383 439.318 11.7383H482.055C482.588 11.7383 483.098 11.5269 483.474 11.1507C483.85 10.7744 484.062 10.264 484.062 9.73187V3.71245C484.062 3.1803 483.85 2.66994 483.474 2.29366C483.098 1.91737 482.588 1.70598 482.055 1.70598ZM482.055 43.24C482.588 43.24 483.098 43.0286 483.474 42.6523C483.85 42.276 484.062 41.7656 484.062 41.2335V35.4147C484.062 34.8826 483.85 34.3722 483.474 33.9959C483.098 33.6196 482.588 33.4082 482.055 33.4082H439.318C438.785 33.4082 438.275 33.6196 437.899 33.9959C437.522 34.3722 437.311 34.8826 437.311 35.4147V59.2917C437.311 68.9228 445.237 76.748 454.868 76.748H482.055C482.588 76.748 483.098 76.5367 483.474 76.1604C483.85 75.7841 484.062 75.2737 484.062 74.7416V68.9228C484.062 68.3907 483.85 67.8803 483.474 67.504C483.098 67.1277 482.588 66.9163 482.055 66.9163H456.573C452.059 66.9163 448.347 63.3047 447.945 58.8904V43.5409H481.955L482.055 43.24ZM205.263 33.8095H207.47ZM440.02 33.8095H442.227ZM496.502 1.70598C493.693 1.70598 491.486 3.9131 491.486 6.72216C491.486 9.53122 493.693 11.7383 496.502 11.7383C499.311 11.7383 501.518 9.53122 501.518 6.72216C501.518 3.9131 499.311 1.70598 496.502 1.70598ZM496.502 10.9357C494.195 10.9357 492.288 9.0296 492.288 6.62183C492.288 4.21407 494.195 2.40824 496.602 2.40824C498.91 2.40824 500.816 4.31439 500.816 6.62183C500.816 8.92928 498.91 10.8354 496.602 10.8354L496.502 10.9357ZM498.308 9.23025H497.706L496.402 7.22378H495.599V9.12992C495.599 9.12992 495.599 9.33057 495.398 9.33057H494.997C494.997 9.33057 494.797 9.33057 494.797 9.12992V4.21407C494.797 4.21407 494.796 3.9131 495.097 3.9131H496.301C497.606 3.9131 498.308 4.31439 498.308 5.51827C498.308 6.22054 497.907 6.82248 497.204 6.9228L498.408 8.92928C498.408 8.92928 498.408 9.12992 498.208 9.12992V9.33057L498.308 9.23025ZM497.505 5.41795C497.505 4.81601 497.104 4.61536 496.301 4.61536H495.599V6.42119H496.301C497.204 6.42119 497.505 6.22054 497.505 5.6186V5.41795Z" fill="#1652A1"/>
</g>
<defs>
<clipPath id="clip0_279_572">
<rect width="501.618" height="124" fill="white" transform="translate(0.000366211 0.5)"/>
</clipPath>
</defs>
</svg>
