<svg xmlns="http://www.w3.org/2000/svg" xmlns:xlink="http://www.w3.org/1999/xlink" viewBox="0 0 681.4 131.4"><path d="M278.3 61c0 1.3-1.1 2.4-2.4 2.4h-4c-7.7 0-11.2 3.6-11.2 12.9v23.2c0 1.3-1.1 2.4-2.4 2.4h-10.4c-1.3 0-2.4-1.1-2.4-2.4V50.8c0-1.3 1.1-2.4 2.4-2.4h9.9c1.3 0 2.4 1.1 2.4 2.4v6.1c2.1-5.7 7.2-9.2 13.9-9.2.7 0 1.4 0 2.1.1 1.2.1 2.1 1.2 2.1 2.4V61zm16.9 8.4h23.9c-.8-5.4-5.4-9.8-11.8-9.8-6.3 0-10.9 4.1-12.1 9.8m.4 10.2c.8 5.9 5.5 10.7 12.2 10.7 3.9 0 7.7-1.5 10-4.3.6-.7 1.4-1.1 2.3-1l11 1.1c1.6.2 2.5 1.9 1.8 3.3-5.2 9.4-14.5 13.8-25.3 13.8-16 0-28-11.8-28-28.1S291.4 47 307.3 47c14.1 0 26.8 9.3 27.9 29.7.1 1.5-1.1 2.8-2.7 2.8h-36.9zm58.9-10.2h23.9c-.8-5.4-5.4-9.8-11.8-9.8s-10.9 4.1-12.1 9.8m.4 10.2c.8 5.9 5.5 10.7 12.2 10.7 3.9 0 7.7-1.5 10-4.3.6-.7 1.4-1.1 2.3-1l11 1.1c1.6.2 2.5 1.9 1.8 3.3-5.2 9.4-14.5 13.8-25.3 13.8-16 0-28-11.8-28-28.1S350.7 47 366.6 47c14.1 0 26.8 9.3 27.9 29.7.1 1.5-1.1 2.8-2.7 2.8h-36.9zm151-39.9c-.9 1.2-2.7 1.3-3.8.4-4.7-3.9-10.2-6.5-15.2-6.5-5.4 0-10.3 2.8-10.3 7.7 0 3.7 2.3 6.6 8.9 9.7l6.8 3.2c12.9 6.1 20.8 12.8 20.8 25.1s-10.4 24.1-28.3 24.1c-11.5 0-20.3-4.1-27.6-10.7-.9-.8-1.1-2.2-.4-3.2l5.9-8c.9-1.3 2.7-1.4 3.9-.4 5.7 4.9 12.3 7.7 17.8 7.7 7 0 11.3-3.8 11.3-8.9 0-5.6-5-8.7-12.8-12.4l-5.7-2.7c-11-5.1-17.8-12.6-17.8-22.8 0-14.3 12.8-23 27.3-23 8.7 0 17.6 4 25.1 9.9 1 .8 1.2 2.3.4 3.4l-6.3 7.4z" class="logo--greensync__text"/><path d="M532.2 101.8h-.9c-1 0-1.9-.6-2.3-1.6l-16.7-48.6c-.5-1.5.6-3.2 2.3-3.2h11.6c1.2 0 2.2.8 2.6 1.9l10.7 36.1 10.9-36.1c.3-1.1 1.4-1.9 2.6-1.9h11c1.6 0 2.8 1.6 2.2 3.2L546 110.2c-2.7 7.8-6.9 12-16.7 12h-10.6c-1.7 0-2.9-1.5-2.6-3.1l1.5-7.4c.2-1.2 1.3-2.1 2.6-2.1h6.1c3 0 4.9-1.2 5.9-4.2l.8-2.3c.2-.7-.2-1.3-.8-1.3M199.4 33.7c10 0 17.9 5 21.4 13.4.5 1.2 1.8 1.8 3 1.5l11.5-2.8c1.4-.4 2.2-1.9 1.6-3.3-6.6-15.1-21.4-23.7-37.5-23.7-24 0-42.9 17.6-42.9 42.2s18 42.2 41.4 42.2c14 0 23.2-7.9 26.3-12.7v8.9c0 1.3 1.1 2.4 2.4 2.4h8.4c1.3 0 2.4-1.1 2.4-2.4V69.1c0-4.3-3.5-7.7-7.7-7.7h-25.6c-1.3 0-2.3.9-2.6 2.1l-1.6 8c-.3 1.6.9 3.1 2.6 3.1h18.1c-2.2 6.9-9.9 13.6-21.3 13.6-14.6 0-25.9-10.3-25.9-27.3 0-15.5 10.6-27.2 26-27.2M431.6 47c-6.1 0-12.1 2.6-16.2 7.6v-3.8c0-1.3-1.1-2.4-2.4-2.4h-9.9c-1.3 0-2.4 1.1-2.4 2.4v48.6c0 1.3 1.1 2.4 2.4 2.4h10.4c1.3 0 2.4-1.1 2.4-2.4V67.2c2.9-3.6 6.9-6.1 11.3-6.1 4.8 0 9.1 2.8 9.1 9.6v28.7c0 1.3 1.1 2.4 2.4 2.4H449c1.3 0 2.4-1.1 2.4-2.4V66.8c0-12.4-8.3-19.8-19.8-19.8M602 47c-6.1 0-12.1 2.6-16.2 7.6v-3.8c0-1.3-1.1-2.4-2.4-2.4h-9.9c-1.3 0-2.4 1.1-2.4 2.4v48.6c0 1.3 1.1 2.4 2.4 2.4h10.4c1.3 0 2.4-1.1 2.4-2.4V67.2c2.9-3.6 6.9-6.1 11.3-6.1 4.8 0 9.1 2.8 9.1 9.6v28.7c0 1.3 1.1 2.4 2.4 2.4h10.4c1.3 0 2.4-1.1 2.4-2.4V66.8C621.8 54.4 613.5 47 602 47m54.2 42.7c-7.9 0-13.4-6.2-13.4-14.6 0-8.4 5.5-14.6 13.4-14.6 4.6 0 8.2 2.2 10.5 5.7.6 1 1.8 1.5 2.9 1.2l9.9-2.4c1.5-.4 2.2-2 1.6-3.4-4.3-9-14-14.6-25-14.6-15.9 0-28.4 11.8-28.4 28.1s12.6 28.1 28.4 28.1c11.1 0 20.8-5.5 25-14.5.7-1.4-.1-3-1.6-3.4l-10-2.5c-1.1-.3-2.3.2-2.9 1.2-2.2 3.6-5.8 5.7-10.4 5.7" class="logo--greensync__text"/><defs><path id="a" d="M59 7.5 47.4 63.8c-1 5.1 2.2 10 7.3 11.1.6.1 1.3.2 1.9.2 4.4 0 8.3-3.1 9.2-7.5l11.5-56.3c1-5.1-2.2-10-7.3-11.1-.6-.1-1.2-.2-1.8-.2-4.4 0-8.3 3.1-9.2 7.5"/></defs><clipPath id="b"><use xlink:href="#a" overflow="visible"/></clipPath><linearGradient id="c" x1="-254.316" x2="-253.316" y1="442.375" y2="442.375" gradientTransform="scale(-49.2342 49.2342) rotate(-61.011 -502.289 7.285)" gradientUnits="userSpaceOnUse"><stop offset="0" stop-color="#c1d400"/><stop offset=".319" stop-color="#c1d400"/><stop offset=".719" stop-color="#adc600"/><stop offset="1" stop-color="#9dbb00"/></linearGradient><path fill="url(#c)" d="M53.9 88.7 14.6 17.6l56.3-31.2 39.4 71.1z" clip-path="url(#b)"/><defs><path id="d" d="m29.5 36.1-5.7 27.7c-1 5.1 2.2 10 7.3 11.1.6.1 1.3.2 1.9.2 4.4 0 8.3-3.1 9.2-7.5l5.7-27.7c1-5.1-2.2-10-7.3-11.1-.6-.1-1.3-.2-1.9-.2-4.4 0-8.3 3.1-9.2 7.5"/></defs><clipPath id="e"><use xlink:href="#d" overflow="visible"/></clipPath><linearGradient id="f" x1="-254.316" x2="-253.316" y1="442.375" y2="442.375" gradientTransform="scale(-49.2342 49.2342) rotate(-61.011 -501.769 6.979)" gradientUnits="userSpaceOnUse"><stop offset="0" stop-color="#c1d400"/><stop offset=".319" stop-color="#c1d400"/><stop offset=".719" stop-color="#adc600"/><stop offset="1" stop-color="#9dbb00"/></linearGradient><path fill="url(#f)" d="M28.9 86.2 3.1 39.5l39.7-22 25.9 46.7z" clip-path="url(#e)"/><defs><path id="g" d="M0 65.7c0 5.2 4.2 9.4 9.4 9.4s9.4-4.2 9.4-9.4-4.2-9.4-9.4-9.4S0 60.5 0 65.7"/></defs><clipPath id="h"><use xlink:href="#g" overflow="visible"/></clipPath><linearGradient id="i" x1="-254.316" x2="-253.316" y1="442.375" y2="442.375" gradientTransform="scale(-49.2342 49.2342) rotate(-61.011 -501.254 6.676)" gradientUnits="userSpaceOnUse"><stop offset="0" stop-color="#c1d400"/><stop offset=".319" stop-color="#c1d400"/><stop offset=".719" stop-color="#adc600"/><stop offset="1" stop-color="#9dbb00"/></linearGradient><path fill="url(#i)" d="M4.4 83.1-8 60.7l22.4-12.4 12.4 22.4z" clip-path="url(#h)"/><defs><path id="j" d="m71.1 63.8-11.5 56.3c-1 5.1 2.2 10 7.3 11.1 5.1 1 10-2.2 11.1-7.3l11.5-56.3c1-5.1-2.2-10-7.3-11.1-.6-.1-1.3-.2-1.9-.2-4.4 0-8.3 3.1-9.2 7.5"/></defs><clipPath id="k"><use xlink:href="#j" overflow="visible"/></clipPath><linearGradient id="l" x1="-254.316" x2="-253.316" y1="442.371" y2="442.371" gradientTransform="scale(49.2342 -49.2342) rotate(-61.011 -503.163 3.59)" gradientUnits="userSpaceOnUse"><stop offset="0" stop-color="#c1d400"/><stop offset=".319" stop-color="#c1d400"/><stop offset=".719" stop-color="#adc600"/><stop offset="1" stop-color="#9dbb00"/></linearGradient><path fill="url(#l)" d="m83 42.7 39.7 71.7L66 145.8 26.3 74.1z" clip-path="url(#k)"/><defs><path id="m" d="M94.7 63.8 89 91.5c-1 5.1 2.2 10 7.3 11.1 5.1 1 10-2.2 11.1-7.3l5.7-27.7c1-5.1-2.2-10-7.3-11.1-.6-.1-1.3-.2-1.9-.2-4.4 0-8.3 3.1-9.2 7.5"/></defs><clipPath id="n"><use xlink:href="#m" overflow="visible"/></clipPath><linearGradient id="o" x1="-254.316" x2="-253.316" y1="442.371" y2="442.371" gradientTransform="scale(49.2342 -49.2342) rotate(-61.011 -502.643 3.284)" gradientUnits="userSpaceOnUse"><stop offset="0" stop-color="#c1d400"/><stop offset=".319" stop-color="#c1d400"/><stop offset=".719" stop-color="#adc600"/><stop offset="1" stop-color="#9dbb00"/></linearGradient><path fill="url(#o)" d="m108 45.2 26.2 47.3-40.1 22.3-26.2-47.4z" clip-path="url(#n)"/><defs><path id="p" d="M118.1 65.7c0 5.2 4.2 9.4 9.4 9.4s9.4-4.2 9.4-9.4-4.2-9.4-9.4-9.4-9.4 4.2-9.4 9.4"/></defs><clipPath id="q"><use xlink:href="#p" overflow="visible"/></clipPath><linearGradient id="r" x1="-254.316" x2="-253.316" y1="442.375" y2="442.375" gradientTransform="scale(49.2342 -49.2342) rotate(-61.011 -502.129 2.981)" gradientUnits="userSpaceOnUse"><stop offset="0" stop-color="#c1d400"/><stop offset=".319" stop-color="#c1d400"/><stop offset=".719" stop-color="#adc600"/><stop offset="1" stop-color="#9dbb00"/></linearGradient><path fill="url(#r)" d="m132.5 48.3 12.4 22.4-22.4 12.4-12.3-22.4z" clip-path="url(#q)"/></svg>