<?xml version="1.0" encoding="UTF-8"?><svg id="Layer_2" xmlns="http://www.w3.org/2000/svg" xmlns:xlink="http://www.w3.org/1999/xlink" viewBox="0 0 313.7 86.62"><defs><style>.cls-1{fill:url(#linear-gradient);}.cls-1,.cls-2,.cls-3,.cls-4,.cls-5{stroke-width:0px;}.cls-2{fill:#233f3f;}.cls-3{fill:#c9cd9d;}.cls-4{fill:url(#linear-gradient-2);}.cls-5{fill:url(#linear-gradient-3);}</style><linearGradient id="linear-gradient" x1="5.21" y1="64.65" x2="13.65" y2="36.27" gradientUnits="userSpaceOnUse"><stop offset=".3" stop-color="#ef7b10"/><stop offset=".61" stop-color="#ef7d10"/><stop offset=".84" stop-color="#f18711"/><stop offset="1" stop-color="#f39313"/></linearGradient><linearGradient id="linear-gradient-2" x1="23.5" y1="47.56" x2="28.34" y2="31.28" gradientUnits="userSpaceOnUse"><stop offset="0" stop-color="#f39313"/><stop offset=".3" stop-color="#f39313"/><stop offset=".6" stop-color="#f39514"/><stop offset=".74" stop-color="#f49c18"/><stop offset=".86" stop-color="#f7a920"/><stop offset=".95" stop-color="#fbbc2a"/><stop offset="1" stop-color="#feca33"/></linearGradient><linearGradient id="linear-gradient-3" x1="42.15" y1="72.26" x2="63.57" y2=".17" gradientUnits="userSpaceOnUse"><stop offset="0" stop-color="#ef7b10"/><stop offset="1" stop-color="#feca33"/></linearGradient></defs><g id="Layer_1-2"><path class="cls-2" d="M99.67,56.78v-26.7h4.37v22.51h9.12v4.2h-13.49Z"/><path class="cls-2" d="M122.8,30.07v26.7h-4.37v-26.7h4.37Z"/><path class="cls-2" d="M151.85,52.96c-2.85,2.73-6.06,4.1-9.63,4.1-3.81,0-7.06-1.33-9.73-4-2.67-2.66-4.01-5.88-4.01-9.64s1.33-6.95,4.01-9.62c2.67-2.68,5.91-4.02,9.73-4.02,3.55,0,7.02,1.54,10.41,4.63l-3.24,2.86c-2.44-2.17-4.83-3.26-7.17-3.26-2.56,0-4.75.92-6.59,2.75-1.84,1.83-2.76,4.05-2.76,6.66s.92,4.84,2.76,6.67,4.03,2.74,6.59,2.74c2.19,0,3.94-.53,5.26-1.58v-8.05h4.37v9.77Z"/><path class="cls-2" d="M162.16,45.54v11.23h-4.37v-26.7h4.37v11.23h9.19v-11.23h4.39v26.7h-4.39v-11.23h-9.19Z"/><path class="cls-2" d="M190.49,34.27v22.51h-4.35v-22.51h-6.05v-4.2h16.44v4.2h-6.05Z"/><path class="cls-2" d="M205.26,45.54v11.23h-4.37v-26.7h4.37v11.23h9.19v-11.23h4.39v26.7h-4.39v-11.23h-9.19Z"/><path class="cls-2" d="M247.26,33.75c2.68,2.68,4.02,5.89,4.02,9.64s-1.34,6.98-4.02,9.66c-2.68,2.68-5.92,4.01-9.74,4.01s-7.04-1.34-9.73-4.01c-2.68-2.68-4.02-5.9-4.02-9.66s1.34-6.96,4.02-9.64c2.68-2.68,5.93-4.02,9.73-4.02s7.06,1.34,9.74,4.02ZM237.53,33.96c-2.56,0-4.76.92-6.6,2.76-1.84,1.84-2.77,4.06-2.77,6.67s.92,4.85,2.77,6.69c1.84,1.84,4.04,2.76,6.6,2.76s4.77-.92,6.61-2.76c1.84-1.84,2.76-4.07,2.76-6.69s-.92-4.83-2.76-6.67c-1.84-1.84-4.04-2.76-6.61-2.76Z"/><path class="cls-2" d="M268.83,30.07h4.37v18.65c-.29,2.19-1.18,4.03-2.67,5.53-1.83,1.82-4.04,2.73-6.62,2.73s-4.79-.91-6.6-2.72c-1.81-1.81-2.71-3.98-2.71-6.5v-17.7h4.37v17.7c0,1.39.49,2.57,1.47,3.54s2.14,1.46,3.47,1.46,2.49-.49,3.46-1.46c.97-.97,1.46-2.15,1.46-3.54v-17.7Z"/><path class="cls-2" d="M285.9,43.48c-1.91-.63-3.47-1.56-4.67-2.77-1.21-1.21-1.81-2.7-1.81-4.48s.64-3.27,1.91-4.54c1.27-1.27,2.83-1.91,4.67-1.91s3.38.64,4.67,1.93c.71.69,1.35,1.88,1.91,3.59l-3.99,1.54c-.46-1.25-.81-2-1.07-2.25-.43-.42-.94-.63-1.53-.63s-1.09.22-1.53.65-.65.97-.65,1.62.21,1.19.63,1.62c.57.56,1.34,1.06,2.31,1.51,2.09.67,3.87,1.75,5.34,3.22,1.64,1.65,2.46,3.64,2.46,5.97s-.83,4.33-2.49,6c-1.66,1.67-3.68,2.51-6.08,2.51s-4.42-.85-6.08-2.56c-1.35-1.31-2.2-3.22-2.56-5.74l4.23-1.53c.24,2.21.73,3.68,1.45,4.39.83.83,1.81,1.24,2.96,1.24s2.16-.42,3-1.25c.84-.83,1.26-1.85,1.26-3.06s-.41-2.21-1.24-3.03c-.88-.88-1.91-1.56-3.11-2.04Z"/><path class="cls-2" d="M313.7,30.07v4.2h-10.59v7.04h10.59v4.23h-10.59v7.04h10.59v4.2h-14.95v-26.7h14.95Z"/><path class="cls-2" d="M74.14,12.91c-2.42-2.45-5.12-4.63-8.06-6.45l3.03,20.42,5.03-13.97Z"/><path class="cls-2" d="M80.03,20.37l-8.42,23.35,4.19,28.21c6.73-7.63,10.82-17.65,10.82-28.63,0-8.43-2.42-16.28-6.59-22.93Z"/><path class="cls-3" d="M11.63,23.61h11.42L42.82.01C19.13.27,0,19.55,0,43.31c0,2.42.21,4.79.59,7.11l11.04-13.18v-13.63Z"/><path class="cls-1" d="M11.63,37.24L.59,50.42c1.42,8.58,5.37,16.31,11.04,22.41v-35.58Z"/><path class="cls-4" d="M30.93,47.34c1.8-1.8,2.7-4.01,2.7-6.63s-.9-4.77-2.7-6.56c-1.8-1.8-3.94-2.7-6.42-2.7h-4.75v18.59h4.75c2.48,0,4.62-.9,6.42-2.7Z"/><path class="cls-5" d="M71.6,43.72l-10.53,29.19-17.95-49.31h8.58l9.37,25.58,8.03-22.3-3.03-20.42C59.46,2.37,51.66,0,43.31,0c-.16,0-.32,0-.49.01l-19.77,23.59h3.23c4.16.57,7.66,2.26,10.5,5.07,3.34,3.33,5,7.34,5,12.03s-1.68,8.78-5.05,12.15c-3.37,3.37-7.44,5.06-12.22,5.06h-4.75v21.74s0,0,0,0c6.78,4.41,14.87,6.97,23.56,6.97,12.94,0,24.55-5.68,32.49-14.68l-4.19-28.21Z"/></g></svg>