<svg width="230" height="230" viewBox="0 0 230 230" fill="none" xmlns="http://www.w3.org/2000/svg">
<g clip-path="url(#clip0_289_947)">
<circle cx="115" cy="115" r="107" fill="black" stroke="#FFCD34" stroke-width="16"/>
<path d="M48 116.783H50.8174C52.3661 124.097 54.8676 129.416 58.3217 132.739C61.7758 136.062 65.7326 137.723 70.1921 137.721C74.528 137.721 77.61 136.582 79.4381 134.303C81.2661 132.025 82.1804 129.626 82.181 127.108C82.181 124.178 81.2255 121.789 79.3145 119.939C78.0501 118.728 75.492 117.151 71.6401 115.207L65.4426 112.053C59.2927 108.931 54.9522 105.842 52.4212 102.785C49.8901 99.7274 48.6266 95.9537 48.6305 91.4637C48.6305 86.6894 50.3051 82.2323 53.6542 78.0923C57.0034 73.9524 62.1354 71.8827 69.0504 71.8832C72.5189 71.8759 75.966 72.4294 79.2603 73.5227C82.5469 74.6168 84.4243 75.1633 84.8926 75.1621C85.9505 75.1621 86.682 74.862 87.0871 74.2618C87.4925 73.6651 87.8191 72.8679 88.0696 71.8832H90.9471V93.1969H88.2533C86.9816 88.2101 84.7428 83.9158 81.5369 80.3141C78.3311 76.7123 74.4355 74.9106 69.8502 74.9089C66.6257 74.9089 64.0772 75.8095 62.2046 77.6106C60.3319 79.4118 59.3951 81.6017 59.3939 84.1804C59.3939 87.2723 60.2724 89.5827 62.0294 91.1116C63.7542 92.6746 67.619 94.9691 73.6239 97.995L80.8176 101.629C84.0217 103.255 86.5773 105.054 88.4843 107.025C92.0439 110.717 93.8237 115.203 93.8237 120.483C93.8237 125.413 92.6 130.794 88.7831 135.168C84.9662 139.541 78.1669 141 69.7503 141C67.7823 140.996 65.8184 140.819 63.8811 140.47C61.8795 140.108 59.916 139.558 58.0161 138.828L56.1458 138.136C55.7096 138.015 55.2893 137.915 54.8848 137.837C54.5459 137.767 54.2015 137.728 53.8557 137.721C52.8576 137.721 52.1721 138.005 51.7991 138.574C51.4262 139.142 51.0989 139.95 50.8174 140.998H48V116.783Z" fill="#FFCE34"/>
<path d="M117.46 110.477H96.2831V121.828H117.46V110.477Z" fill="#FFCE34"/>
<path d="M119.56 127.78C120.656 126.608 122.138 126.02 124.006 126.018C126.387 126.018 129.591 127.48 133.616 130.403C137.641 133.326 140.765 134.787 142.989 134.786C145.596 134.786 147.85 133.856 149.752 131.995C151.653 130.135 152.603 127.623 152.601 124.46C152.601 121.229 151.521 118.488 149.361 116.237C147.202 113.986 144.769 112.241 142.064 111.001C139.162 109.664 135.874 108.685 132.199 108.064C129.813 107.673 125.079 106.602 119.823 106.243L130.402 72.3862H162.334L158.046 85.1497H130.559L128.687 92.4722C136.388 92.7016 143.845 94.1773 148.638 96.1944C157.639 99.9746 161.57 107.765 161.57 117.409C161.57 124.447 157.853 129.613 152.487 134.157C147.121 138.702 140.385 140.978 132.27 140.978C128.164 140.978 124.746 140.163 122.016 138.534C119.286 136.904 117.92 134.753 117.918 132.082C117.918 130.389 118.466 128.956 119.56 127.783" fill="#FFCE34"/>
<path d="M167.553 73.2763C169.181 71.7588 171.099 71 173.308 71C175.456 71 177.36 71.7508 179.021 73.2524C180.681 74.754 181.51 77.2298 181.509 80.6798C181.509 81.7677 181.249 83.4054 180.73 85.593C180.211 87.7807 179.276 91.3662 177.925 96.3496C177.107 99.3523 176.549 101.853 176.251 103.852C175.953 105.851 175.475 109.868 174.816 115.904H171.998C171.079 108.299 170.461 103.603 170.145 101.814C169.829 100.026 169.196 97.5179 168.245 94.2907C167.04 90.1706 166.265 87.4223 165.919 86.0457C165.38 83.9053 165.111 82.2286 165.111 81.0157C165.111 77.3736 165.925 74.7938 167.553 73.2763ZM167.504 125.988C169.1 124.392 171.036 123.594 173.312 123.594C175.588 123.594 177.524 124.392 179.119 125.988C180.715 127.585 181.513 129.52 181.513 131.793C181.513 134.065 180.715 136 179.119 137.597C177.522 139.189 175.587 139.987 173.312 139.991C171.038 139.995 169.102 139.197 167.504 137.597C165.908 136.002 165.11 134.067 165.111 131.793C165.113 129.518 165.91 127.583 167.504 125.988Z" fill="#FFCE34"/>
<path d="M196.806 73.5619C198.184 73.5619 199.527 73.9166 200.834 74.6259C202.127 75.3205 203.192 76.3788 203.898 77.672C204.617 78.9231 204.997 80.3424 205 81.7879C205.003 83.2333 204.629 84.6543 203.916 85.9085C203.215 87.1976 202.163 88.2577 200.883 88.9631C199.642 89.6755 198.239 90.0502 196.811 90.0502C195.384 90.0502 193.981 89.6755 192.74 88.9631C191.463 88.2572 190.412 87.1983 189.711 85.911C188.997 84.657 188.623 83.2361 188.626 81.7905C188.629 80.345 189.009 78.9256 189.728 77.6746C190.435 76.3811 191.499 75.3227 192.793 74.6284C194.1 73.9191 195.439 73.5645 196.808 73.5645M196.808 74.5995C195.608 74.5995 194.437 74.9095 193.295 75.5296C192.164 76.1377 191.233 77.0647 190.617 78.1972C189.989 79.2902 189.657 80.5302 189.654 81.7931C189.651 83.056 189.977 84.2975 190.6 85.3935C191.213 86.5201 192.134 87.4461 193.254 88.062C194.337 88.6866 195.563 89.0152 196.811 89.0152C198.059 89.0152 199.286 88.6866 200.369 88.062C201.486 87.4447 202.405 86.5189 203.018 85.3935C203.64 84.2974 203.966 83.0563 203.964 81.7938C203.962 80.5312 203.632 79.2912 203.006 78.1972C202.393 77.0641 201.464 76.1368 200.334 75.5296C199.255 74.9259 198.043 74.606 196.808 74.5995ZM192.435 77.0173H196.613C198.021 77.0173 198.998 77.1878 199.544 77.5288C200.321 78.0176 200.709 78.6959 200.71 79.5638C200.715 80.0995 200.533 80.6198 200.196 81.0345C199.853 81.4642 199.336 81.7768 198.644 81.9723L200.222 84.8709C200.454 85.2892 200.692 85.6018 200.938 85.8087C201.082 85.9222 201.253 85.9946 201.434 86.0185V86.4132H198.642L196.272 82.1351H195.741V84.437C195.741 85.0963 195.828 85.5189 196.001 85.7047C196.174 85.8906 196.549 85.9951 197.126 86.0185V86.4132H192.25V86.0185C192.727 86.0185 193.035 85.9369 193.174 85.7738C193.365 85.5498 193.462 85.1042 193.462 84.437V78.956C193.462 78.3205 193.395 77.9159 193.26 77.7419C193.125 77.568 192.85 77.4575 192.435 77.4103V77.0173ZM195.745 81.546C195.962 81.5814 196.182 81.6011 196.402 81.6048C196.645 81.607 196.885 81.5573 197.107 81.4589C197.329 81.3606 197.527 81.2159 197.689 81.0345C198.047 80.6554 198.225 80.1478 198.226 79.5118C198.226 78.8605 198.058 78.3663 197.723 78.0292C197.388 77.6922 196.875 77.5237 196.183 77.5237H195.745V81.546Z" fill="#FFCE34"/>
<path d="M52.1461 158.809V148.194H48.3613V146.031H58.477V148.194H54.7257V158.809H52.1461Z" fill="white"/>
<path d="M62.5453 146.031V150.757C63.3334 149.819 64.2749 149.351 65.3698 149.351C65.8937 149.343 66.4129 149.45 66.8911 149.664C67.3428 149.874 67.6832 150.141 67.9123 150.466C68.1406 150.79 68.3002 151.158 68.3813 151.546C68.4658 151.942 68.5079 152.555 68.5074 153.383V158.807H66.0622V153.926C66.0622 152.958 66.0162 152.343 65.9241 152.081C65.834 151.825 65.6611 151.606 65.4329 151.46C65.1682 151.298 64.8618 151.218 64.5519 151.229C64.169 151.223 63.7922 151.327 63.4654 151.526C63.1379 151.735 62.8913 152.05 62.7664 152.418C62.618 152.814 62.5438 153.402 62.5438 154.18V158.81H60.0948V146.029L62.5453 146.031Z" fill="white"/>
<path d="M76.3612 155.858L78.7901 156.26C78.4769 157.157 77.9822 157.839 77.3059 158.307C76.6296 158.776 75.7853 159.01 74.7731 159.01C73.1676 159.01 71.9803 158.485 71.2109 157.434C70.6034 156.592 70.2994 155.531 70.2989 154.25C70.2989 152.718 70.6986 151.519 71.4981 150.652C72.2976 149.785 73.3094 149.351 74.5334 149.351C75.9063 149.351 76.99 149.805 77.7845 150.713C78.5791 151.621 78.9593 153.012 78.9252 154.885H72.8124C72.8292 155.61 73.0259 156.174 73.4024 156.577C73.5803 156.773 73.7983 156.929 74.0416 157.033C74.2849 157.137 74.5478 157.188 74.8124 157.182C75.1607 157.193 75.502 157.082 75.7771 156.868C76.0379 156.659 76.2358 156.322 76.3708 155.858M76.5051 153.392C76.4873 152.686 76.3053 152.149 75.959 151.781C75.7993 151.604 75.6038 151.464 75.3854 151.368C75.1671 151.273 74.931 151.226 74.6929 151.229C74.444 151.223 74.1969 151.272 73.9691 151.373C73.7413 151.473 73.5384 151.623 73.3749 151.811C73.0286 152.199 72.8582 152.726 72.8636 153.392H76.5051Z" fill="white"/>
<path d="M85.8965 158.809V146.029H91.3095C92.6705 146.029 93.66 146.143 94.2779 146.373C94.896 146.602 95.4189 147.034 95.7621 147.597C96.1376 148.201 96.3307 148.901 96.318 149.612C96.318 150.57 96.0377 151.363 95.4772 151.989C94.9166 152.616 94.0785 153.01 92.9629 153.171C93.4698 153.459 93.932 153.82 94.3351 154.242C94.6962 154.631 95.1838 155.322 95.7978 156.315L97.3525 158.808H94.2735L92.4182 156.027C91.7577 155.036 91.306 154.411 91.0631 154.151C90.8515 153.914 90.5863 153.732 90.2898 153.619C90.0172 153.524 89.5856 153.476 88.9948 153.475H88.4754V158.808L85.8965 158.809ZM88.4761 151.43H90.3774C91.6098 151.43 92.3796 151.378 92.6868 151.274C92.98 151.179 93.2332 150.989 93.4067 150.734C93.5813 150.479 93.6684 150.159 93.6679 149.777C93.6679 149.348 93.5534 149.001 93.3243 148.736C93.0953 148.471 92.7737 148.305 92.3596 148.236C92.1508 148.207 91.5257 148.192 90.4843 148.192H88.4806L88.4761 151.43Z" fill="white"/>
<path d="M98.7321 146.031H101.177V148.297H98.7321V146.031ZM98.7321 158.811V149.554H101.177V158.809H98.7321V158.811Z" fill="white"/>
<path d="M103.465 159.429L106.262 159.764C106.308 160.092 106.415 160.318 106.584 160.44C106.815 160.616 107.18 160.704 107.678 160.704C108.316 160.704 108.794 160.607 109.113 160.413C109.341 160.266 109.512 160.046 109.599 159.788C109.675 159.583 109.712 159.204 109.712 158.653L109.723 157.288C108.985 158.301 108.059 158.808 106.947 158.808C105.706 158.808 104.724 158.283 104 157.232C103.431 156.402 103.147 155.368 103.148 154.131C103.148 152.581 103.52 151.397 104.265 150.578C104.61 150.184 105.038 149.869 105.518 149.657C105.998 149.445 106.518 149.34 107.042 149.35C108.184 149.35 109.124 149.854 109.862 150.861V149.552H112.157V157.869C112.157 158.963 112.067 159.78 111.887 160.321C111.707 160.862 111.455 161.288 111.133 161.598C110.808 161.906 110.374 162.147 109.832 162.322C109.29 162.497 108.604 162.584 107.774 162.584C106.208 162.584 105.097 162.314 104.442 161.776C103.786 161.237 103.459 160.555 103.459 159.727C103.459 159.647 103.462 159.548 103.467 159.43M105.661 153.996C105.661 154.976 105.85 155.694 106.228 156.151C106.606 156.608 107.072 156.836 107.626 156.834C108.22 156.834 108.722 156.6 109.133 156.133C109.543 155.666 109.748 154.975 109.748 154.059C109.748 153.102 109.552 152.392 109.159 151.929C108.98 151.707 108.753 151.529 108.495 151.408C108.237 151.288 107.955 151.228 107.67 151.233C107.393 151.228 107.119 151.287 106.869 151.405C106.619 151.524 106.4 151.698 106.228 151.916C105.85 152.371 105.661 153.064 105.661 153.996Z" fill="white"/>
<path d="M116.995 146.031V150.757C117.784 149.819 118.725 149.351 119.82 149.351C120.344 149.343 120.863 149.45 121.341 149.664C121.793 149.874 122.133 150.141 122.362 150.466C122.591 150.79 122.75 151.158 122.831 151.546C122.915 151.942 122.958 152.555 122.958 153.383V158.807H120.513V153.926C120.513 152.958 120.467 152.343 120.374 152.081C120.284 151.825 120.112 151.607 119.884 151.46C119.619 151.298 119.312 151.217 119.002 151.229C118.619 151.224 118.243 151.327 117.916 151.526C117.589 151.735 117.342 152.05 117.217 152.418C117.069 152.814 116.995 153.402 116.995 154.18V158.81H114.546V146.029L116.995 146.031Z" fill="white"/>
<path d="M129.69 149.552V151.497H128.015V155.228C128.015 155.984 128.031 156.425 128.063 156.549C128.096 156.676 128.174 156.786 128.281 156.858C128.403 156.943 128.548 156.986 128.696 156.981C128.922 156.981 129.251 156.903 129.681 156.746L129.891 158.644C129.279 158.896 128.623 159.021 127.962 159.01C127.554 159.015 127.149 158.94 126.771 158.787C126.417 158.638 126.158 158.446 125.992 158.212C125.826 157.977 125.712 157.659 125.649 157.257C125.596 156.972 125.57 156.397 125.571 155.531V151.497H124.448V149.552H125.571V147.708L128.016 146.266V149.552H129.69Z" fill="white"/>
<path d="M138.157 158.809L135.132 146.031H137.783L139.696 154.808L142.031 146.031H145.117L147.333 154.956L149.271 146.031H151.863L148.797 158.809H146.024L143.515 149.255L140.973 158.809H138.157Z" fill="white"/>
<path d="M154.304 152.403L152.111 152.001C152.358 151.1 152.788 150.433 153.4 150C154.013 149.567 154.919 149.351 156.119 149.351C157.212 149.351 158.025 149.48 158.56 149.739C159.094 149.997 159.47 150.325 159.688 150.722C159.906 151.119 160.014 151.849 160.015 152.913L159.982 155.769C159.982 156.582 160.021 157.181 160.098 157.567C160.191 157.998 160.338 158.415 160.534 158.809H158.122C158.059 158.645 157.98 158.402 157.887 158.081C157.847 157.932 157.817 157.838 157.8 157.791C157.413 158.176 156.959 158.486 156.459 158.705C155.977 158.909 155.458 159.013 154.934 159.01C153.982 159.01 153.232 158.752 152.682 158.238C152.132 157.723 151.858 157.072 151.859 156.285C151.85 155.795 151.978 155.313 152.23 154.893C152.482 154.484 152.849 154.157 153.285 153.955C153.734 153.739 154.383 153.55 155.23 153.387C156.373 153.174 157.164 152.975 157.604 152.793V152.547C157.604 152.074 157.487 151.737 157.253 151.535C157.019 151.333 156.578 151.232 155.93 151.233C155.49 151.233 155.148 151.32 154.902 151.493C154.657 151.666 154.459 151.971 154.309 152.407M157.607 154.386C157.294 154.489 156.798 154.613 156.119 154.757C155.441 154.902 154.997 155.043 154.787 155.18C154.468 155.405 154.309 155.69 154.309 156.034C154.308 156.2 154.341 156.364 154.407 156.516C154.473 156.667 154.57 156.804 154.692 156.916C154.821 157.04 154.974 157.136 155.142 157.2C155.309 157.264 155.488 157.294 155.667 157.287C156.123 157.282 156.565 157.131 156.928 156.856C157.207 156.661 157.412 156.378 157.511 156.053C157.576 155.846 157.607 155.452 157.607 154.87L157.607 154.386Z" fill="white"/>
<path d="M161.233 149.552H163.831L166.033 156.129L168.185 149.552H170.714L166.875 160.091C166.715 160.524 166.51 160.938 166.263 161.328C166.084 161.597 165.858 161.831 165.595 162.02C165.312 162.211 164.998 162.351 164.667 162.434C164.26 162.537 163.841 162.587 163.42 162.582C162.956 162.583 162.493 162.533 162.039 162.434L161.819 160.522C162.159 160.594 162.505 160.632 162.853 160.636C163.419 160.636 163.84 160.468 164.114 160.131C164.409 159.749 164.622 159.31 164.74 158.842L161.233 149.552Z" fill="white"/>
<path d="M173.278 155.522L172.643 149.031V146.031H175.29V149.031L174.663 155.522H173.278ZM172.743 158.809V156.357H175.189V158.809H172.743Z" fill="white"/>
<path d="M180.044 145.905C179.398 145.905 178.845 146.135 178.387 146.595C177.932 147.053 177.704 147.605 177.704 148.253C177.704 148.906 177.93 149.463 178.383 149.923C178.839 150.382 179.393 150.612 180.044 150.612C180.695 150.612 181.249 150.382 181.704 149.923C182.16 149.463 182.388 148.906 182.388 148.253C182.388 147.605 182.16 147.053 181.704 146.595C181.246 146.135 180.693 145.905 180.044 145.905ZM182.774 148.253C182.774 149.008 182.508 149.652 181.975 150.186C181.443 150.72 180.799 150.987 180.044 150.987C179.289 150.987 178.646 150.72 178.116 150.186C177.589 149.654 177.325 149.01 177.325 148.253C177.325 147.504 177.591 146.863 178.123 146.332C178.653 145.803 179.294 145.538 180.044 145.538C180.799 145.538 181.443 145.803 181.975 146.332C182.508 146.861 182.774 147.501 182.774 148.253ZM180.757 147.66C180.757 147.442 180.69 147.296 180.556 147.222C180.425 147.148 180.213 147.111 179.921 147.111H179.472V148.194H179.947C180.17 148.194 180.337 148.172 180.449 148.127C180.654 148.046 180.757 147.89 180.757 147.66ZM179.992 146.751C180.363 146.751 180.636 146.787 180.809 146.859C181.119 146.987 181.273 147.239 181.273 147.615C181.273 147.882 181.176 148.079 180.98 148.205C180.876 148.272 180.731 148.32 180.545 148.35C180.781 148.387 180.953 148.484 181.062 148.643C181.171 148.801 181.225 148.956 181.225 149.106V149.325C181.225 149.395 181.228 149.469 181.232 149.548C181.237 149.627 181.246 149.679 181.258 149.704L181.277 149.741H180.783C180.781 149.731 180.778 149.721 180.776 149.711C180.773 149.701 180.771 149.69 180.768 149.678L180.757 149.581V149.344C180.757 148.998 180.663 148.769 180.475 148.658C180.363 148.593 180.168 148.561 179.888 148.561H179.472V149.741H178.944V146.751H179.992Z" fill="white"/>
</g>
<defs>
<clipPath id="clip0_289_947">
<rect width="230" height="230" fill="white"/>
</clipPath>
</defs>
</svg>
