<svg width="388" height="125" viewBox="0 0 388 125" fill="none" xmlns="http://www.w3.org/2000/svg">
<g clip-path="url(#clip0_274_446)">
<path d="M209.634 47.3215C200.651 47.3215 193.228 54.4412 193.228 63.6243C193.228 72.8044 200.651 79.9246 209.634 79.9246C218.618 79.9246 226.041 72.8044 226.041 63.6243C226.041 54.4412 218.618 47.3215 209.634 47.3215ZM209.605 72.5559C205.142 72.5559 201.026 69.2766 201.026 63.6541C201.026 58.0334 205.142 54.7542 209.605 54.7542C214.063 54.7542 218.181 58.0334 218.181 63.6541C218.181 69.2766 214.063 72.5559 209.605 72.5559Z" fill="#222222"/>
<path d="M372.273 47.3215C364.537 47.3215 356.958 52.0359 356.958 61.3752V79.239H365.038V62.3733C365.038 57.033 368.656 54.7542 372.335 54.7542C376.017 54.7542 379.54 57.033 379.54 62.3733V79.239H387.619V61.3752C387.619 52.0359 379.977 47.3215 372.273 47.3215Z" fill="#222222"/>
<path d="M250.476 47.3215C242.74 47.3215 235.16 52.0359 235.16 61.3752V79.239H243.238V62.3733C243.238 57.033 246.858 54.7542 250.538 54.7542C254.22 54.7542 257.743 57.033 257.743 62.3733V79.239H265.821V61.3752C265.821 52.0359 258.179 47.3215 250.476 47.3215Z" fill="#222222"/>
<path d="M291.484 47.3215C283.749 47.3215 276.169 52.0359 276.169 61.3752V79.239H284.249V62.3733C284.249 57.033 287.867 54.7542 291.546 54.7542C295.228 54.7542 298.752 57.033 298.752 62.3733V79.239H306.83V61.3752C306.83 52.0359 299.188 47.3215 291.484 47.3215Z" fill="#222222"/>
<path d="M332.156 47.3206C323.074 47.3206 315.949 54.4172 315.949 63.6072C315.949 72.7966 322.853 79.9255 332.029 79.9255C338.233 79.9255 342.979 76.9592 345.767 73.0198C345.806 72.9622 340.103 69.3401 340.073 69.384C338.433 71.6858 335.713 73.1741 332.312 73.1741C327.709 73.1741 324.702 70.1404 323.825 66.2952H347.62C347.62 66.2952 347.838 64.9319 347.838 63.6072C347.838 54.3601 341.143 47.3206 332.156 47.3206ZM323.953 60.4612C325.003 56.4622 328.347 54.2175 332.124 54.2175C335.782 54.2175 339.211 56.3792 340.293 60.4612H323.953Z" fill="#222222"/>
<path d="M176.449 60.844L169.446 58.9885C167.974 58.5862 167.209 57.5325 167.209 56.5437C167.209 54.9963 168.885 54.0325 171.387 54.0325C174.26 54.0325 177.96 55.1755 179.531 57.9124L184.864 54.3772C182.48 49.6101 177.037 47.322 171.8 47.322C165.56 47.322 159.588 50.4773 159.588 56.5115C159.588 61.2468 162.617 63.9373 168.061 65.4231L174.893 67.3015C176.747 67.7961 177.53 68.8337 177.53 70.0959C177.53 71.7058 175.754 73.157 172.535 73.157C169.092 73.157 165.27 71.6116 163.612 68.4607L158.205 72.0461C160.823 77.4294 166.591 79.9041 172.124 79.9041C179.187 79.9041 185.131 76.1301 185.131 70.1257C185.131 65.1448 182.099 62.3596 176.449 60.844Z" fill="#222222"/>
<path d="M62.0438 1.5C28.6718 1.5 1.61853 28.5867 1.61853 62C1.61853 95.4133 28.6718 122.5 62.0438 122.5C95.4157 122.5 122.469 95.4133 122.469 62C122.469 28.5867 95.4157 1.5 62.0438 1.5ZM64.4303 118.09C35.2821 118.09 11.6529 94.4313 11.6529 65.2473C11.6529 36.063 35.2821 12.4043 64.4303 12.4043C93.5786 12.4043 117.208 36.063 117.208 65.2473C117.208 94.4313 93.5786 118.09 64.4303 118.09Z" fill="#222222"/>
</g>
<defs>
<clipPath id="clip0_274_446">
<rect width="387" height="124" fill="white" transform="translate(0.61853 0.5)"/>
</clipPath>
</defs>
</svg>
