<svg width="491" height="56" viewBox="0 0 491 56" fill="none" xmlns="http://www.w3.org/2000/svg">
<g clip-path="url(#clip0_288_925)">
<path d="M408.894 24.8347C411.018 23.455 413.388 22.3999 415.839 21.6695V49.426C413.061 55.8376 390.839 55.4318 386.346 55.4318C381.853 55.4318 359.713 55.8376 356.853 49.426V42.8521C356.853 41.1478 357.752 39.6057 359.141 38.6318C361.265 37.2521 363.634 36.197 366.085 35.4666V45.5304C366.085 45.6115 366.412 47.3159 386.346 47.3159C406.607 47.3159 406.607 45.5304 406.607 45.5304V28.9739C406.607 27.2695 407.505 25.7275 408.894 24.8347ZM386.264 0.243404C381.771 0.243404 359.631 -0.162374 356.772 6.24922V34.0869C359.222 33.3565 361.51 32.3014 363.716 30.9217C365.186 30.0289 366.003 28.4057 366.003 26.7014V10.0637C366.003 10.0637 366.003 8.19704 386.264 8.19704C406.525 8.19704 406.525 10.0637 406.525 10.0637V20.2086C408.976 19.4782 411.264 18.4231 413.469 17.0434C414.94 16.1507 415.757 14.5275 415.757 12.8231V6.24922C412.979 -0.162374 390.839 0.243404 386.264 0.243404ZM122.873 45.5304C122.873 45.5304 122.873 47.3159 103.02 47.3159C83.1677 47.3159 83.1677 45.5304 83.1677 45.5304V0.973858H73.9359V49.3449C76.7136 55.7564 98.6085 55.3507 103.02 55.3507C107.513 55.3507 129.245 55.7564 132.104 49.3449V0.973858H122.873V45.5304ZM481.523 0.973858V43.0144L459.71 21.3449L437.979 43.0144V0.973858H429.319V54.7014H435.446C436.916 54.7014 438.305 54.1333 439.367 53.0782L459.792 32.7072L480.298 53.0782C481.36 54.1333 482.749 54.7014 484.219 54.7014H490.346V1.055H481.523V0.973858ZM272.623 22.968H248.278C246.562 22.968 245.01 23.8608 244.029 25.2405C242.804 27.1883 241.824 29.2985 241.17 31.4898H266.333C266.333 31.4898 267.313 31.4898 267.313 38.7941C267.313 45.1246 266.333 45.1246 266.333 45.1246H226.546C226.546 45.1246 224.831 45.1246 224.831 27.8376C224.831 10.5507 226.546 10.5507 226.546 10.5507H267.476C269.356 10.5507 271.071 9.65791 272.052 8.11588C273.44 5.92457 274.584 3.57094 275.319 1.055H221.726C215.844 3.6521 216.171 23.8608 216.171 27.9188C216.171 31.9767 215.844 52.1854 221.726 54.7014H272.705C276.136 53.1593 275.973 41.2289 275.973 38.8753C275.973 36.5217 276.136 24.5101 272.623 22.968ZM340.024 31.4898C343.455 29.9478 343.291 18.6666 343.291 16.2318C343.291 13.797 343.537 2.51589 340.024 0.973858H288.881V10.5507H333.733C333.733 10.5507 334.713 10.5507 334.713 16.313C334.713 23.0492 333.733 23.0492 333.733 23.0492H288.881V54.7825H297.623V31.5709H312.165L333.815 53.0782C334.877 54.1333 336.266 54.7014 337.654 54.7014H348.602L325.318 31.4898H340.024ZM49.6719 22.968H11.4376C9.96702 22.968 8.74157 21.7507 8.74157 20.2898C8.74157 20.2898 8.74157 20.2898 8.74157 20.2086V13.2289C8.74157 11.768 9.88533 10.5507 11.3559 10.4695H11.4376H52.4496C54.3286 10.4695 56.0442 9.57674 57.0246 8.03471C58.4134 5.84341 59.5572 3.4898 60.2925 0.973858H11.4376C0.081665 0.973858 0.081665 10.7941 0.081665 10.7941V21.6695C0.081665 21.6695 0.081665 31.4898 11.4376 31.4898H49.6719C51.1424 31.4898 52.4496 32.626 52.4496 34.1681V34.2492V42.3652C52.4496 43.826 51.3058 45.1246 49.7535 45.1246H49.6719H8.00629C6.12725 45.1246 4.41162 46.0173 3.43125 47.5594C2.0424 49.7507 0.898637 52.1043 0.163363 54.6202H49.7535C61.1095 54.6202 61.1095 44.7999 61.1095 44.7999V32.7883C61.0278 32.7883 61.0278 22.968 49.6719 22.968ZM195.338 42.3652L155.388 2.67819C154.326 1.62311 152.937 1.055 151.467 1.055H145.584V54.7825H154.816V13.4724L194.766 53.1594C195.828 54.2144 197.217 54.7825 198.687 54.7825H204.57V1.055H195.338V42.3652Z" fill="#EE7203"/>
</g>
<defs>
<clipPath id="clip0_288_925">
<rect width="491" height="56" fill="white"/>
</clipPath>
</defs>
</svg>
