<?xml version="1.0" encoding="utf-8"?>
<!-- Generator: Adobe Illustrator 28.3.0, SVG Export Plug-In . SVG Version: 6.00 Build 0)  -->
<svg version="1.1" id="Layer_1" xmlns="http://www.w3.org/2000/svg" xmlns:xlink="http://www.w3.org/1999/xlink" x="0px" y="0px"
	 viewBox="0 0 177.9 64.4" style="enable-background:new 0 0 177.9 64.4;" xml:space="preserve">
<style type="text/css">
	.st0{fill:#F6A130;}
	.st1{fill:#0C84C3;}
	.st2{fill:#0E86C3;}
	.st3{fill:#F6A131;}
	.st4{fill:#FFFDFC;}
	.st5{fill:#9AC8E5;}
	.st6{fill:#11562E;}
	.st7{fill:#135427;}
</style>
<g>
	<path class="st0" d="M25.8,57.7c0.3,0.4,0.6,0.8,1,1.2l0.1,0.1l0.2,0.1l0.1,0.1c1.7,1,4.6,0.4,5.8-1.6c0.5-0.9,0.8-1.8,1-2.8
		c0.2-1.4,0.4-2.9,0.6-4.3c0.2-1.7,0.4-3.3,0.6-5c0.1-0.7,0.2-1.4,0.3-2.1h5c0,0.2-0.1,0.3-0.1,0.5c-0.1,0.9-0.2,1.8-0.3,2.7
		c-0.1,0.9-0.2,1.8-0.3,2.6c-0.1,1.1-0.3,2.2-0.4,3.3c-0.1,1-0.3,2-0.3,2.9c0,0.8-0.4,1.4-0.3,2.2c0.1,0.6-0.3,1.2-0.2,1.8
		c0,0.3,0,0.7,0,1l0,0.2c-0.5,1-0.2,2.1-0.6,3.1h-4.6c0.1-0.6,0.1-1.3,0.2-2c-0.2,0.2-0.3,0.2-0.4,0.3c-0.6,0.7-1.2,1.2-2.1,1.6
		c-0.7,0.3-1.4,0.4-2,0.7h-2.6c-0.2-0.1-0.5-0.1-0.7-0.2c-0.8-0.3-1.6-0.6-2.4-1c-0.5-0.2-0.9-0.5-1.3-0.9c-0.7-0.8-1.4-1.6-1.7-2.6
		C20,58.3,20,57,20.2,55.6c0.1-1.2,0.2-2.3,0.4-3.5c0.1-0.9,0.3-1.8,0.4-2.7c0.1-0.6,0.1-1.2,0.2-1.8c0.1-1.1,0.3-2.2,0.4-3.2
		c0-0.3,0-0.5,0.1-0.8c0-0.1,0.2-0.3,0.3-0.3c1.6,0,3.2,0,4.8,0c-0.1,1.3-0.3,2.6-0.4,3.8c-0.2,1.4-0.4,2.8-0.5,4.2
		c-0.1,0.9-0.2,1.9-0.3,2.8c0,0.6-0.1,1.1-0.1,1.7c0,0.6,0.2,1.2,0.3,1.7L25.8,57.7z"/>
	<path class="st1" d="M148.4,0c0.6,0.6,1.2,1.2,1.8,1.9c0.8,0.8,1.5,1.7,2.3,2.5c0.5,0.6,1,1.1,1.5,1.6c0.3,0.3,0.4,0.5,0.3,0.9
		c-0.1,0.6-0.1,1.3-0.2,2c-0.1,1-0.1,2-0.2,2.9l0,0c-0.4,0-0.8,0-1.3,0c0.1-0.8,0.1-1.6,0.2-2.3c0-0.5,0.1-1,0.2-1.5
		c0.2-0.9-0.2-1.5-0.8-2.1c-0.8-0.7-1.5-1.6-2.2-2.4c-0.4-0.5-0.8-0.9-1.2-1.4c-0.5-0.6-1.1-0.9-2-0.9c-7.4,0-14.7,0-22.1,0
		c-0.6,0-0.9,0.2-1.3,0.6c-1.1,1.1-2.1,2.1-3.2,3.1c-0.7,0.6-1.3,1.3-2,1.9c-0.1,0.1-0.2,0.3-0.2,0.5c-0.1,0.9-0.1,1.8-0.2,2.7
		c-0.1,1.3-0.2,2.6-0.4,4c-0.1,0.8-0.1,1.6-0.2,2.4c-0.1,0.9-0.2,1.8-0.3,2.7c-0.1,0.9-0.1,1.8-0.2,2.6c-0.1,1.2-0.3,2.4-0.4,3.6
		c-0.1,1.4-0.2,2.9-0.4,4.3c0,0.4-0.1,0.7-0.1,1.1c0,0.1,0.1,0.3,0.2,0.4c0.4,0.4,0.8,0.8,1.2,1.1c1.2,1.3,2.4,2.5,3.6,3.8
		c0.1,0.1,0.4,0.3,0.6,0.3c2,0,4,0,6,0c0.1,0,0.2,0,0.3,0c0.1-0.9,0.2-1.9,0.2-2.8c0.1-0.9,0.1-1.8,0.2-2.6c0-0.2,0.2-0.5,0.4-0.7
		c0.5-0.5,1.1-1.1,1.6-1.6c1.5-1.4,3-2.9,4.5-4.3c0.1-0.1,0.3-0.2,0.4-0.2c1.5,0,3.1,0,4.6,0c0,0.4,0,0.8-0.1,1.2l-0.1,0
		c-1.3,0-2.7,0-4,0c-0.1,0-0.2,0-0.3,0.1c-0.3,0.2-0.5,0.4-0.7,0.7c-1.6,1.6-3.3,3.1-4.9,4.7c-0.2,0.2-0.3,0.4-0.3,0.7
		c-0.1,0.6-0.1,1.1-0.1,1.7c0,0.5-0.1,1.1-0.2,1.6c0,0.5-0.1,1.1-0.1,1.5h9.7c0,0.4-0.1,0.8-0.1,1.2h-9.7c0,0.3-0.1,0.6-0.1,0.8
		c0,0.5-0.1,0.9-0.1,1.4c-0.1,1-0.2,2-0.3,3.1c-0.1,0.8-0.1,1.5-0.2,2.3c-0.1,1.2-0.3,2.4-0.4,3.6c-0.1,1.3-0.2,2.6-0.3,3.8
		c0,0.4,0,0.8-0.1,1.2c-0.1,0.8-0.2,1.5,0.5,2c0.3,0.2,0.5,0.5,0.7,0.8c1.2,1.2,2.4,2.5,3.6,3.7c0.1,0.1,0.4,0.3,0.6,0.3
		c2.4,0,4.9,0,7.3-0.1c4,0,7.9,0,11.9-0.1c1.3,0,2.6,0,3.9,0c0.1,0,0.3,0,0.4-0.1c0.6-0.5,1.1-1,1.6-1.4c0.9-0.8,1.8-1.7,2.7-2.5
		c0.4-0.3,0.7-0.7,1.1-1c0.5-0.3,0.7-0.7,0.7-1.3c0.1-1.5,0.3-3,0.4-4.5c0.4,0,0.8,0,1.2,0l0,0.1c-0.1,0.3-0.1,0.7-0.2,1
		c-0.1,1.3-0.2,2.6-0.3,3.8c0,0.7-0.4,1.1-0.9,1.5c-0.5,0.4-1,0.8-1.4,1.3c-0.9,0.8-1.8,1.7-2.7,2.5c-0.6,0.6-1.2,1.1-1.8,1.6
		c-0.1,0.1-0.3,0.2-0.5,0.2c-3.7,0-7.3,0-11,0.1c-4.4,0-8.9,0.1-13.3,0.1c-0.3,0-0.5-0.3-0.8-0.5c-0.2-0.1-0.3-0.3-0.4-0.5
		c-1.1-1.2-2.3-2.3-3.4-3.5c-0.3-0.3-0.6-0.7-0.9-1c-0.7-0.5-0.8-1.2-0.6-2c0.1-0.4,0.1-0.8,0.1-1.2c0.1-1.3,0.2-2.6,0.3-3.8
		c0.1-1.2,0.3-2.4,0.4-3.6c0.1-0.9,0.1-1.8,0.2-2.7c0.1-0.9,0.2-1.7,0.3-2.6c0-0.5,0.1-0.9,0.1-1.4c0-0.4,0.1-0.8,0.1-1.2
		c-1.4,0-2.7,0-4,0c-0.9,0-1.9,0-2.8,0c-0.2,0-0.4-0.1-0.5-0.2c-1.2-1.3-2.4-2.5-3.6-3.8c-0.6-0.7-1.3-1.3-1.9-2
		c-0.2-0.2-0.2-0.3-0.2-0.5c0.1-0.4,0.1-0.8,0.1-1.2c0.1-1.3,0.2-2.5,0.3-3.8c0.1-1.6,0.3-3.2,0.4-4.7c0.1-0.9,0.1-1.8,0.2-2.6
		c0.1-1.3,0.2-2.5,0.4-3.8c0.1-0.9,0.1-1.7,0.2-2.6c0.1-1.3,0.2-2.6,0.4-3.8c0-0.5,0.1-1,0.1-1.4c-0.1-0.6,0.2-0.9,0.6-1.2
		c0.2-0.2,0.4-0.3,0.6-0.5c1-1,2.1-2,3.1-3c0.8-0.8,1.7-1.6,2.5-2.4H148.4z"/>
	<path class="st0" d="M164.3,49.3L164.3,49.3c0-0.5,0-0.9,0-1.3l0.1,0c1.3,0,2.5,0,3.8,0c0.2,0,0.4-0.1,0.6-0.3
		c1.3-1.2,2.5-2.4,3.8-3.5c0.4-0.4,0.9-0.8,1.4-1.2c0.3-0.3,0.7-0.5,0.7-1.1c0-0.7,0.1-1.4,0.2-2.2c0.1-1.4,0.2-2.7,0.4-4.1
		c0.1-0.8,0.1-1.6,0.2-2.4c0.1-1.3,0.2-2.5,0.4-3.8c0-0.5,0.1-1,0.1-1.5c0.1-1.3,0.2-2.6,0.4-3.8c0.1-0.8,0.1-1.6,0.2-2.4
		c0.1-0.9,0.2-1.8,0.2-2.8c0-0.1-0.1-0.2-0.1-0.3c-0.6-0.7-1.3-1.4-1.9-2.1c-0.9-1-1.9-2-2.8-3c-0.3-0.3-0.5-0.4-0.9-0.4
		c-5.2,0-10.4,0-15.6,0c-0.5,0-0.9,0-1.4,0c0-0.4,0-0.8,0.1-1.2l0,0c1.4,0,2.8,0,4.2,0c4.5,0,8.9,0,13.4,0c0.2,0,0.5,0.1,0.6,0.2
		c1.1,1.2,2.2,2.4,3.3,3.6c0.8,0.9,1.6,1.7,2.4,2.5v1.2c-0.1,0.1-0.2,0.3-0.2,0.4c-0.1,1.3-0.2,2.6-0.3,3.8
		c-0.1,1.6-0.3,3.2-0.4,4.7c-0.1,0.9-0.1,1.8-0.2,2.7c-0.1,0.9-0.2,1.7-0.3,2.6l0,0.1c0.1,1.3-0.2,2.6-0.3,3.9
		c0,1.2-0.2,2.4-0.3,3.6c0,0.1,0,0.2,0,0.3c0.1,0.2,0.2,0.5-0.1,0.7c-0.1,0.1,0,0.3,0,0.5c-1.4,1.2-2.8,2.5-4.1,3.7
		c-0.7,0.7-1.5,1.4-2.2,2.1c-0.4,0.4-0.8,0.6-1.4,0.6c-0.9-0.1-1.8,0-2.7,0C165.1,49.2,164.7,49.3,164.3,49.3"/>
	<path class="st2" d="M76.8,43.3h4.2c0.7,4,1.4,8.1,2.1,12.1l0.1,0c1.8-4,3.6-8.1,5.4-12.2h5.6c-0.2,0.4-0.4,0.9-0.6,1.3
		c-1.4,2.7-2.8,5.4-4.1,8.2c-1.8,3.6-3.7,7.2-5.5,10.7c-0.1,0.1-0.2,0.3-0.4,0.3c-1,0-2,0-3,0c-0.8-4.3-1.6-8.7-2.5-13.2
		c-0.3,0.6-0.5,1-0.7,1.5c-1.5,3.5-3.1,7-4.6,10.6c-0.4,1-0.9,1.3-1.8,1.2c-0.5-0.1-1,0-1.6,0c-0.3,0-0.4-0.1-0.5-0.4
		c-0.5-2-1-3.9-1.5-5.9c-0.6-2.3-1.2-4.5-1.8-6.8c-0.6-2.5-1.3-4.9-2-7.4h5.6c0.8,4.1,1.6,8.2,2.5,12.3l0.1,0
		C73.4,51.5,75.1,47.4,76.8,43.3"/>
	<path class="st3" d="M49,50.1c-0.5,1.1-0.6,2.4-0.8,3.6l0.1,0.3c0,0.2,0,0.3-0.1,0.5c-0.1,0.3-0.2,0.5-0.2,0.8
		c-0.1,0.8-0.2,1.5-0.3,2.3l0,0c0.2,0.8-0.3,1.5-0.3,2.2l0,0c0.2,0.8-0.3,1.5-0.3,2.2l0,0.1c0.4,0.4-0.1,0.8-0.1,1.1
		c0,0.1-0.3,0.4-0.4,0.4c-1.5,0-3.1,0-4.6,0l0,0c0-0.3-0.1-0.6-0.1-0.9c0-0.2,0.1-0.3,0.2-0.5c0.1-0.7,0.2-1.5,0.3-2.2
		c0.1-0.4,0-0.8,0-1.2c0-0.5,0.2-1,0.3-1.5c0-0.1,0.1-0.3,0-0.4c-0.1-0.4,0.1-0.7,0.2-1.1c0.1-0.4,0.1-0.8,0.1-1.1
		c0-0.3,0.1-0.5,0.1-0.8c0.1-0.6,0.2-1.2,0.1-1.9c0-0.1,0.1-0.3,0.2-0.5c0.1-1,0.3-1.9,0.4-2.9c0-0.5,0.1-1,0.3-1.4
		c0.1-0.3,0-0.7,0.1-1.1c0.1-0.6,0.1-1.3,0.2-1.9c0-0.2,0.1-0.5,0-0.7c0-0.3,0.1-0.4,0.4-0.4c1.4,0,2.9,0,4.3,0l0.1,0
		c-0.1,0.5-0.1,1-0.2,1.6c0.6-0.4,1-0.7,1.5-1c1.2-0.9,2.6-1.1,4-1.2c0.4,0,0.9-0.1,1.3-0.1c0.6,0.1,1.1,0.3,1.7,0.4
		c1.3,0.4,2.3,1.1,3.2,2.1c0.7,0.7,1,1.6,1.4,2.5c0.1,0.4,0.1,0.8,0.2,1.2c0.2,0.8-0.1,1.5-0.1,2.3c0,0.5,0,1,0,1.5
		c0,0.1,0,0.2,0,0.3c-0.3,0.4-0.3,0.8-0.1,1.3l0,0.2c-0.3,0.7-0.4,1.4-0.2,2.1l0,0.2c-0.4,0.7-0.4,1.4-0.3,2.1l0,0.2
		c-0.3,0.7-0.4,1.4-0.3,2.2c0,0.3-0.2,0.7-0.3,1.1c-0.1,0.5-0.1,1-0.2,1.6h-1.5c-1.1,0-2.2,0-3.3,0c-0.4,0-0.4-0.1-0.3-0.5
		c0.2-0.5,0.3-1.1,0.2-1.6c-0.1-0.5,0.1-0.8,0.2-1.2c0.1-0.9,0.3-1.7,0.3-2.6c0-0.8,0.3-1.4,0.3-2.2l0-0.1c-0.2-0.8,0.3-1.5,0.3-2.2
		c0-0.2,0-0.5-0.1-0.7l0-0.3c0.3-1.2,0.3-2.4-0.5-3.5c-0.6-0.9-1.5-1.4-2.6-1.4c-0.6,0-1.3,0.1-1.9,0.2c-1,0.3-1.9,0.9-2.4,1.8
		l-0.2,0.1L49,49.8l0,0.1L49,50.1z"/>
	<path class="st3" d="M0,57.1h5.8c0.2,1.2,1,2,2.2,2.2c1.4,0.2,2.7-0.1,3.6-1.2c0.7-0.9,0.5-1.8-0.5-2.5c-0.8-0.6-1.8-0.8-2.8-1
		c-1.9-0.4-3.6-1-5-2.4c-0.7-0.7-1.1-1.6-1.2-2.6c-0.2-1.6,0.3-2.9,1.3-4.1c1.5-1.7,3.4-2.6,5.6-3.1c1.1-0.2,2.2-0.3,3.4-0.1
		c0.2,0,0.4-0.2,0.6-0.1c1.7,0.6,3.5,1.2,4.5,2.8c0.6,0.9,0.9,1.8,0.9,2.9c0,0.2,0,0.4-0.3,0.4c-1.8,0-3.5,0-5.3,0
		c-0.2-0.8-0.9-1.3-1.7-1.4c-0.9-0.1-1.7,0-2.4,0.5c-1.1,0.7-1.2,1.9-0.3,2.6c0.3,0.2,0.7,0.4,1.1,0.5c1.4,0.4,2.7,0.8,4.1,1.2
		c1.2,0.4,2.3,0.9,3.2,1.8c0.9,0.9,1.2,2,1.1,3.3c-0.1,1.4-0.7,2.6-1.5,3.7c-1.1,1.3-2.5,2.3-4.1,2.9c-1.6,0.6-3.3,0.9-5,0.8
		c-1.9-0.1-3.7-0.5-5.2-1.8c-1.2-1-2-2.3-2-3.9C0,58,0,57.6,0,57.1"/>
	<path class="st1" d="M113.6,47.7c-2.2,0-4.4,0-6.6,0c-0.6,0-1.2,0-1.9,0c0-0.4,0-0.7,0.1-1.1c0.1-1,0.2-1.9,0.4-2.9
		c0-0.2,0.1-0.4,0.4-0.4c4.8,0,9.7,0,14.5,0c-0.2,1.4-0.3,2.8-0.5,4.2c-0.1,0.4-0.5,0.7-0.8,1c-0.9,1-1.9,2-2.9,3
		c-2.3,2.4-4.6,4.9-7,7.3c-0.1,0.2-0.3,0.3-0.4,0.5h10.2c-0.2,1.5-0.4,2.9-0.5,4.4H102c0.2-1.4,0.4-2.8,0.5-4.2
		c0-0.1,0.1-0.3,0.2-0.4c1-1,1.9-2,2.9-3c1.1-1.1,2.2-2.3,3.3-3.4c1.1-1.2,2.2-2.3,3.3-3.5C112.7,48.7,113.1,48.2,113.6,47.7
		L113.6,47.7z"/>
	<path class="st1" d="M96.4,43.3h5.3c-0.8,6.8-1.7,13.6-2.5,20.4h-5.3C94.7,56.9,95.6,50.1,96.4,43.3"/>
	<path class="st1" d="M102.6,36.4c-0.1,0.7-0.1,1.3-0.2,1.9c-0.1,0.7-0.2,1.3-0.2,2c0,0.4-0.1,0.5-0.5,0.5c-1.6,0-3.1,0-4.8,0
		c0-0.3,0.1-0.6,0.1-0.9c0.1-0.9,0.2-1.7,0.3-2.6l0,0c0.1-0.3,0-0.7,0.2-0.8c0.2-0.1,0.6-0.1,0.9-0.1c1.2,0,2.5,0,3.7,0H102.6z"/>
	<path class="st4" d="M49,50.1l0.1-0.3L49,50.1z"/>
	<path class="st4" d="M25.8,57.7l-0.1-0.2L25.8,57.7z"/>
	<path class="st5" d="M113.6,47.7L113.6,47.7L113.6,47.7z"/>
	<path class="st4" d="M49,49.8L49,49.8L49,49.8z"/>
	<path class="st4" d="M26.8,58.9L26.8,58.9L26.8,58.9z"/>
	<path class="st4" d="M27.1,59.1L27.1,59.1L27.1,59.1z"/>
	<path class="st3" d="M138.7,36.1c0-0.4,0-0.9,0.1-1.3c0-0.6,0.1-1.2,0.2-1.8c0.1-1.4,0.2-2.8,0.4-4.2c0.1-0.9,0.1-1.8,0.2-2.7
		c0-0.3,0.1-0.7,0.1-1l0.1,0h1.2l0,0c0,0.3-0.1,0.7-0.1,1c-0.1,1.2-0.2,2.5-0.4,3.7c-0.1,0.9-0.1,1.8-0.2,2.7
		c-0.1,1.2-0.2,2.4-0.3,3.5l0,0C139.6,36.2,139.1,36.1,138.7,36.1"/>
	<path class="st6" d="M153.9,11.9c0,0.4,0,0.8-0.1,1.2l-0.1,0c-0.4,0-0.8,0-1.2,0c0-0.4,0-0.8,0.1-1.2l0,0
		C153.1,11.9,153.5,11.9,153.9,11.9"/>
	<path class="st7" d="M138.7,36.1c0.4,0,0.8,0.1,1.2,0.1c0,0.4,0,0.8-0.1,1.1l-0.1,0c-0.4,0-0.8,0-1.2,0l0,0
		C138.6,37,138.7,36.6,138.7,36.1L138.7,36.1z"/>
	<path class="st7" d="M164.3,48c0,0.4,0,0.8,0,1.2c-0.4,0-0.8,0-1.2,0l0,0c0-0.4,0.1-0.8,0.1-1.2C163.5,48,163.9,48,164.3,48"/>
	<path class="st7" d="M140.9,25.2h-1.2c0-0.4,0-0.8,0.1-1.2l0.1,0c0.4,0,0.8,0,1.2,0C141,24.4,140.9,24.8,140.9,25.2"/>
	<path class="st1" d="M153.8,13.1c-0.1,1.5-0.3,2.9-0.4,4.4c-0.1,0.9-0.1,1.8-0.2,2.7c-0.1,0.9-0.2,1.8-0.3,2.7c0,0.3,0,0.7,0,1.1
		h0.4c2.1,0,4.2,0,6.2,0c0.3,0,0.4,0.1,0.6,0.3c0.5,0.6,1,1.1,1.5,1.6c0.8,0.9,1.6,1.8,2.4,2.7c0.5,0.6,1,1.1,1.6,1.7
		c0.1,0.1,0.2,0.2,0.2,0.3c-0.1,0.8-0.2,1.6-0.2,2.4c0,0.4-0.1,0.8-0.1,1.3c-0.1,1.3-0.2,2.5-0.3,3.8c-0.1,1.6-0.3,3.2-0.4,4.7
		c-0.1,0.9-0.1,1.7-0.2,2.6c-0.1,0.9-0.1,1.8-0.2,2.7l-0.1,0c-0.4,0-0.8,0-1.2,0l0,0c0.1-0.8,0.1-1.5,0.2-2.3
		c0.1-1.4,0.2-2.7,0.4-4.1c0.1-0.8,0.1-1.6,0.2-2.4c0.1-1.4,0.2-2.7,0.4-4.1c0-0.5,0.1-1.1,0.2-1.6c0.1-0.8,0.1-1.7,0.2-2.5
		c0-0.2-0.1-0.4-0.2-0.5c-0.9-1-1.8-1.9-2.7-2.9c-0.7-0.7-1.4-1.5-2-2.3c-0.2-0.2-0.4-0.3-0.6-0.3c-1.9,0-3.8,0-5.7,0
		c-0.2,0-0.3,0-0.5,0c0,0.3,0,0.5,0,0.7c-0.1,1.3-0.3,2.5-0.3,3.8c0,0.8-0.1,1.6-1,2.1l-0.1,0.1c-0.7,0.7-1.4,1.3-2.2,2
		c-1,1-2.1,1.9-3.1,2.9c-0.2,0.2-0.5,0.5-0.8,0.5c-1.8,0.1-3.5,0-5.3,0c0-0.4,0-0.8,0.1-1.1l0,0c0.3,0,0.6-0.1,0.9-0.1
		c1,0,2.1-0.1,3.1,0c0.7,0,1.2-0.2,1.7-0.7c1.7-1.6,3.5-3.2,5.3-4.8c0.1-0.1,0.1-0.3,0.2-0.4c0-0.5,0.1-0.9,0.1-1.4
		c0.1-1.2,0.2-2.4,0.4-3.6H151c-1.9,0-3.8,0-5.7,0c-1.5,0-2.9,0-4.4,0l0,0c0-0.4,0.1-0.8,0.1-1.2l0,0h10.6c0.1-0.6,0.1-1.2,0.2-1.8
		c0.1-1.6,0.2-3.3,0.4-4.9c0-0.4,0.1-0.9,0.1-1.3c0.1-0.9,0.2-1.8,0.3-2.7l0,0C153,13.1,153.4,13.1,153.8,13.1"/>
	<path class="st3" d="M141,24c-0.4,0-0.8,0-1.2,0c0.1-1.1,0.2-2.2,0.3-3.4c0-0.6,0-1.2,0.1-1.8c0-0.3,0.1-0.6,0.3-0.8
		c1-1,1.9-1.9,2.9-2.9c1.1-1,2.2-2.1,3.3-3.1c0.1-0.1,0.3-0.2,0.5-0.2c1.8,0,3.6,0,5.5,0c0,0.4,0,0.8-0.1,1.2l0,0
		c-1.4,0-2.8,0-4.2,0c-0.7,0-1.2,0.2-1.7,0.7c-1.6,1.6-3.2,3.1-4.9,4.7c-0.3,0.3-0.4,0.6-0.4,1c0,0.6-0.1,1.1-0.1,1.7
		C141.2,22.1,141.1,23,141,24L141,24z"/>
	<path class="st0" d="M163.1,48c0,0.4-0.1,0.8-0.1,1.2c-2.6,0-5.3,0.1-7.9,0.1c-1.8,0-3.6,0-5.4,0c-1.7,0-3.5,0-5.2,0.1
		c-0.5,0-0.7-0.2-1-0.5c-0.4-0.5-0.9-1-1.3-1.5c-1.2-1.3-2.4-2.5-3.6-3.8c-0.4-0.4-0.5-0.8-0.4-1.3c0.1-0.9,0.2-1.8,0.3-2.6
		c0.1-0.8,0.1-1.6,0.2-2.4c0.4,0,0.8,0,1.2,0c-0.1,0.7-0.1,1.4-0.2,2.1c-0.1,0.9-0.1,1.8-0.2,2.8c0,0.4,0.1,0.6,0.3,0.8
		c1.5,1.6,3.1,3.2,4.6,4.7c0.2,0.2,0.4,0.3,0.7,0.3c3,0,6.1-0.1,9.1-0.1c1.8,0,3.6,0,5.4,0C160.7,48,161.9,48,163.1,48L163.1,48z"/>
</g>
</svg>
