<svg width="457" height="90" viewBox="0 0 457 90" fill="none" xmlns="http://www.w3.org/2000/svg">
<g clip-path="url(#clip0_288_928)">
<path fill-rule="evenodd" clip-rule="evenodd" d="M178.618 32.625C178.806 32.625 179.499 32.8125 179.781 32.9062L179.874 33L192.495 60.75L201.459 33.8437C201.927 33.1875 202.49 32.8125 203.146 32.8125H206.184C206.934 32.8125 207.497 33.375 207.497 34.2187V34.3125L194.745 73.6875L194.558 73.7812C194.37 73.9687 193.733 74.0625 193.451 74.0625C193.17 74.0625 192.551 73.875 192.364 73.7812L192.176 73.5938L179.181 46.4062C178.931 46.2187 178.743 46.125 178.618 46.125H178.506C178.337 46.125 178.299 46.1625 178.055 46.4062L165.06 73.6875L164.966 73.7812C164.779 73.9687 164.16 74.0625 163.879 74.0625C163.597 74.0625 162.96 73.875 162.772 73.7812L162.585 73.6875L149.739 34.125C149.739 33.375 150.302 32.8125 151.052 32.8125H154.09C154.746 32.8125 155.309 33.1875 155.777 33.8437L155.871 33.9375L164.741 60.75L177.362 33L177.455 32.9062C177.643 32.7187 178.337 32.625 178.618 32.625ZM280.444 32.3437C285.658 32.3437 289.183 33.3563 292.784 35.6438C292.877 35.7375 293.346 36.2063 293.346 36.5813C293.346 36.7688 293.346 37.05 293.159 37.3312L291.452 40.0688C291.171 40.35 290.89 40.6312 290.421 40.6312C290.14 40.6312 289.765 40.35 289.577 40.2562C286.333 38.5875 282.939 38.3438 280.538 38.3438C272.475 38.3438 265.911 45.0937 265.911 53.25C265.911 61.4062 272.362 68.0625 280.538 68.0625C283.932 68.0625 287.139 67.5563 289.802 66.6375C290.083 66.5438 290.365 66.5438 290.552 66.5438C290.927 66.5438 291.377 66.6375 291.546 66.9375L292.802 69.825C292.915 70.1438 292.99 70.4812 292.99 70.6687C292.99 71.1375 292.709 71.325 292.427 71.5125C289.296 73.125 285.339 73.9688 280.463 73.9688C269.137 73.9688 259.648 64.725 259.648 53.1562C259.648 41.5875 269.137 32.3437 280.463 32.3437H280.444ZM240.689 16.5C241.439 16.5 242.002 17.0625 242.002 17.8125V32.3437H252.878C253.628 32.3437 254.191 32.9063 254.191 33.6563V37.2188C254.191 37.9688 253.628 38.5312 252.878 38.5312H242.002V53.9063C242.002 66.2813 243.408 68.1562 251.284 68.1562C251.472 68.1562 251.566 68.0625 251.753 68.0625C251.941 67.9687 252.034 67.9688 252.222 67.9688C252.691 67.9688 253.253 68.25 253.441 68.7188C254.097 71.25 254.097 72.4687 254.097 72.75C254.097 73.3125 253.441 73.875 253.066 73.875C252.184 73.95 251.434 73.9688 250.384 73.9688H249.409C240.314 73.9688 236.095 69.1687 236.095 57.375V17.8125C236.095 17.0625 236.657 16.5 237.407 16.5H240.689ZM127.705 32.25C130.912 32.25 135.487 32.7562 139.35 33.6L139.538 33.6937C140.007 34.0687 140.194 34.35 140.194 35.0062V35.1L139.181 38.6062C138.994 39.1125 138.319 39.3375 137.962 39.3H137.906C134.493 38.625 131.549 38.55 128.83 38.55C119.81 38.55 118.947 40.9312 118.891 43.2187V43.5187C118.891 45.8812 123.992 48.0938 128.736 49.95C129.055 50.0813 129.393 50.2125 129.711 50.3437L130.687 50.7375C137.4 53.4187 143.907 56.5875 143.907 62.475C143.907 69.7875 138.413 73.9125 128.061 73.9125C123.035 73.9125 117.803 72.7313 113.922 71.025C113.359 70.7438 113.172 70.275 113.172 69.6188V69.525L113.828 66.3563C114.015 65.7938 114.391 65.5125 114.953 65.5125H115.047C118.516 66.7312 122.904 68.1937 127.03 68.1937C131.437 68.1937 138 67.7812 138 63.5062C138 60 133.762 58.2187 129.093 56.475L128.155 56.1188L127.686 55.95C120.823 53.3813 112.965 50.55 112.965 42.8813C112.965 36.0375 118.272 32.2875 127.686 32.2875L127.705 32.25ZM439.841 32.3437C451.243 32.3437 456.906 38.625 457 51.1875V72.4688C457 73.125 456.437 73.5938 455.781 73.5938H452.312C451.655 73.5938 451.093 73.0313 451.093 72.4688V52.5375C451.074 44.0813 450.23 38.625 438.81 38.625C431.328 38.625 425.496 45.0375 425.496 53.0625V72.4688C425.496 73.125 424.933 73.5938 424.277 73.5938H420.807C420.151 73.5938 419.589 73.0313 419.589 72.4688V34.0312C419.589 33.375 420.151 32.9062 420.807 32.9062H424.277C424.933 32.9062 425.496 33.4687 425.496 34.0312V38.3438C430.953 32.6438 437.066 32.3625 439.504 32.3437H439.841ZM365.206 16.5C380.771 16.5 392.679 28.3687 392.585 45.2812C392.491 62.1937 381.108 73.5938 363.893 73.5938H351.235C350.579 73.5938 350.11 73.0312 350.11 72.375V68.9063C350.11 68.25 350.673 67.6875 351.235 67.6875H363.425C377.433 67.6875 386.772 58.8187 386.772 45.5625C386.772 31.65 377.639 22.4062 364.081 22.4062H342.422C341.765 22.4062 341.297 21.8437 341.297 21.1875V17.7187C341.297 17.0625 341.859 16.5 342.422 16.5H365.206ZM307.636 16.5C308.292 16.5 308.855 17.0625 308.855 17.625V38.3438C314.593 32.3438 321.044 32.3437 323.2 32.3437C334.602 32.3437 340.265 38.625 340.359 51.1875V72.4688C340.359 73.125 339.796 73.5938 339.14 73.5938H335.671C335.014 73.5938 334.452 73.0313 334.452 72.4688V52.5375C334.433 44.0813 333.589 38.625 322.169 38.625C314.687 38.625 308.855 45.0375 308.855 53.0625V72.4688C308.855 73.125 308.292 73.5938 307.636 73.5938H304.166C303.51 73.5938 302.948 73.0313 302.948 72.4688V17.625C302.948 16.9687 303.51 16.5 304.166 16.5H307.636ZM407.212 32.8125C407.868 32.8125 408.431 33.2813 408.431 33.9375V72.375C408.431 73.0312 407.868 73.5 407.212 73.5H403.743C403.086 73.5 402.524 72.9375 402.524 72.375V33.9375C402.524 33.2813 403.086 32.8125 403.743 32.8125H407.212ZM221.561 32.8125C222.218 32.8125 222.78 33.2813 222.78 33.9375V72.375C222.78 73.0312 222.218 73.5 221.561 73.5H218.092C217.436 73.5 216.873 72.9375 216.873 72.375V33.9375C216.873 33.2813 217.436 32.8125 218.092 32.8125H221.561ZM405.524 18.4688C407.549 18.4688 409.256 20.175 409.368 22.3125C409.368 24.45 407.662 26.1562 405.524 26.1562C403.386 26.1562 401.68 24.45 401.68 22.3125C401.68 20.175 403.386 18.4688 405.524 18.4688ZM219.874 18.4688C221.899 18.4688 223.605 20.175 223.718 22.3125C223.718 24.45 222.011 26.1562 219.874 26.1562C217.736 26.1562 216.029 24.45 216.029 22.3125C216.029 20.175 217.736 18.4688 219.874 18.4688Z" fill="white"/>
<path fill-rule="evenodd" clip-rule="evenodd" d="M84.349 0C87.462 0 90.1061 2.55 90.0123 5.6625V84.3563C90.0123 87.4688 87.462 90.0187 84.349 90.0187H5.66327C2.55035 90 0 87.45 0 84.3375V5.6625C0 2.55 2.55035 0 5.66327 0H84.3678H84.349ZM19.6902 36.6375C19.6902 48.3188 27.6788 56.2125 39.5492 56.1188H48.1003C48.8692 56.1188 49.4318 55.5562 49.4318 54.7875V52.125C49.4318 51.3562 48.8692 50.7938 48.1003 50.7938H39.8304C30.9042 50.7938 25.1097 45.2812 25.1097 36.825C25.1097 28.3687 30.8105 22.2 39.3616 22.2H62.3523C63.1211 22.2 63.6837 21.6375 63.6837 20.8688V18.2063C63.6837 17.4375 63.1211 16.875 62.3523 16.875H38.5928C27.8476 16.875 19.6902 25.3313 19.6902 36.6375ZM51.1382 73.125C61.8835 73.125 70.0408 64.6688 69.9471 53.175C69.9471 41.5875 61.9585 33.6937 50.1819 33.6937H41.6307C40.8618 33.6937 40.2993 34.2563 40.2993 35.025V37.7812C40.2993 38.55 40.8618 39.1125 41.6307 39.1125H49.9006C58.8268 39.1125 64.6213 44.625 64.6213 53.0812C64.6213 61.5375 58.9206 67.7063 50.3694 67.7063H27.3787C26.6099 67.7063 26.0473 68.2687 26.0473 69.0375V71.7938C26.0473 72.5625 26.6099 73.125 27.3787 73.125H51.1382Z" fill="white"/>
<path fill-rule="evenodd" clip-rule="evenodd" d="M178.618 32.625C178.806 32.625 179.499 32.8125 179.781 32.9062L179.874 33L192.495 60.75L201.459 33.8437C201.927 33.1875 202.49 32.8125 203.146 32.8125H206.184C206.934 32.8125 207.497 33.375 207.497 34.2187V34.3125L194.745 73.6875L194.558 73.7812C194.37 73.9687 193.733 74.0625 193.451 74.0625C193.17 74.0625 192.551 73.875 192.364 73.7812L192.176 73.5938L179.181 46.4062C178.931 46.2187 178.743 46.125 178.618 46.125H178.506C178.337 46.125 178.299 46.1625 178.055 46.4062L165.06 73.6875L164.966 73.7812C164.779 73.9687 164.16 74.0625 163.879 74.0625C163.597 74.0625 162.96 73.875 162.772 73.7812L162.585 73.6875L149.739 34.125C149.739 33.375 150.302 32.8125 151.052 32.8125H154.09C154.746 32.8125 155.309 33.1875 155.777 33.8437L155.871 33.9375L164.741 60.75L177.362 33L177.455 32.9062C177.643 32.7187 178.337 32.625 178.618 32.625ZM280.444 32.3437C285.658 32.3437 289.183 33.3563 292.784 35.6438C292.877 35.7375 293.346 36.2063 293.346 36.5813C293.346 36.7688 293.346 37.05 293.159 37.3312L291.452 40.0688C291.171 40.35 290.89 40.6312 290.421 40.6312C290.14 40.6312 289.765 40.35 289.577 40.2562C286.333 38.5875 282.939 38.3438 280.538 38.3438C272.475 38.3438 265.911 45.0937 265.911 53.25C265.911 61.4062 272.362 68.0625 280.538 68.0625C283.932 68.0625 287.139 67.5563 289.802 66.6375C290.083 66.5438 290.365 66.5438 290.552 66.5438C290.927 66.5438 291.377 66.6375 291.546 66.9375L292.802 69.825C292.915 70.1438 292.99 70.4812 292.99 70.6687C292.99 71.1375 292.709 71.325 292.427 71.5125C289.296 73.125 285.339 73.9688 280.463 73.9688C269.137 73.9688 259.648 64.725 259.648 53.1562C259.648 41.5875 269.137 32.3437 280.463 32.3437H280.444ZM240.689 16.5C241.439 16.5 242.002 17.0625 242.002 17.8125V32.3437H252.878C253.628 32.3437 254.191 32.9063 254.191 33.6563V37.2188C254.191 37.9688 253.628 38.5312 252.878 38.5312H242.002V53.9063C242.002 66.2813 243.408 68.1562 251.284 68.1562C251.472 68.1562 251.566 68.0625 251.753 68.0625C251.941 67.9687 252.034 67.9688 252.222 67.9688C252.691 67.9688 253.253 68.25 253.441 68.7188C254.097 71.25 254.097 72.4687 254.097 72.75C254.097 73.3125 253.441 73.875 253.066 73.875C252.184 73.95 251.434 73.9688 250.384 73.9688H249.409C240.314 73.9688 236.095 69.1687 236.095 57.375V17.8125C236.095 17.0625 236.657 16.5 237.407 16.5H240.689ZM127.705 32.25C130.912 32.25 135.487 32.7562 139.35 33.6L139.538 33.6937C140.007 34.0687 140.194 34.35 140.194 35.0062V35.1L139.181 38.6062C138.994 39.1125 138.319 39.3375 137.962 39.3H137.906C134.493 38.625 131.549 38.55 128.83 38.55C119.81 38.55 118.947 40.9312 118.891 43.2187V43.5187C118.891 45.8812 123.992 48.0938 128.736 49.95C129.055 50.0813 129.393 50.2125 129.711 50.3437L130.687 50.7375C137.4 53.4187 143.907 56.5875 143.907 62.475C143.907 69.7875 138.413 73.9125 128.061 73.9125C123.035 73.9125 117.803 72.7313 113.922 71.025C113.359 70.7438 113.172 70.275 113.172 69.6188V69.525L113.828 66.3563C114.015 65.7938 114.391 65.5125 114.953 65.5125H115.047C118.516 66.7312 122.904 68.1937 127.03 68.1937C131.437 68.1937 138 67.7812 138 63.5062C138 60 133.762 58.2187 129.093 56.475L128.155 56.1188L127.686 55.95C120.823 53.3813 112.965 50.55 112.965 42.8813C112.965 36.0375 118.272 32.2875 127.686 32.2875L127.705 32.25ZM439.841 32.3437C451.243 32.3437 456.906 38.625 457 51.1875V72.4688C457 73.125 456.437 73.5938 455.781 73.5938H452.312C451.655 73.5938 451.093 73.0313 451.093 72.4688V52.5375C451.074 44.0813 450.23 38.625 438.81 38.625C431.328 38.625 425.496 45.0375 425.496 53.0625V72.4688C425.496 73.125 424.933 73.5938 424.277 73.5938H420.807C420.151 73.5938 419.589 73.0313 419.589 72.4688V34.0312C419.589 33.375 420.151 32.9062 420.807 32.9062H424.277C424.933 32.9062 425.496 33.4687 425.496 34.0312V38.3438C430.953 32.6438 437.066 32.3625 439.504 32.3437H439.841ZM365.206 16.5C380.771 16.5 392.679 28.3687 392.585 45.2812C392.491 62.1937 381.108 73.5938 363.893 73.5938H351.235C350.579 73.5938 350.11 73.0312 350.11 72.375V68.9063C350.11 68.25 350.673 67.6875 351.235 67.6875H363.425C377.433 67.6875 386.772 58.8187 386.772 45.5625C386.772 31.65 377.639 22.4062 364.081 22.4062H342.422C341.765 22.4062 341.297 21.8437 341.297 21.1875V17.7187C341.297 17.0625 341.859 16.5 342.422 16.5H365.206ZM307.636 16.5C308.292 16.5 308.855 17.0625 308.855 17.625V38.3438C314.593 32.3438 321.044 32.3437 323.2 32.3437C334.602 32.3437 340.265 38.625 340.359 51.1875V72.4688C340.359 73.125 339.796 73.5938 339.14 73.5938H335.671C335.014 73.5938 334.452 73.0313 334.452 72.4688V52.5375C334.433 44.0813 333.589 38.625 322.169 38.625C314.687 38.625 308.855 45.0375 308.855 53.0625V72.4688C308.855 73.125 308.292 73.5938 307.636 73.5938H304.166C303.51 73.5938 302.948 73.0313 302.948 72.4688V17.625C302.948 16.9687 303.51 16.5 304.166 16.5H307.636ZM407.212 32.8125C407.868 32.8125 408.431 33.2813 408.431 33.9375V72.375C408.431 73.0312 407.868 73.5 407.212 73.5H403.743C403.086 73.5 402.524 72.9375 402.524 72.375V33.9375C402.524 33.2813 403.086 32.8125 403.743 32.8125H407.212ZM221.561 32.8125C222.218 32.8125 222.78 33.2813 222.78 33.9375V72.375C222.78 73.0312 222.218 73.5 221.561 73.5H218.092C217.436 73.5 216.873 72.9375 216.873 72.375V33.9375C216.873 33.2813 217.436 32.8125 218.092 32.8125H221.561ZM405.524 18.4688C407.549 18.4688 409.256 20.175 409.368 22.3125C409.368 24.45 407.662 26.1562 405.524 26.1562C403.386 26.1562 401.68 24.45 401.68 22.3125C401.68 20.175 403.386 18.4688 405.524 18.4688ZM219.874 18.4688C221.899 18.4688 223.605 20.175 223.718 22.3125C223.718 24.45 222.011 26.1562 219.874 26.1562C217.736 26.1562 216.029 24.45 216.029 22.3125C216.029 20.175 217.736 18.4688 219.874 18.4688Z" fill="white"/>
<path fill-rule="evenodd" clip-rule="evenodd" d="M84.349 0H5.66327C2.55035 0 0 2.55 0 5.6625V84.3563C0 87.4688 2.55035 90.0187 5.66327 90.0187H84.3678C87.4807 90.0187 90.0311 87.4688 90.0311 84.3563V5.6625C90.1061 2.55 87.462 0 84.349 0Z" fill="#00B299"/>
<path fill-rule="evenodd" clip-rule="evenodd" d="M19.6902 36.6375C19.6902 25.3313 27.8663 16.875 38.5928 16.875H62.3523C63.1211 16.875 63.6837 17.4375 63.6837 18.2063V20.8688C63.6837 21.6375 63.1211 22.2 62.3523 22.2H39.3616C30.8105 22.2 25.1097 28.0875 25.1097 36.825C25.1097 45.5625 30.9042 50.7938 39.8304 50.7938H48.1003C48.8692 50.7938 49.4318 51.3562 49.4318 52.125V54.7875C49.4318 55.5562 48.8692 56.1188 48.1003 56.1188H39.5492C27.6788 56.2125 19.6902 48.3188 19.6902 36.6375ZM51.1382 73.125H27.3787C26.6099 73.125 26.0473 72.5625 26.0473 71.7938V69.0375C26.0473 68.2687 26.6099 67.7063 27.3787 67.7063H50.3694C58.9206 67.7063 64.6213 61.8187 64.6213 53.0812C64.6213 44.3437 58.8268 39.1125 49.9006 39.1125H41.6307C40.8618 39.1125 40.2993 38.55 40.2993 37.7812V35.025C40.2993 34.2563 40.8618 33.6937 41.6307 33.6937H50.1819C61.9585 33.6937 69.9471 41.5875 69.9471 53.175C70.0408 64.6688 61.8647 73.125 51.1382 73.125Z" fill="white"/>
<path fill-rule="evenodd" clip-rule="evenodd" d="M178.618 32.625C178.806 32.625 179.499 32.8125 179.781 32.9062L179.874 33L192.495 60.75L201.459 33.8437C201.927 33.1875 202.49 32.8125 203.146 32.8125H206.184C206.934 32.8125 207.497 33.375 207.497 34.2187V34.3125L194.745 73.6875L194.558 73.7812C194.37 73.9687 193.733 74.0625 193.451 74.0625C193.17 74.0625 192.551 73.875 192.364 73.7812L192.176 73.5938L179.181 46.4062C178.931 46.2187 178.743 46.125 178.618 46.125H178.506C178.337 46.125 178.299 46.1625 178.055 46.4062L165.06 73.6875L164.966 73.7812C164.779 73.9687 164.16 74.0625 163.879 74.0625C163.597 74.0625 162.96 73.875 162.772 73.7812L162.585 73.6875L149.739 34.125C149.739 33.375 150.302 32.8125 151.052 32.8125H154.09C154.746 32.8125 155.309 33.1875 155.777 33.8437L155.871 33.9375L164.741 60.75L177.362 33L177.455 32.9062C177.643 32.7187 178.337 32.625 178.618 32.625ZM280.444 32.3437C285.658 32.3437 289.183 33.3563 292.784 35.6438C292.877 35.7375 293.346 36.2063 293.346 36.5813C293.346 36.7688 293.346 37.05 293.159 37.3312L291.452 40.0688C291.171 40.35 290.89 40.6312 290.421 40.6312C290.14 40.6312 289.765 40.35 289.577 40.2562C286.333 38.5875 282.939 38.3438 280.538 38.3438C272.475 38.3438 265.911 45.0937 265.911 53.25C265.911 61.4062 272.362 68.0625 280.538 68.0625C283.932 68.0625 287.139 67.5563 289.802 66.6375C290.083 66.5438 290.365 66.5438 290.552 66.5438C290.927 66.5438 291.377 66.6375 291.546 66.9375L292.802 69.825C292.915 70.1438 292.99 70.4812 292.99 70.6687C292.99 71.1375 292.709 71.325 292.427 71.5125C289.296 73.125 285.339 73.9688 280.463 73.9688C269.137 73.9688 259.648 64.725 259.648 53.1562C259.648 41.5875 269.137 32.3437 280.463 32.3437H280.444ZM240.689 16.5C241.439 16.5 242.002 17.0625 242.002 17.8125V32.3437H252.878C253.628 32.3437 254.191 32.9063 254.191 33.6563V37.2188C254.191 37.9688 253.628 38.5312 252.878 38.5312H242.002V53.9063C242.002 66.2813 243.408 68.1562 251.284 68.1562C251.472 68.1562 251.566 68.0625 251.753 68.0625C251.941 67.9687 252.034 67.9688 252.222 67.9688C252.691 67.9688 253.253 68.25 253.441 68.7188C254.097 71.25 254.097 72.4687 254.097 72.75C254.097 73.3125 253.441 73.875 253.066 73.875C252.184 73.95 251.434 73.9688 250.384 73.9688H249.409C240.314 73.9688 236.095 69.1687 236.095 57.375V17.8125C236.095 17.0625 236.657 16.5 237.407 16.5H240.689ZM127.705 32.25C130.912 32.25 135.487 32.7562 139.35 33.6L139.538 33.6937C140.007 34.0687 140.194 34.35 140.194 35.0062V35.1L139.181 38.6062C138.994 39.1125 138.319 39.3375 137.962 39.3H137.906C134.493 38.625 131.549 38.55 128.83 38.55C119.81 38.55 118.947 40.9312 118.891 43.2187V43.5187C118.891 45.8812 123.992 48.0938 128.736 49.95C129.055 50.0813 129.393 50.2125 129.711 50.3437L130.687 50.7375C137.4 53.4187 143.907 56.5875 143.907 62.475C143.907 69.7875 138.413 73.9125 128.061 73.9125C123.035 73.9125 117.803 72.7313 113.922 71.025C113.359 70.7438 113.172 70.275 113.172 69.6188V69.525L113.828 66.3563C114.015 65.7938 114.391 65.5125 114.953 65.5125H115.047C118.516 66.7312 122.904 68.1937 127.03 68.1937C131.437 68.1937 138 67.7812 138 63.5062C138 60 133.762 58.2187 129.093 56.475L128.155 56.1188L127.686 55.95C120.823 53.3813 112.965 50.55 112.965 42.8813C112.965 36.0375 118.272 32.2875 127.686 32.2875L127.705 32.25ZM439.841 32.3437C451.243 32.3437 456.906 38.625 457 51.1875V72.4688C457 73.125 456.437 73.5938 455.781 73.5938H452.312C451.655 73.5938 451.093 73.0313 451.093 72.4688V52.5375C451.074 44.0813 450.23 38.625 438.81 38.625C431.328 38.625 425.496 45.0375 425.496 53.0625V72.4688C425.496 73.125 424.933 73.5938 424.277 73.5938H420.807C420.151 73.5938 419.589 73.0313 419.589 72.4688V34.0312C419.589 33.375 420.151 32.9062 420.807 32.9062H424.277C424.933 32.9062 425.496 33.4687 425.496 34.0312V38.3438C430.953 32.6438 437.066 32.3625 439.504 32.3437H439.841ZM365.206 16.5C380.771 16.5 392.679 28.3687 392.585 45.2812C392.491 62.1937 381.108 73.5938 363.893 73.5938H351.235C350.579 73.5938 350.11 73.0312 350.11 72.375V68.9063C350.11 68.25 350.673 67.6875 351.235 67.6875H363.425C377.433 67.6875 386.772 58.8187 386.772 45.5625C386.772 31.65 377.639 22.4062 364.081 22.4062H342.422C341.765 22.4062 341.297 21.8437 341.297 21.1875V17.7187C341.297 17.0625 341.859 16.5 342.422 16.5H365.206ZM307.636 16.5C308.292 16.5 308.855 17.0625 308.855 17.625V38.3438C314.593 32.3438 321.044 32.3437 323.2 32.3437C334.602 32.3437 340.265 38.625 340.359 51.1875V72.4688C340.359 73.125 339.796 73.5938 339.14 73.5938H335.671C335.014 73.5938 334.452 73.0313 334.452 72.4688V52.5375C334.433 44.0813 333.589 38.625 322.169 38.625C314.687 38.625 308.855 45.0375 308.855 53.0625V72.4688C308.855 73.125 308.292 73.5938 307.636 73.5938H304.166C303.51 73.5938 302.948 73.0313 302.948 72.4688V17.625C302.948 16.9687 303.51 16.5 304.166 16.5H307.636ZM407.212 32.8125C407.868 32.8125 408.431 33.2813 408.431 33.9375V72.375C408.431 73.0312 407.868 73.5 407.212 73.5H403.743C403.086 73.5 402.524 72.9375 402.524 72.375V33.9375C402.524 33.2813 403.086 32.8125 403.743 32.8125H407.212ZM221.561 32.8125C222.218 32.8125 222.78 33.2813 222.78 33.9375V72.375C222.78 73.0312 222.218 73.5 221.561 73.5H218.092C217.436 73.5 216.873 72.9375 216.873 72.375V33.9375C216.873 33.2813 217.436 32.8125 218.092 32.8125H221.561ZM405.524 18.4688C407.549 18.4688 409.256 20.175 409.368 22.3125C409.368 24.45 407.662 26.1562 405.524 26.1562C403.386 26.1562 401.68 24.45 401.68 22.3125C401.68 20.175 403.386 18.4688 405.524 18.4688ZM219.874 18.4688C221.899 18.4688 223.605 20.175 223.718 22.3125C223.718 24.45 222.011 26.1562 219.874 26.1562C217.736 26.1562 216.029 24.45 216.029 22.3125C216.029 20.175 217.736 18.4688 219.874 18.4688Z" fill="#37424A"/>
<path fill-rule="evenodd" clip-rule="evenodd" d="M84.349 0C87.462 0 90.1061 2.55 90.0123 5.6625V84.3563C90.0123 87.4688 87.462 90.0187 84.349 90.0187H5.66327C2.55035 90 0 87.45 0 84.3375V5.6625C0 2.55 2.55035 0 5.66327 0H84.3678H84.349ZM19.6902 36.6375C19.6902 48.3188 27.6788 56.2125 39.5492 56.1188H48.1003C48.8692 56.1188 49.4318 55.5562 49.4318 54.7875V52.125C49.4318 51.3562 48.8692 50.7938 48.1003 50.7938H39.8304C30.9042 50.7938 25.1097 45.2812 25.1097 36.825C25.1097 28.3687 30.8105 22.2 39.3616 22.2H62.3523C63.1211 22.2 63.6837 21.6375 63.6837 20.8688V18.2063C63.6837 17.4375 63.1211 16.875 62.3523 16.875H38.5928C27.8476 16.875 19.6902 25.3313 19.6902 36.6375ZM51.1382 73.125C61.8835 73.125 70.0408 64.6688 69.9471 53.175C69.9471 41.5875 61.9585 33.6937 50.1819 33.6937H41.6307C40.8618 33.6937 40.2993 34.2563 40.2993 35.025V37.7812C40.2993 38.55 40.8618 39.1125 41.6307 39.1125H49.9006C58.8268 39.1125 64.6213 44.625 64.6213 53.0812C64.6213 61.5375 58.9206 67.7063 50.3694 67.7063H27.3787C26.6099 67.7063 26.0473 68.2687 26.0473 69.0375V71.7938C26.0473 72.5625 26.6099 73.125 27.3787 73.125H51.1382Z" fill="#37424A"/>
<path fill-rule="evenodd" clip-rule="evenodd" d="M178.618 32.625C178.806 32.625 179.499 32.8125 179.781 32.9062L179.874 33L192.495 60.75L201.459 33.8437C201.927 33.1875 202.49 32.8125 203.146 32.8125H206.184C206.934 32.8125 207.497 33.375 207.497 34.2187V34.3125L194.745 73.6875L194.558 73.7812C194.37 73.9687 193.733 74.0625 193.451 74.0625C193.17 74.0625 192.551 73.875 192.364 73.7812L192.176 73.5938L179.181 46.4062C178.931 46.2187 178.743 46.125 178.618 46.125H178.506C178.337 46.125 178.299 46.1625 178.055 46.4062L165.06 73.6875L164.966 73.7812C164.779 73.9687 164.16 74.0625 163.879 74.0625C163.597 74.0625 162.96 73.875 162.772 73.7812L162.585 73.6875L149.739 34.125C149.739 33.375 150.302 32.8125 151.052 32.8125H154.09C154.746 32.8125 155.309 33.1875 155.777 33.8437L155.871 33.9375L164.741 60.75L177.362 33L177.455 32.9062C177.643 32.7187 178.337 32.625 178.618 32.625ZM280.444 32.3437C285.658 32.3437 289.183 33.3563 292.784 35.6438C292.877 35.7375 293.346 36.2063 293.346 36.5813C293.346 36.7688 293.346 37.05 293.159 37.3312L291.452 40.0688C291.171 40.35 290.89 40.6312 290.421 40.6312C290.14 40.6312 289.765 40.35 289.577 40.2562C286.333 38.5875 282.939 38.3438 280.538 38.3438C272.475 38.3438 265.911 45.0937 265.911 53.25C265.911 61.4062 272.362 68.0625 280.538 68.0625C283.932 68.0625 287.139 67.5563 289.802 66.6375C290.083 66.5438 290.365 66.5438 290.552 66.5438C290.927 66.5438 291.377 66.6375 291.546 66.9375L292.802 69.825C292.915 70.1438 292.99 70.4812 292.99 70.6687C292.99 71.1375 292.709 71.325 292.427 71.5125C289.296 73.125 285.339 73.9688 280.463 73.9688C269.137 73.9688 259.648 64.725 259.648 53.1562C259.648 41.5875 269.137 32.3437 280.463 32.3437H280.444ZM240.689 16.5C241.439 16.5 242.002 17.0625 242.002 17.8125V32.3437H252.878C253.628 32.3437 254.191 32.9063 254.191 33.6563V37.2188C254.191 37.9688 253.628 38.5312 252.878 38.5312H242.002V53.9063C242.002 66.2813 243.408 68.1562 251.284 68.1562C251.472 68.1562 251.566 68.0625 251.753 68.0625C251.941 67.9687 252.034 67.9688 252.222 67.9688C252.691 67.9688 253.253 68.25 253.441 68.7188C254.097 71.25 254.097 72.4687 254.097 72.75C254.097 73.3125 253.441 73.875 253.066 73.875C252.184 73.95 251.434 73.9688 250.384 73.9688H249.409C240.314 73.9688 236.095 69.1687 236.095 57.375V17.8125C236.095 17.0625 236.657 16.5 237.407 16.5H240.689ZM127.705 32.25C130.912 32.25 135.487 32.7562 139.35 33.6L139.538 33.6937C140.007 34.0687 140.194 34.35 140.194 35.0062V35.1L139.181 38.6062C138.994 39.1125 138.319 39.3375 137.962 39.3H137.906C134.493 38.625 131.549 38.55 128.83 38.55C119.81 38.55 118.947 40.9312 118.891 43.2187V43.5187C118.891 45.8812 123.992 48.0938 128.736 49.95C129.055 50.0813 129.393 50.2125 129.711 50.3437L130.687 50.7375C137.4 53.4187 143.907 56.5875 143.907 62.475C143.907 69.7875 138.413 73.9125 128.061 73.9125C123.035 73.9125 117.803 72.7313 113.922 71.025C113.359 70.7438 113.172 70.275 113.172 69.6188V69.525L113.828 66.3563C114.015 65.7938 114.391 65.5125 114.953 65.5125H115.047C118.516 66.7312 122.904 68.1937 127.03 68.1937C131.437 68.1937 138 67.7812 138 63.5062C138 60 133.762 58.2187 129.093 56.475L128.155 56.1188L127.686 55.95C120.823 53.3813 112.965 50.55 112.965 42.8813C112.965 36.0375 118.272 32.2875 127.686 32.2875L127.705 32.25ZM439.841 32.3437C451.243 32.3437 456.906 38.625 457 51.1875V72.4688C457 73.125 456.437 73.5938 455.781 73.5938H452.312C451.655 73.5938 451.093 73.0313 451.093 72.4688V52.5375C451.074 44.0813 450.23 38.625 438.81 38.625C431.328 38.625 425.496 45.0375 425.496 53.0625V72.4688C425.496 73.125 424.933 73.5938 424.277 73.5938H420.807C420.151 73.5938 419.589 73.0313 419.589 72.4688V34.0312C419.589 33.375 420.151 32.9062 420.807 32.9062H424.277C424.933 32.9062 425.496 33.4687 425.496 34.0312V38.3438C430.953 32.6438 437.066 32.3625 439.504 32.3437H439.841ZM365.206 16.5C380.771 16.5 392.679 28.3687 392.585 45.2812C392.491 62.1937 381.108 73.5938 363.893 73.5938H351.235C350.579 73.5938 350.11 73.0312 350.11 72.375V68.9063C350.11 68.25 350.673 67.6875 351.235 67.6875H363.425C377.433 67.6875 386.772 58.8187 386.772 45.5625C386.772 31.65 377.639 22.4062 364.081 22.4062H342.422C341.765 22.4062 341.297 21.8437 341.297 21.1875V17.7187C341.297 17.0625 341.859 16.5 342.422 16.5H365.206ZM307.636 16.5C308.292 16.5 308.855 17.0625 308.855 17.625V38.3438C314.593 32.3438 321.044 32.3437 323.2 32.3437C334.602 32.3437 340.265 38.625 340.359 51.1875V72.4688C340.359 73.125 339.796 73.5938 339.14 73.5938H335.671C335.014 73.5938 334.452 73.0313 334.452 72.4688V52.5375C334.433 44.0813 333.589 38.625 322.169 38.625C314.687 38.625 308.855 45.0375 308.855 53.0625V72.4688C308.855 73.125 308.292 73.5938 307.636 73.5938H304.166C303.51 73.5938 302.948 73.0313 302.948 72.4688V17.625C302.948 16.9687 303.51 16.5 304.166 16.5H307.636ZM407.212 32.8125C407.868 32.8125 408.431 33.2813 408.431 33.9375V72.375C408.431 73.0312 407.868 73.5 407.212 73.5H403.743C403.086 73.5 402.524 72.9375 402.524 72.375V33.9375C402.524 33.2813 403.086 32.8125 403.743 32.8125H407.212ZM221.561 32.8125C222.218 32.8125 222.78 33.2813 222.78 33.9375V72.375C222.78 73.0312 222.218 73.5 221.561 73.5H218.092C217.436 73.5 216.873 72.9375 216.873 72.375V33.9375C216.873 33.2813 217.436 32.8125 218.092 32.8125H221.561ZM405.524 18.4688C407.549 18.4688 409.256 20.175 409.368 22.3125C409.368 24.45 407.662 26.1562 405.524 26.1562C403.386 26.1562 401.68 24.45 401.68 22.3125C401.68 20.175 403.386 18.4688 405.524 18.4688ZM219.874 18.4688C221.899 18.4688 223.605 20.175 223.718 22.3125C223.718 24.45 222.011 26.1562 219.874 26.1562C217.736 26.1562 216.029 24.45 216.029 22.3125C216.029 20.175 217.736 18.4688 219.874 18.4688Z" fill="#37424A"/>
<path fill-rule="evenodd" clip-rule="evenodd" d="M84.349 0H5.66327C2.55035 0 0 2.55 0 5.6625V84.3563C0 87.45 2.55035 90 5.66327 90H84.3678C87.4807 90 90.0311 87.45 90.0311 84.3375V5.6625C90.1248 2.55 87.4807 0 84.3678 0H84.349Z" fill="#00B299"/>
<path fill-rule="evenodd" clip-rule="evenodd" d="M19.6902 36.6375C19.6902 25.3313 27.8663 16.875 38.5928 16.875H62.3523C63.1211 16.875 63.6837 17.4375 63.6837 18.2063V20.8688C63.6837 21.6375 63.1211 22.2 62.3523 22.2H39.3616C30.8105 22.2 25.1097 28.0875 25.1097 36.825C25.1097 45.5625 30.9042 50.7938 39.8304 50.7938H48.1003C48.8692 50.7938 49.4318 51.3562 49.4318 52.125V54.7875C49.4318 55.5562 48.8692 56.1188 48.1003 56.1188H39.5492C27.6788 56.2125 19.6902 48.3188 19.6902 36.6375ZM51.1382 73.125H27.3787C26.6099 73.125 26.0473 72.5625 26.0473 71.7938V69.0375C26.0473 68.2687 26.6099 67.7063 27.3787 67.7063H50.3694C58.9206 67.7063 64.6213 61.8187 64.6213 53.0812C64.6213 44.3437 58.8268 39.1125 49.9006 39.1125H41.6307C40.8618 39.1125 40.2993 38.55 40.2993 37.7812V35.025C40.2993 34.2563 40.8618 33.6937 41.6307 33.6937H50.1819C61.9585 33.6937 69.9471 41.5875 69.9471 53.175C70.0408 64.6688 61.8647 73.125 51.1382 73.125Z" fill="white"/>
</g>
<defs>
<clipPath id="clip0_288_928">
<rect width="457" height="90" fill="white"/>
</clipPath>
</defs>
</svg>
