<?xml version="1.0" encoding="UTF-8"?>
<svg id="Layer_1" data-name="Layer 1" xmlns="http://www.w3.org/2000/svg" version="1.1" viewBox="0 0 464 175.8">
  <defs>
    <style>
      .cls-1, .cls-2 {
        fill: #000;
        stroke-width: 0px;
      }

      .cls-2 {
        fill-rule: evenodd;
      }
    </style>
  </defs>
  <path class="cls-2" d="M439.3,35.8c0-12.9-10.5-23.4-23.4-23.4s-23.4,10.5-23.4,23.4,10.5,23.4,23.4,23.4c12.9,0,23.4-10.5,23.4-23.4"/>
  <path class="cls-2" d="M464,8.4c0-4.6-3.8-8.4-8.4-8.4s-8.4,3.8-8.4,8.4,3.8,8.4,8.4,8.4c4.6,0,8.4-3.7,8.4-8.4"/>
  <path class="cls-2" d="M342.3,92.9v41.5c0,11.8,9.3,21.1,21.1,21.1h9.8v20.2h-9.8c-22.8,0-41.3-18.5-41.3-41.3V46.1h20.2v26.5h30.9v20.2h-30.9Z"/>
  <rect class="cls-1" x="265.1" y="46.1" width="20.2" height="128.6"/>
  <path class="cls-2" d="M178.4,155.7c-17.4,0-31.4-14.1-31.4-31.4s14.1-31.4,31.4-31.4,31.4,14.1,31.4,31.4-14.1,31.4-31.4,31.4M178.4,72.7c-28.5,0-51.6,23.1-51.6,51.6s23.1,51.6,51.6,51.6,51.6-23.1,51.6-51.6-23.1-51.6-51.6-51.6Z"/>
  <polygon class="cls-2" points="95.6 46.1 82.2 75.3 94 101.1 119.3 46.1 95.6 46.1"/>
  <polygon class="cls-2" points="23.7 46.1 0 46.1 59.7 175.8 71.5 150.1 47.3 97.3 23.7 46.1"/>
</svg>