<?xml version="1.0" encoding="utf-8"?>
<!-- Generator: Adobe Illustrator 28.3.0, SVG Export Plug-In . SVG Version: 6.00 Build 0)  -->
<svg version="1.1" id="Layer_1" xmlns="http://www.w3.org/2000/svg" xmlns:xlink="http://www.w3.org/1999/xlink" x="0px" y="0px"
	 viewBox="0 0 317.1 100" style="enable-background:new 0 0 317.1 100;" xml:space="preserve">
<style type="text/css">
	.st0{fill:#F89E1E;}
	.st1{fill:#3E2766;}
	.st2{fill:#3D2765;}
	.st3{fill:#3E2765;}
	.st4{fill:#3D2665;}
	.st5{fill:#FDC535;}
	.st6{fill:#412A68;}
	.st7{fill:#FDC537;}
	.st8{fill:#FDC73D;}
	.st9{fill:#FDC433;}
	.st10{fill:#432D69;}
	.st11{fill:#412B68;}
	.st12{fill:#FDC534;}
	.st13{fill:#47316D;}
	.st14{fill:#432D6A;}
	.st15{fill:#FEFEFE;}
</style>
<path class="st0" d="M127.5,50.6c0,5.6,0,11.2,0,16.8c0,1.3-0.3,1.7-1.7,1.6c-10.2-0.7-18-9.6-17.2-19.8c0.6-8.5,6.9-15.5,15.2-17
	c3.6-0.6,3.6-0.6,3.6,3C127.5,40.3,127.5,45.4,127.5,50.6z"/>
<path class="st1" d="M170.6,56.4c-2.1,2.7-4.5,3.9-7.5,3.8c-0.9,0-1.8-0.2-2.6-0.4c-2.4-0.5-4.1-2.6-4.1-5c0.2-2.3,1.9-4.3,4.2-4.7
	c2.6-0.7,5.3-0.2,7.9-0.3c2-0.1,2.6-1.1,1.5-2.9c-0.9-1.5-2.6-2.4-4.3-2.4c-1.9-0.2-3.9,0.1-5.6,0.9c-0.5,0.2-1,0.7-1.4-0.2
	s0.5-0.8,0.9-1c2.7-1.3,5.9-1.4,8.8-0.3c2.1,0.7,3.5,2.8,3.4,5.1c-0.1,3.3,0,6.7,0,10c0,0.5,0.2,1.2-0.7,1.1s-0.4-0.7-0.5-1.1
	C170.6,58.1,170.6,57.5,170.6,56.4z"/>
<path class="st2" d="M86,56.6c-2.4,2.9-5.3,4-8.8,3.4s-5.3-2.7-5.2-5.6c0.2-2.6,2.7-4.7,6-4.8c2.3-0.1,4.7,0,7,0
	c0.8,0,1.1-0.2,1.1-1c0-2.3-1.8-4-4.7-4.3c-2-0.2-4,0.1-5.8,0.9c-0.5,0.2-0.9,0.6-1.3-0.2s0.4-0.9,0.7-1c2.7-1.3,5.9-1.5,8.8-0.4
	c2.2,0.7,3.6,2.9,3.5,5.2c-0.1,3.3,0,6.7,0,10c0,0.4,0.3,1-0.5,1s-0.5-0.6-0.6-1C86.1,58.2,86.1,57.5,86,56.6z"/>
<path class="st3" d="M206.8,56.8c-2.2,2.9-5.9,4.1-9.4,3.1c-2.5-0.4-4.4-2.5-4.5-5c0-2.3,1.8-4.3,4.4-4.9s5.2-0.1,7.8-0.3
	c0.6,0,1.5,0.4,1.8-0.3c0.3-0.9,0.2-1.9-0.4-2.7c-1-1.4-2.6-2.2-4.3-2.3c-1.9-0.2-3.9,0.1-5.6,0.9c-0.5,0.2-1,0.6-1.4-0.2
	s0.4-0.8,0.7-0.9c3.1-1.3,6.2-1.7,9.3-0.2c1.9,0.8,3.1,2.7,2.9,4.7c-0.1,3.3,0,6.7,0,10c0,0.4,0.3,1.2-0.5,1.2c-1,0-0.5-0.8-0.6-1.3
	S207.1,57.4,206.8,56.8z"/>
<path class="st3" d="M223.5,59.6l7.3-15.1c0.2-0.3,0.3-0.7,0.5-1s0.3-0.6,0.8-0.3s0.7,0.4,0.4,0.9c-0.5,0.9-0.9,1.8-1.3,2.7
	c-2.7,5.6-5.4,11.2-8.1,16.8c-0.4,1.1-1.1,2-1.9,2.8c-1.7,1.5-4.4,1.3-5.9-0.4c-0.1-0.1-0.1-0.2-0.2-0.2c-0.2-0.3-0.5-0.6-0.1-0.9
	c0.3-0.3,0.7-0.3,1-0.1c0,0,0,0,0.1,0.1c2.4,1.9,3.8,1.6,5.3-1c1.1-1.5,1.3-3.6,0.3-5.3c-2.2-4.5-4.2-9.2-6.2-13.9
	c-0.2-0.4-1-1,0.1-1.5s0.9,0.5,1,0.9C218.9,49.2,221.1,54.3,223.5,59.6z"/>
<path class="st3" d="M65.6,51.6c-0.2,4.6-4,8.2-8.6,8s-8.2-4-8-8.6c0.2-4.5,3.9-8.1,8.5-8C62,43.1,65.7,47,65.6,51.6z"/>
<path class="st4" d="M176.6,47.9c2.2-3.5,4.9-5.2,8.8-4.9c3,0.1,5.4,2.6,5.3,5.6c0,0,0,0,0,0c0,3.3,0,6.7,0,10
	c0,0.5,0.4,1.3-0.7,1.2s-0.6-0.8-0.6-1.3c0-3,0-5.9,0-8.9c0-4.3-2.8-6.4-7-5.2c-3.4,1-5.7,4.1-5.8,7.7c-0.1,2.2,0,4.5,0,6.7
	c0,0.4,0.2,1-0.6,1s-0.7-0.5-0.7-0.9c0-4.9,0-9.9,0-14.8c0-0.3-0.1-0.8,0.4-0.8s0.6,0.4,0.7,0.8C176.4,45.3,176.5,46.4,176.6,47.9z"
	/>
<path class="st3" d="M40,60.2c-2.1,0-4.1-0.8-5.7-2.1c-0.3-0.2-0.8-0.5-0.4-1s0.8-0.4,1.3,0c2.6,2.1,6.2,2.4,9.1,0.9
	c1.2-0.4,2-1.4,2.1-2.7c0-1.4-1.1-2.1-2.2-2.5c-1.9-0.7-3.8-1.2-5.7-1.9c-2.6-1-3.8-2.3-3.5-4.1s2.2-3.4,4.7-3.7
	c2.2-0.3,4.4,0.3,6.1,1.7c0.3,0.2,1,0.4,0.4,1.1s-0.8,0.4-1.3,0c-1.9-1.6-4.5-2-6.7-1c-1,0.3-1.8,1.2-1.9,2.3c0,1.1,0.8,2,1.8,2.2
	c1.7,0.6,3.4,1.2,5.2,1.7c0.3,0.1,0.6,0.2,0.9,0.3c1.9,0.8,3.6,1.7,3.6,4.1c0,1.8-1.4,3.3-3.8,4.2C42.6,60.1,41.3,60.2,40,60.2z"/>
<path class="st3" d="M273.8,43c1.7,0,3.4,0.5,4.8,1.6c0.3,0.3,1.1,0.5,0.6,1.2s-0.9,0.3-1.4-0.1c-1.9-1.6-4.5-1.9-6.7-0.8
	c-1,0.3-1.8,1.2-1.8,2.3c0.1,1,0.8,1.9,1.8,2.1c1.6,0.6,3.3,1.1,5,1.7c1.1,0.3,2.1,0.8,3,1.4c1.7,1,2.3,3.2,1.3,5
	c-0.2,0.4-0.6,0.8-0.9,1c-2.9,2.6-9.1,2.5-12-0.2c-0.3-0.3-0.9-0.5-0.4-1.1s0.9-0.2,1.3,0.1c2.5,1.9,5.8,2.3,8.7,1
	c1.2-0.5,2.4-1.3,2.4-2.8s-1.2-2.2-2.4-2.7c-1.8-0.7-3.7-1.2-5.5-1.8c-2.7-1-3.8-2.4-3.6-4.2s2.3-3.4,4.7-3.6
	C273.1,43,273.4,43,273.8,43z"/>
<path class="st5" d="M131.2,51.7c0-5.1,0-10.2,0-15.3c0-0.6-0.4-1.5,0.8-1.5s0.8,0.8,0.8,1.4c0,10.2,0,20.4,0,30.5
	c0,0.2,0,0.4,0,0.6c0,0.8-0.5,0.8-1,0.9c-0.9,0.1-0.6-0.6-0.6-0.9C131.2,62.2,131.2,57,131.2,51.7z"/>
<path class="st1" d="M259,43c1.8,0,3.6,0.7,4.9,1.9c0.3,0.3,1.1,0.4,0.5,1.2s-0.9,0.2-1.4-0.1c-3-2.5-7.5-2.1-10,0.9
	c-0.7,0.8-1.2,1.8-1.4,2.9c-0.8,3,0.5,6.2,3.1,7.9c2.5,1.8,5.9,1.6,8.3-0.3c0.4-0.3,0.8-1.2,1.5-0.3s-0.3,1-0.6,1.3
	c-2.8,2.3-6.9,2.5-9.9,0.4c-4-2.6-5-7.9-2.4-11.9C253.1,44.3,256,42.9,259,43z"/>
<path class="st6" d="M236,50.5c0-1.6-0.1-3.1,0-4.7c0-1-0.2-1.4-1.3-1.3c-0.5,0-1.3,0.3-1.3-0.6s0.8-0.7,1.3-0.6
	c1.1,0.1,1.4-0.4,1.3-1.3c-0.1-0.6,0-1.2,0-1.9c-0.1-0.3,0.2-0.6,0.5-0.7c0.1,0,0.1,0,0.2,0c0.4,0,0.7,0.2,0.7,0.7
	c0,0.1,0,0.2,0,0.3c0.2,2.9,0.2,2.9,3.1,2.9c0.7,0,1.5,0,2.2,0c0.5,0,1.1-0.2,1.1,0.7c-0.1,0.7-0.6,0.6-1,0.6c-1.4,0-2.8,0-4.2,0
	c-0.9,0-1.1,0.2-1.1,1.1c0,3.2,0,6.3,0,9.5c-0.1,1.9,1.3,3.6,3.3,3.7c0.6,0,1.1-0.1,1.7-0.3c0.2-0.1,0.4-0.2,0.6-0.3
	c0.5-0.3,0.8,0.1,1,0.4s-0.1,0.6-0.4,0.8c-2.3,1.4-5.3,0.7-6.7-1.6c-0.3-0.5-0.5-1.1-0.6-1.7c-0.1-1.9-0.1-3.7,0-5.6L236,50.5z"/>
<path class="st7" d="M133.8,54.1c0-4,0-8.1,0-12.1c0-0.5-0.3-1.3,0.7-1.4s0.9,0.8,0.9,1.4c0,8,0,16,0,24c0,0.3,0,0.6-0.1,0.9
	c-0.1,0.6-0.7,0.7-1.1,0.7c-0.7,0.1-0.4-0.6-0.4-0.9C133.8,62.5,133.8,58.3,133.8,54.1z"/>
<path class="st8" d="M139.2,64.8v-6.9c0-4.1,0-8.2,0-12.3c0-0.6-0.2-1.3,0.8-1.3s0.9,0.6,0.9,1.2c0,5.6,0,11.2,0,16.8
	C141,63.5,140.2,63.9,139.2,64.8z"/>
<path class="st9" d="M130.1,57.1c0,3.5,0,7,0,10.4c0,0.7,0,1.4-1,1.4s-0.6-0.8-0.6-1.3c0-7,0-14,0-21c0-0.5-0.3-1.3,0.8-1.3
	s0.8,0.8,0.8,1.4C130.1,50.2,130.1,53.6,130.1,57.1z"/>
<path class="st10" d="M92,48c1-1.4,2.2-2.6,3.6-3.7c1-0.7,2.1-1.2,3.3-1.3c0.3,0,0.8-0.2,0.8,0.3c0,0.4,0,0.8-0.5,1
	c-5.4,1.9-7.1,4.3-7.1,10c0,1.5,0,2.9,0,4.4c0,0.4,0.3,1.1-0.6,1.2s-0.7-0.7-0.7-1.2c0-4.7,0-9.3,0-14c0-0.5-0.3-1.3,0.6-1.3
	s0.5,0.8,0.5,1.2C92,45.7,92,46.8,92,48z"/>
<path class="st11" d="M69.5,59.8c-1.2-0.2-1.3-0.9-1.3-1.7c0-7.2,0-14.3,0-21.5c0-0.4-0.2-1,0.6-1s0.7,0.4,0.7,0.9L69.5,59.8z"/>
<path class="st11" d="M213,59.8c-1-0.1-1.3-0.7-1.3-1.5V36.5c0-0.5-0.1-1,0.7-0.9s0.6,0.7,0.6,1.2c0,6.8,0,13.6,0,20.4
	C213,58,213,58.9,213,59.8z"/>
<path class="st12" d="M141.9,62V43.1c0-0.5,0-1,0.8-1s0.8,0.4,0.8,1c0,5.3,0,10.7,0,16C143.5,60.2,142.8,60.9,141.9,62z"/>
<path class="st9" d="M136.6,66.4c0-5.6,0-11.1,0-16.6c0-0.6,0.3-0.8,0.9-0.8s0.8,0.4,0.8,0.9v15C138.2,65.8,137.5,66.1,136.6,66.4z"
	/>
<path class="st13" d="M247.5,51.8c0,2.3,0,4.7,0,7c0,0.5,0.2,1.1-0.7,1.1s-0.6-0.6-0.6-1c0-4.8,0-9.7,0-14.5c0-0.5-0.1-1.1,0.7-1.1
	s0.6,0.7,0.6,1.2C247.5,46.9,247.5,49.4,247.5,51.8z"/>
<path class="st5" d="M144.7,44.2c1.7,3.9,1.7,8.4,0,12.3V44.2z"/>
<path class="st14" d="M248,38.1c0,0.6-0.5,1-1.1,1c0,0,0,0,0,0c-0.6,0-1-0.4-1.1-0.9c0-0.1,0-0.1,0-0.2c-0.1-0.5,0.3-1,0.9-1.1
	c0.1,0,0.2,0,0.3,0C247.6,36.9,248,37.4,248,38.1C248,38,248,38.1,248,38.1z"/>
<path class="st15" d="M166,50.9c1.1,0,2.2,0.1,3.3,0s1.2,0.3,1.2,1.2c0.2,2.6-1.3,5-3.7,5.9c-2.4,1.3-5.4,1.2-7.7-0.5
	c-1.5-1.1-1.9-3.2-0.8-4.7c0.2-0.3,0.5-0.6,0.8-0.8c1-0.8,2.3-1.2,3.6-1.2C163.8,50.9,164.9,50.9,166,50.9z"/>
<path class="st15" d="M81.6,50.9c0.8,0.1,1.7,0.1,2.5,0c1.5-0.2,2.1,0.2,2,1.9c-0.2,3.5-3.5,6.3-7.5,6.1c-1.2,0-2.4-0.3-3.4-0.9
	c-1.7-0.9-2.4-3-1.5-4.7c0.3-0.6,0.8-1.1,1.4-1.5c1-0.6,2.2-0.9,3.4-0.9C79.6,50.9,80.6,50.9,81.6,50.9z"/>
<path class="st15" d="M202.4,50.9c1,0,2.1,0.1,3.1,0s1.3,0.4,1.4,1.4c0.2,2.5-1.3,4.9-3.7,5.8c-2.4,1.3-5.4,1.2-7.7-0.5
	c-1.5-1.1-1.9-3.1-0.8-4.6c0.3-0.4,0.6-0.7,0.9-0.9c1.1-0.8,2.3-1.2,3.6-1.1C200.4,50.9,201.4,50.9,202.4,50.9z"/>
<path class="st15" d="M64.3,51.6c0.1,3.9-3.1,7.2-7,7.3c-3.9-0.2-7-3.4-7-7.3c-0.1-4,3.1-7.3,7-7.3c0,0,0,0,0.1,0
	C61.3,44.4,64.4,47.7,64.3,51.6C64.3,51.6,64.3,51.6,64.3,51.6z"/>
</svg>
