<svg width="180" height="181" viewBox="0 0 180 181" fill="none" xmlns="http://www.w3.org/2000/svg">
<path d="M31.5502 62.9536H67.7957V69.2562H31.5502V62.9536ZM87.093 117.28C97.6655 117.28 106.266 108.77 106.266 98.3108C106.266 87.8515 97.6642 79.3413 87.093 79.3413C76.5219 79.3413 67.9205 87.8515 67.9205 98.3108C67.9205 108.77 76.5219 117.28 87.093 117.28ZM87.093 86.0965C93.8597 86.0965 99.3652 91.5762 99.3652 98.3108C99.3652 105.045 93.8597 110.525 87.093 110.525C80.3263 110.525 74.8209 105.045 74.8209 98.3108C74.8209 91.5762 80.3263 86.0965 87.093 86.0965ZM31.6723 79.7245L49.6646 117.557L67.6646 79.7245H60.0442L49.6646 102.043L39.2992 79.7245H31.6723ZM112.887 62.9536H119.885V116.916H112.887V62.9536Z" fill="black"/>
<path d="M90 175.448C136.873 175.448 175.009 137.341 175.009 90.4999C175.009 43.6588 136.873 5.55151 90 5.55151C43.1254 5.55151 4.99115 43.6588 4.99115 90.4999C4.99115 137.341 43.1254 175.448 90 175.448ZM90 11.8721C133.389 11.8721 168.688 47.1444 168.688 90.4999C168.688 133.856 133.389 169.128 90 169.128C46.611 169.128 11.3117 133.856 11.3117 90.4999C11.3117 47.1444 46.611 11.8721 90 11.8721Z" fill="black"/>
<path d="M132.456 69.7074V79.7205H126.378V86.0231H132.456V116.915H139.454V86.0244H142.491C144.094 86.0244 145.535 85.091 146.251 83.588L148.092 79.7218H139.454V69.7087H132.456V69.7074Z" fill="black"/>
</svg>
